<svg width="20" height="21" viewBox="0 0 20 21" fill="none" xmlns="http://www.w3.org/2000/svg">
<path fill-rule="evenodd" clip-rule="evenodd" d="M7.71987 2.19327C8.949 1.81041 10.2724 1.74573 11.5333 1.99991C12.963 2.28538 14.3036 2.99526 15.3576 4.00968C16.1921 4.80896 16.85 5.7973 17.2638 6.88175L17.3947 7.24893C17.6671 8.08137 17.7892 8.9593 17.7843 9.83292C18.2514 10.074 18.6418 10.4628 18.88 10.9355C19.1942 11.5475 19.2379 12.2896 19.0031 12.9355L19.004 12.9364C18.7907 13.5349 18.3412 14.0327 17.7843 14.3222C17.7815 14.8231 17.8199 15.3829 17.6691 15.9091L17.6701 15.9101C17.3741 17.0439 16.4396 17.9738 15.3097 18.2528L15.3107 18.2538C14.8249 18.3884 14.3125 18.3521 13.8576 18.3564H11.7072C11.6369 18.7853 11.256 19.1439 10.8097 19.1454H8.78823C8.3167 19.1343 7.90921 18.7206 7.89858 18.248V17.3905C7.90279 17.0213 8.14373 16.6793 8.47963 16.5439C8.66379 16.4636 8.86539 16.4744 9.01186 16.4755C9.6178 16.4781 10.2342 16.4714 10.8439 16.4784H10.8497C11.2812 16.4986 11.6377 16.8504 11.7072 17.2646C12.6437 17.2664 13.5807 17.2659 14.5177 17.2655L14.7033 17.2567C15.1347 17.217 15.554 17.0453 15.8878 16.7665L15.8888 16.7655C16.3596 16.3815 16.6641 15.7932 16.6974 15.1825C16.7054 14.9865 16.701 14.7936 16.7003 14.5937C16.4212 14.6021 16.1415 14.5998 15.8712 14.5995C15.5745 14.6035 15.3231 14.3401 15.3331 14.0458C15.3313 12.7387 15.3322 11.4307 15.3322 10.1239C15.3185 9.82842 15.5662 9.55169 15.8722 9.55753C16.142 9.55661 16.42 9.55349 16.6974 9.56143C16.6764 8.68506 16.4933 7.81217 16.1466 7.00968L15.9777 6.6503C15.4005 5.49855 14.4889 4.51984 13.3869 3.8671C12.3272 3.23432 11.0892 2.90955 9.85854 2.94034C8.63059 2.96436 7.40966 3.34159 6.37905 4.01749L6.37807 4.01846C5.1153 4.83909 4.13668 6.10016 3.65834 7.53897L3.65737 7.53995C3.43766 8.18902 3.32375 8.87409 3.30678 9.56143C3.58485 9.55337 3.8636 9.5566 4.13393 9.55753C4.44088 9.55113 4.68783 9.82902 4.67397 10.1249V14.0507C4.68174 14.3653 4.39935 14.6197 4.09584 14.5995C3.98283 14.5965 3.86778 14.5989 3.75014 14.6005C3.63344 14.6021 3.51281 14.6037 3.39272 14.6015C3.15299 14.5971 2.90466 14.5758 2.65932 14.5009C2.04303 14.3232 1.50645 13.8944 1.18764 13.3368C0.83603 12.7352 0.759339 11.9835 0.967914 11.3212C1.16554 10.6802 1.63203 10.1381 2.22182 9.83389C2.21041 8.55361 2.49219 7.26573 3.07924 6.12491C4.0215 4.25749 5.73198 2.80264 7.71987 2.19327ZM8.97963 18.2973H10.6359C10.6359 18.1339 10.6363 17.5537 10.6359 17.3905C10.084 17.3903 9.53174 17.3903 8.97963 17.3905V18.2973ZM3.59194 10.6464C3.37129 10.645 3.17671 10.6416 2.98549 10.6962L2.98256 10.6972C2.58323 10.8037 2.23599 11.1004 2.06459 11.4814C1.9128 11.8112 1.89617 12.2032 2.01381 12.5468L2.07241 12.6913L2.07338 12.6923C2.24871 13.0693 2.59718 13.3606 2.99526 13.4628H2.99721C3.18494 13.5146 3.37617 13.5104 3.59194 13.5087C3.59224 12.5547 3.59224 11.6004 3.59194 10.6464ZM16.4152 13.5087C16.6311 13.5102 16.8221 13.5145 17.0099 13.4628H17.0119C17.4023 13.3616 17.744 13.0801 17.922 12.7138L17.923 12.7128L17.9874 12.5614C18.116 12.1996 18.0945 11.7833 17.922 11.4403L17.921 11.4384C17.7373 11.0629 17.38 10.7778 16.9767 10.6855L16.9747 10.6845C16.7964 10.6407 16.6177 10.6457 16.4152 10.6474C16.4151 11.6012 16.4143 12.5551 16.4152 13.5087Z" fill="black"/>
<path d="M6.98859 7.19654C7.73631 6.45113 8.76214 5.99781 9.81219 5.95667C10.7613 5.91219 11.7222 6.19723 12.4931 6.75878C13.3193 7.35036 13.9283 8.24477 14.1734 9.23815C14.4288 10.2527 14.3055 11.3595 13.8267 12.2883C13.3233 13.281 12.4289 14.0631 11.3821 14.4189C10.3497 14.7777 9.18297 14.714 8.19383 14.2473C7.5969 14.5042 7.00437 14.7725 6.40487 15.0231C6.1385 15.1299 5.83031 14.8589 5.89819 14.5772C6.02733 13.8859 6.16088 13.1957 6.2915 12.5048C5.82518 11.7038 5.61862 10.7516 5.72098 9.82714C5.82408 8.83672 6.28269 7.89116 6.98859 7.19654ZM9.37192 6.79993C8.62529 6.93522 7.92746 7.32368 7.41418 7.88783C6.83009 8.52055 6.48852 9.3753 6.47861 10.2408C6.46724 10.9121 6.64958 11.5852 6.99996 12.156C7.066 12.2583 7.11553 12.3803 7.08692 12.5048C6.99666 13.0004 6.8987 13.4949 6.80624 13.9901C7.2289 13.8107 7.64679 13.619 8.07055 13.4426C8.21107 13.3822 8.35966 13.4415 8.48514 13.5093C9.4585 13.9919 10.6546 13.9712 11.6136 13.4622C12.4021 13.0527 13.0258 12.3317 13.32 11.4862C13.6047 10.6797 13.5864 9.7682 13.2672 8.97461C12.9377 8.14321 12.2854 7.44859 11.4801 7.07311C10.8281 6.76397 10.08 6.67057 9.37192 6.79993Z" fill="black"/>
<path d="M7.91676 9.13729C8.0217 9.10503 8.13286 9.11689 8.2411 9.11504C9.42726 9.11541 10.6134 9.11578 11.7996 9.11467C11.9122 9.11652 12.0333 9.10428 12.1364 9.16066C12.2919 9.23929 12.3796 9.43029 12.3363 9.60127C12.2982 9.77818 12.1279 9.91133 11.9489 9.9054C10.6494 9.90725 9.35021 9.90725 8.05105 9.9054C7.86136 9.91207 7.68269 9.76224 7.65774 9.5716C7.62545 9.38838 7.74139 9.19404 7.91676 9.13729Z" fill="#FF7000"/>
<path d="M7.95645 10.707C8.62346 10.6829 9.2934 10.7037 9.96151 10.6966C10.1688 10.6792 10.3724 10.8435 10.3853 11.0571C10.4121 11.2815 10.2161 11.494 9.99343 11.487C9.34587 11.4888 8.69794 11.4884 8.05001 11.487C7.87647 11.4929 7.7099 11.3705 7.66477 11.201C7.59836 10.9911 7.74218 10.747 7.95645 10.707Z" fill="#FF7000"/>
</svg>
