<svg width="20" height="21" viewBox="0 0 20 21" fill="none" xmlns="http://www.w3.org/2000/svg">
<path d="M14.3178 2.53746C14.4813 2.46086 14.6746 2.46194 14.8382 2.53889C16.1493 3.10086 17.4608 3.66212 18.7716 4.22516C18.9907 4.30856 19.1493 4.51867 19.1586 4.75491V7.20252C19.145 7.76663 19.1063 8.33254 18.9928 8.88592C18.8472 9.65156 18.559 10.3918 18.1313 11.044C17.3971 12.1614 16.3079 12.9879 15.1747 13.6684C14.985 13.7729 14.8046 13.9318 14.5758 13.929C14.3944 13.9333 14.2404 13.8259 14.0923 13.736C13.2053 13.2106 12.3519 12.6071 11.6511 11.845C11.0132 11.156 10.534 10.3173 10.2863 9.4103C10.0085 8.45066 9.98416 7.44341 9.99525 6.45156C9.9949 5.92646 9.99597 5.40136 9.99454 4.8759C9.99525 4.75169 10.0013 4.62212 10.0608 4.50972C10.1284 4.36869 10.2623 4.27384 10.4033 4.21478C11.708 3.65603 13.0127 3.09621 14.3178 2.53746ZM11.1425 5.14471C11.1382 5.72279 11.1421 6.30122 11.1407 6.87965C11.1339 7.83787 11.2166 8.82149 11.6024 9.70954C11.8319 10.2522 12.174 10.7418 12.58 11.1674C13.1616 11.7767 13.8607 12.2581 14.5769 12.6944C15.3501 12.2237 16.1057 11.7004 16.711 11.0203C17.1459 10.5364 17.4863 9.96619 17.691 9.34766C17.9394 8.61317 18.0096 7.83214 18.0128 7.06077C18.0132 6.42221 18.0139 5.784 18.0124 5.14579C16.8667 4.65576 15.722 4.16395 14.5769 3.67357C13.4319 4.16323 12.2882 4.65648 11.1425 5.14471Z" fill="#FF7000"/>
<path d="M1.26371 6.16845C1.4817 5.98769 1.76769 5.90858 2.04796 5.91395C4.11328 5.91395 6.17861 5.91359 8.24393 5.91431C8.43937 5.90643 8.63588 5.99771 8.74648 6.16057C8.91472 6.39216 8.86854 6.74652 8.64304 6.92442C8.50487 7.04934 8.31087 7.06652 8.13333 7.06008C6.08125 7.05829 4.02953 7.05972 1.97745 7.05937C1.97745 7.82286 1.97745 8.5867 1.97745 9.35019C4.07856 9.35127 6.17932 9.34805 8.28009 9.35163C8.58434 9.34554 8.85673 9.61829 8.84814 9.92254C8.85744 10.2268 8.58469 10.4985 8.28152 10.4938C6.1804 10.4981 4.07892 10.4942 1.97745 10.4956C1.97745 12.7864 1.97745 15.0773 1.97745 17.3681C7.32259 17.3681 12.6681 17.3681 18.0132 17.3681C18.0132 16.1035 18.0136 14.8389 18.0129 13.5743C18.0147 13.4411 18.0021 13.3033 18.0451 13.1752C18.1256 12.9246 18.3952 12.7542 18.6565 12.7925C18.9306 12.8201 19.1529 13.0696 19.1587 13.3438V17.3838C19.1468 17.7196 18.9926 18.051 18.7263 18.2597C18.5076 18.4387 18.2219 18.5192 17.9417 18.5135C12.7279 18.5135 7.51445 18.5135 2.30102 18.5135C2.03579 18.5149 1.75803 18.5271 1.51248 18.4108C1.11158 18.2386 0.843843 17.8216 0.832031 17.3885V7.05364C0.840622 6.71467 0.993821 6.3782 1.26371 6.16845Z" fill="black"/>
<path d="M16.1719 5.92965C16.4482 5.86236 16.7571 6.03417 16.838 6.30799C16.9053 6.50093 16.852 6.72106 16.7188 6.87319C15.9657 7.81386 15.214 8.75632 14.4595 9.69591C14.2995 9.90925 13.9856 9.98621 13.749 9.85949C13.6226 9.80008 13.5367 9.68553 13.463 9.57135C13.1065 9.03301 12.746 8.49752 12.3899 7.95918C12.2846 7.80383 12.2556 7.59766 12.3283 7.42298C12.4088 7.20822 12.6307 7.05717 12.8602 7.0611C13.0528 7.06003 13.2375 7.16634 13.3427 7.32634C13.5793 7.67641 13.8123 8.02934 14.0482 8.37976C14.6137 7.67283 15.1796 6.96553 15.7445 6.25788C15.8522 6.11184 15.9847 5.96437 16.1719 5.92965Z" fill="black"/>
<path d="M3.56474 12.8028C3.64349 12.7853 3.7251 12.7864 3.80564 12.7856C4.53262 12.7882 5.25996 12.7842 5.98694 12.7878C6.206 12.7853 6.41718 12.922 6.50631 13.1218C6.6051 13.3322 6.55821 13.601 6.39034 13.7625C6.27723 13.8784 6.11436 13.935 5.95401 13.9314C5.20125 13.9311 4.4485 13.9336 3.69575 13.9303C3.47705 13.9314 3.26515 13.7965 3.17602 13.5967C3.02067 13.285 3.22398 12.8719 3.56474 12.8028Z" fill="black"/>
</svg>
