<svg width="20" height="21" viewBox="0 0 20 21" fill="none" xmlns="http://www.w3.org/2000/svg">
<path d="M5.30759 1.63082C5.47516 1.5902 5.64899 1.59293 5.82048 1.59332C8.04743 1.59449 10.2744 1.59254 12.5013 1.59449C12.8966 1.59293 13.2873 1.76832 13.5486 2.0648C13.8181 2.35777 13.9299 2.76402 13.9072 3.15621C14.4931 3.15777 15.0787 3.15348 15.6642 3.15816C16.2314 3.1652 16.7654 3.55621 16.949 4.09176C17.0088 4.25426 17.0314 4.42809 17.0314 4.60074C17.0314 6.96051 17.031 9.32027 17.0314 11.6804C17.6166 12.0757 18.1045 12.616 18.4302 13.2433C18.8232 13.9921 18.9783 14.8617 18.8744 15.7007C18.7412 16.8394 18.1123 17.9046 17.1884 18.582C16.567 19.0433 15.8158 19.3269 15.0443 19.3902C14.2638 19.4574 13.465 19.3023 12.7693 18.9421C11.9662 18.5332 11.3021 17.8593 10.9041 17.0511C10.4783 16.1972 10.3615 15.1964 10.5709 14.266C10.8494 12.9836 11.7689 11.866 12.9681 11.3359C12.9701 8.56949 12.9685 5.80309 12.9689 3.03668C12.9924 2.75895 12.7408 2.50699 12.4631 2.53121C10.1822 2.53238 7.90134 2.52887 5.62087 2.53277C5.35681 2.5273 5.13454 2.77652 5.15641 3.03707C5.15641 7.38746 5.15641 11.7375 5.15641 16.0879C5.13493 16.3492 5.35798 16.5976 5.62243 16.5921C6.87438 16.5972 8.12634 16.5902 9.37829 16.5953C9.57751 16.5918 9.76384 16.7328 9.82126 16.9222C9.88688 17.1207 9.7986 17.3554 9.61852 17.4613C9.52399 17.523 9.40837 17.5328 9.2986 17.5316C8.06032 17.5289 6.82204 17.5343 5.58376 17.5293C5.01618 17.5211 4.48337 17.1285 4.29977 16.5929C4.22556 16.3933 4.21501 16.1789 4.21813 15.9687C3.63181 15.9671 3.04509 15.9714 2.45876 15.9668C1.88259 15.9586 1.34235 15.5535 1.16657 15.0062C1.09391 14.8007 1.0904 14.5812 1.09352 14.366C1.0947 11.0976 1.09274 7.82887 1.0947 4.56051C1.08727 3.98082 1.48063 3.42652 2.0279 3.23863C2.20407 3.17301 2.39313 3.15387 2.57985 3.15582C3.12595 3.1566 3.67204 3.15621 4.21813 3.15621C4.20759 2.8691 4.24899 2.57301 4.3947 2.32105C4.58415 1.97652 4.92399 1.71832 5.30759 1.63082ZM2.03141 4.60035C2.03102 7.84293 2.03181 11.0851 2.03102 14.3273C2.03454 14.4879 2.00915 14.664 2.10173 14.8062C2.18962 14.9558 2.36423 15.0386 2.53532 15.0312C3.09665 15.0316 3.65759 15.0308 4.21891 15.0312C4.21891 11.3855 4.21891 7.73941 4.21891 4.09371C3.64548 4.09488 3.07204 4.09137 2.49899 4.09527C2.23337 4.08824 2.00915 4.33824 2.03141 4.60035ZM13.9064 4.09371C13.9064 6.40973 13.9064 8.72535 13.9064 11.0414C14.6341 10.9046 15.3955 10.9644 16.0939 11.2082C16.0939 9.07105 16.0935 6.93395 16.0943 4.79684C16.0908 4.63668 16.1154 4.46129 16.024 4.31949C15.9361 4.16871 15.7599 4.08512 15.5877 4.09371C15.0271 4.09332 14.467 4.09371 13.9064 4.09371ZM14.2412 11.9367C13.6494 12.0199 13.0787 12.2648 12.617 12.6449C12.1037 13.0617 11.7205 13.6359 11.5369 14.2711C11.3224 15.0043 11.3744 15.8125 11.6857 16.5101C11.9877 17.1976 12.5345 17.773 13.2041 18.1129C13.7662 18.4007 14.4138 18.5179 15.042 18.4488C15.7045 18.3789 16.342 18.0976 16.8431 17.6586C17.3685 17.2011 17.7443 16.5726 17.892 15.891C18.0236 15.2937 17.9841 14.6593 17.7771 14.0836C17.5138 13.3461 16.9779 12.7066 16.2912 12.3285C15.6771 11.9738 14.9424 11.8414 14.2412 11.9367Z" fill="black"/>
<path d="M6.62793 3.85235C6.7916 3.74649 7.01699 3.76251 7.16816 3.88399C7.47324 4.11133 7.77676 4.34063 8.08222 4.56798C8.29941 4.35313 8.51269 4.13399 8.73105 3.91993C8.85019 3.80001 9.03457 3.75118 9.19668 3.80196C9.32715 3.83829 9.41933 3.94376 9.51191 4.03555C9.68887 4.21368 9.86699 4.39063 10.0447 4.56798C10.358 4.33673 10.6666 4.09844 10.9807 3.86798C11.165 3.73008 11.4478 3.7629 11.5982 3.93673C11.6857 4.03087 11.7228 4.16094 11.7189 4.2879C11.7174 5.31798 11.7213 6.34805 11.7174 7.37813C11.7217 7.62501 11.5021 7.84688 11.2545 7.8418C9.80644 7.8461 8.3584 7.84298 6.91035 7.84376C6.65176 7.86368 6.40332 7.64376 6.40801 7.38087C6.4041 6.3504 6.40801 5.31915 6.40605 4.28829C6.39629 4.1168 6.47871 3.94102 6.62793 3.85235ZM8.45722 5.5168C8.3041 5.67462 8.03769 5.70157 7.85918 5.57149C7.68457 5.44727 7.51738 5.31368 7.34433 5.18751C7.34355 5.76055 7.34394 6.33321 7.34394 6.90626C8.48965 6.90626 9.63574 6.90626 10.7814 6.90626C10.7814 6.3336 10.7818 5.76133 10.7811 5.18868C10.6092 5.31446 10.4424 5.44766 10.2682 5.56993C10.0896 5.70079 9.82246 5.67618 9.66894 5.51758C9.46582 5.31758 9.26582 5.11368 9.06308 4.91329C8.86035 5.11329 8.66152 5.31798 8.45722 5.5168Z" fill="#FF7000"/>
<path d="M8.69381 10.2124C8.85943 9.98546 9.23326 9.9714 9.41256 10.1898C9.56724 10.353 9.52701 10.5917 9.53131 10.7964C9.8192 10.921 10.0708 11.1519 10.1739 11.453C10.2497 11.673 10.1297 11.9355 9.91451 12.023C9.70006 12.1222 9.42076 12.0257 9.31763 11.8124C9.2399 11.6089 8.95474 11.6085 8.80709 11.7312C8.71138 11.8019 8.66607 11.9659 8.76451 12.0523C8.9524 12.2218 9.21959 12.2226 9.44654 12.3058C9.78131 12.4253 10.1024 12.6456 10.2547 12.9773C10.4602 13.4284 10.3325 13.9991 9.9606 14.3253C9.83677 14.4398 9.68795 14.5222 9.53287 14.5855C9.52662 14.7882 9.56529 15.0234 9.41216 15.1851C9.23365 15.4011 8.86451 15.3894 8.69693 15.1659C8.55787 15.0019 8.59966 14.7753 8.59381 14.578C8.3067 14.4538 8.05474 14.2237 7.95162 13.9234C7.87427 13.7038 7.99381 13.4413 8.20826 13.3527C8.42349 13.2503 8.70591 13.3495 8.80865 13.5648C8.91568 13.8335 9.38912 13.7476 9.41373 13.4667C9.43052 13.3819 9.36451 13.3144 9.29927 13.2737C9.11295 13.1507 8.88287 13.1441 8.67818 13.0687C8.39576 12.9667 8.1274 12.798 7.95513 12.5476C7.76099 12.2675 7.72935 11.8968 7.82545 11.5753C7.93756 11.2093 8.23873 10.9218 8.59302 10.7878C8.59966 10.5948 8.55943 10.3737 8.69381 10.2124Z" fill="#FF7000"/>
<path d="M16.2888 13.6269C16.4033 13.5046 16.5794 13.4402 16.7447 13.4812C16.9681 13.5261 17.1326 13.7558 17.106 13.9816C17.097 14.1093 17.024 14.2207 16.9345 14.3078C16.1126 15.1265 15.2947 15.95 14.472 16.7679C14.2986 16.9492 13.983 16.9488 13.8095 16.7671C13.3462 16.307 12.8857 15.8437 12.4236 15.3824C12.3072 15.273 12.2427 15.1086 12.274 14.9496C12.3087 14.7316 12.5162 14.5589 12.7365 14.5636C12.8705 14.5621 12.997 14.6257 13.088 14.7218C13.4388 15.0726 13.79 15.423 14.1408 15.7742C14.8576 15.0593 15.5728 14.3425 16.2888 13.6269Z" fill="black"/>
</svg>
