<svg width="20" height="21" viewBox="0 0 20 21" fill="none" xmlns="http://www.w3.org/2000/svg">
<path fill-rule="evenodd" clip-rule="evenodd" d="M4.87148 1.58355C4.93633 1.47105 5.06992 1.42534 5.19414 1.43433C6.30195 1.43667 7.40977 1.43237 8.51719 1.43628C8.67266 1.43003 8.81641 1.55698 8.83086 1.71128C8.85391 1.87612 8.72148 2.04448 8.5543 2.05464C8.32383 2.06831 8.09297 2.05542 7.86211 2.06011V2.79409C8.23672 2.79487 8.61133 2.79331 8.98594 2.79409C9.20078 2.78784 9.4125 2.90972 9.51172 3.10152C9.58867 3.23667 9.58242 3.39722 9.58164 3.54761C9.57812 3.82144 9.58477 4.09566 9.57969 4.36948C9.5793 4.59214 9.43867 4.80581 9.23438 4.89331C9.11641 4.94956 8.98281 4.94214 8.85586 4.94527C8.85547 5.17026 8.85586 5.39566 8.85586 5.62105C9.50352 4.93511 10.3902 4.47652 11.3289 4.36558C12.332 4.23862 13.3781 4.50269 14.1988 5.09409C15.0562 5.70151 15.6656 6.64878 15.8523 7.68355C16.0234 8.58472 15.8691 9.53823 15.4379 10.346C15.9832 10.3472 16.5285 10.3449 17.0738 10.3468L16.9207 10.9738C15.4176 10.9742 13.9148 10.9734 12.4121 10.9742H11.3402C8.5875 10.9738 5.83437 10.9742 3.08164 10.9738L2.92578 10.3468C3.55039 10.3449 4.175 10.3472 4.79961 10.346V4.94487C4.57344 4.96323 4.32383 4.90151 4.18984 4.70425C4.04453 4.51909 4.08047 4.273 4.07773 4.05425C4.08125 3.80894 4.0707 3.56323 4.08164 3.31792C4.10234 3.03316 4.36289 2.79292 4.64883 2.79527C5.03125 2.79175 5.41367 2.79566 5.79648 2.79409V2.06011C5.55898 2.05425 5.32109 2.07066 5.08437 2.05269C4.87383 2.02769 4.75273 1.75933 4.87148 1.58355ZM6.42148 2.79683V2.06284C6.62449 2.06226 6.82749 2.06233 7.03065 2.0624C7.09841 2.06243 7.16618 2.06245 7.23398 2.06245V2.79683H6.42148ZM4.70273 4.32261V3.42183H8.95586C8.95612 3.62212 8.95603 3.82241 8.95595 4.02258C8.9559 4.12262 8.95586 4.22264 8.95586 4.32261C7.53828 4.323 6.12031 4.323 4.70273 4.32261ZM5.42812 6.05972C5.42773 5.68901 5.42773 5.3187 5.42773 4.948C6.36328 4.94761 7.29844 4.94761 8.23398 4.948C8.23398 5.43277 8.23398 5.91753 8.23438 6.4023C8.23796 6.47233 8.2065 6.53477 8.17579 6.59571C8.16967 6.60784 8.16359 6.61992 8.15781 6.63198C7.57969 7.78355 7.59688 9.21636 8.22109 10.346C7.28984 10.3464 6.35898 10.3464 5.42773 10.346V9.63042C5.62258 9.62961 5.81737 9.62994 6.01214 9.63027C6.2871 9.63074 6.56204 9.63121 6.83711 9.62847C6.99766 9.6312 7.14023 9.48901 7.14219 9.32925C7.15195 9.16206 7.00625 9.00659 6.83828 9.00815C6.55632 9.00347 6.27422 9.00426 5.99215 9.00506C5.80411 9.00559 5.61609 9.00612 5.42812 9.00503C5.42773 8.723 5.42773 8.44097 5.42773 8.15894C5.62767 8.15859 5.82761 8.15878 6.02754 8.15896C6.28464 8.15919 6.54173 8.15942 6.79883 8.15855C6.91133 8.16362 7.02812 8.11675 7.08984 8.01948C7.18359 7.88667 7.14687 7.6855 7.0125 7.5937C6.9376 7.53525 6.84011 7.53419 6.74871 7.5332C6.73811 7.53308 6.72758 7.53297 6.71719 7.53276C6.50236 7.53374 6.28754 7.53394 6.07267 7.53389C5.97502 7.53387 5.87723 7.53379 5.77956 7.53372C5.66231 7.53363 5.54504 7.53355 5.42773 7.53355C5.42773 7.25073 5.42773 6.96792 5.42812 6.68511C5.62241 6.68398 5.81676 6.68445 6.01112 6.68492C6.28648 6.6856 6.56186 6.68627 6.83711 6.68237C7.00664 6.68433 7.15391 6.52612 7.14219 6.35777C7.13828 6.19917 6.99687 6.05972 6.83789 6.06167C6.56021 6.05867 6.28253 6.05922 6.00484 6.05976C5.8126 6.06014 5.62036 6.06052 5.42812 6.05972ZM9.02227 6.39761C9.45547 5.79956 10.0828 5.34409 10.7879 5.123C11.5875 4.86909 12.4793 4.9187 13.2441 5.26401C13.9648 5.58433 14.5676 6.16011 14.9238 6.86362C15.2301 7.46245 15.3539 8.1523 15.2758 8.82026C15.2164 9.36597 15.0152 9.89175 14.7133 10.3488C14.0867 10.3488 13.4602 10.3492 12.834 10.3488C12.8336 10.0433 12.8336 9.73784 12.834 9.43237C13.2445 9.42964 13.6555 9.43667 14.066 9.42964C14.2391 9.43198 14.3859 9.27144 14.3738 9.09917C14.3758 8.65347 14.375 8.20737 14.3738 7.76128C14.3879 7.58745 14.2406 7.42261 14.0645 7.42652C13.6543 7.42066 13.2441 7.42651 12.834 7.42417C12.832 7.01636 12.8367 6.60855 12.8324 6.20073C12.8391 6.02417 12.6766 5.87066 12.5008 5.88589C12.0434 5.88628 11.5855 5.88237 11.1281 5.88745C10.9637 5.88589 10.8234 6.03706 10.8293 6.19995C10.8246 6.60776 10.8297 7.01597 10.8277 7.42417C10.4199 7.42651 10.0125 7.42105 9.60508 7.42612C9.4418 7.41987 9.28984 7.55933 9.28984 7.72417C9.28359 8.18081 9.28789 8.63784 9.28789 9.09448C9.27266 9.27339 9.42812 9.43823 9.60781 9.43042C10.0141 9.4355 10.4211 9.43042 10.8277 9.43237V10.3488C10.2016 10.3492 9.57539 10.3484 8.94961 10.3492C8.60078 9.82769 8.39219 9.21245 8.3668 8.58472C8.32773 7.80933 8.56484 7.02456 9.02227 6.39761ZM11.4512 7.72847C11.4536 7.49509 11.4531 7.26159 11.4526 7.02811C11.4523 6.85554 11.4519 6.68298 11.4527 6.5105C11.6207 6.51024 11.7887 6.51033 11.9566 6.51041C12.0406 6.51046 12.1246 6.5105 12.2086 6.5105C12.2094 6.68568 12.2091 6.86086 12.2088 7.036C12.2084 7.26586 12.2079 7.49567 12.2102 7.72534C12.1992 7.90308 12.3594 8.0605 12.5367 8.04839C12.7853 8.05031 13.0341 8.04987 13.283 8.04943C13.4386 8.04915 13.5941 8.04887 13.7496 8.04917C13.7496 8.3019 13.7496 8.55464 13.7492 8.80737C13.6908 8.80749 13.6324 8.80753 13.574 8.80754C13.4626 8.80755 13.351 8.8074 13.2395 8.80725C13.0059 8.80694 12.7721 8.80663 12.5383 8.80776C12.3602 8.79409 12.198 8.95386 12.2098 9.13237C12.2077 9.36583 12.2082 9.59928 12.2086 9.83274C12.2089 10.0048 12.2093 10.1768 12.2086 10.3488C12.0406 10.349 11.8727 10.349 11.7047 10.3489C11.6207 10.3488 11.5367 10.3488 11.4527 10.3488C11.4521 10.1795 11.4524 10.0102 11.4528 9.84098C11.4533 9.60404 11.4538 9.36717 11.4516 9.13042C11.4613 8.95698 11.3082 8.79878 11.134 8.80816C10.9076 8.8062 10.6814 8.80666 10.4552 8.80712C10.2742 8.80749 10.0932 8.80785 9.91211 8.80698V8.04956C10.0856 8.04873 10.2591 8.0491 10.4326 8.04947C10.6672 8.04997 10.9018 8.05047 11.1363 8.048C11.3086 8.05542 11.4598 7.89956 11.4512 7.72847Z" fill="#FF7000"/>
<path fill-rule="evenodd" clip-rule="evenodd" d="M17.0762 10.197L17.0753 10.198C17.2613 10.1912 17.4335 10.2948 17.5186 10.4568L19.0059 13.0798L19.0069 13.0828C19.0543 13.1696 19.1434 13.3266 19.1036 13.5017L19.1026 13.5007C19.0586 13.7209 18.852 13.8755 18.6339 13.8669L18.6348 13.8679C18.28 13.871 17.9179 13.8683 17.5636 13.8689C17.5633 15.415 17.5647 16.9622 17.5636 18.5085L17.5518 18.6882C17.4923 19.1014 17.2065 19.4727 16.8145 19.6267L16.8155 19.6277C16.5711 19.7322 16.2997 19.7159 16.0928 19.7156C11.9404 19.7152 7.78737 19.7164 3.63484 19.7156C3.04275 19.7305 2.5058 19.2493 2.4405 18.6667L2.43367 18.5486C2.42951 16.9888 2.43325 15.4269 2.43172 13.8679C2.07841 13.8676 1.71818 13.8706 1.36433 13.8679C1.14725 13.876 0.932637 13.7225 0.891676 13.4958L0.892653 13.4949C0.858993 13.3446 0.923619 13.2101 0.968825 13.1287L2.4825 10.4568C2.56689 10.2922 2.74111 10.1913 2.92683 10.199V10.197C3.55048 10.1951 4.17846 10.1962 4.80086 10.1951L17.0762 10.197ZM11.2403 12.7312C11.0744 13.0244 10.9074 13.3182 10.7403 13.6111C10.6587 13.7694 10.4995 13.8599 10.335 13.8699L10.2628 13.8689H3.36336V18.2322L3.36238 18.3494C3.36088 18.4368 3.36049 18.5116 3.37019 18.5828L3.38386 18.6277C3.42675 18.727 3.5414 18.7998 3.65925 18.7908L3.67097 18.7898C6.2527 18.7898 8.83499 18.7902 11.4171 18.7898V16.5007C11.4171 15.1408 11.4164 13.7804 11.4161 12.4207C11.3576 12.524 11.2988 12.6278 11.2403 12.7312ZM12.3419 18.7898C12.8076 18.7896 13.2737 18.7905 13.7393 18.7908C14.616 18.7912 15.4928 18.791 16.3692 18.7888H16.3751C16.5159 18.7937 16.6487 18.6605 16.6436 18.5183L16.6427 18.5115C16.6449 17.4894 16.6449 16.4664 16.6446 15.4441C16.6444 14.9192 16.6444 14.3938 16.6446 13.8689H13.4171C13.2462 13.8572 13.0892 13.7568 13.0108 13.5994C12.8363 13.2928 12.6621 12.9843 12.4884 12.6775C12.4396 12.5913 12.3907 12.5048 12.3419 12.4187V18.7898ZM2.1407 12.9441C4.77859 12.9441 7.41694 12.9448 10.0548 12.9441C10.3987 12.3353 10.7409 11.732 11.0841 11.1248C9.79362 11.1246 8.50252 11.1248 7.21199 11.1248C5.86502 11.1248 4.51786 11.124 3.17097 11.1238C2.82725 11.7304 2.48383 12.3374 2.1407 12.9441ZM14.9893 11.1248C14.2165 11.1247 13.4437 11.1244 12.671 11.1248C12.8069 11.3649 12.9431 11.6053 13.0792 11.8455C13.2865 12.2114 13.4943 12.5779 13.7012 12.9441H17.8653C17.5218 12.3371 17.1781 11.7302 16.8341 11.1238C16.2193 11.1239 15.604 11.1248 14.9893 11.1248Z" fill="black"/>
<path d="M4.27058 16.1766C4.35379 16.1465 4.44441 16.1543 4.53113 16.1523C5.06589 16.1578 5.60066 16.1477 6.13504 16.157C6.3116 16.1605 6.45379 16.3426 6.42058 16.5152C6.39871 16.668 6.25183 16.7848 6.09832 16.7773C5.53621 16.7801 4.9741 16.7789 4.41199 16.7777C4.28308 16.784 4.153 16.7117 4.10261 16.591C4.02957 16.4371 4.1116 16.2367 4.27058 16.1766Z" fill="black"/>
<path d="M4.26919 17.4269C4.327 17.4039 4.39028 17.4051 4.45161 17.4027C5.41606 17.4051 6.38129 17.4019 7.34575 17.4043C7.52309 17.3914 7.68637 17.5504 7.67387 17.7285C7.67075 17.8961 7.51489 18.0363 7.34848 18.0273C6.36879 18.0297 5.38911 18.0289 4.40981 18.0277C4.27231 18.0347 4.13481 17.9484 4.09223 17.8156C4.03715 17.6652 4.12075 17.4847 4.26919 17.4269Z" fill="black"/>
</svg>
