<svg width="20" height="21" viewBox="0 0 20 21" fill="none" xmlns="http://www.w3.org/2000/svg">
<path d="M0.682129 2.79302C0.717781 2.52854 0.953525 2.30698 1.22419 2.31098C2.34179 2.3088 3.45976 2.30953 4.57735 2.31062C4.96226 2.31098 5.34534 2.45178 5.63711 2.70389C5.9689 2.98474 6.17954 3.40275 6.20646 3.83677C6.30359 4.78374 6.41564 5.7289 6.51824 6.67515C7.14361 6.67588 7.76935 6.67551 8.39473 6.67551C8.39618 6.12908 8.39254 5.58265 8.39582 5.03659C8.39 4.74773 8.64684 4.48979 8.9357 4.49379C9.84666 4.49088 10.7576 4.49379 11.6686 4.4927C11.6769 4.26896 11.65 4.04232 11.6853 3.8204C11.7399 3.56719 11.9927 3.38565 12.2496 3.40093C13.6942 3.40239 15.1392 3.39948 16.5839 3.40239C16.8728 3.39766 17.1296 3.65487 17.1249 3.94373C17.1278 4.85432 17.1249 5.76492 17.126 6.67551C17.648 6.67551 18.1697 6.67624 18.6914 6.67479C18.9883 6.64132 19.2768 6.86469 19.3088 7.16373V7.26996C19.0199 8.99438 18.7336 10.7192 18.4458 12.4436C18.3829 12.7845 18.3614 13.1439 18.1894 13.4528C17.918 13.9726 17.349 14.3153 16.7629 14.3143C13.4399 14.3168 10.117 14.315 6.794 14.315C6.55753 14.3019 6.32178 14.4518 6.24502 14.6777C6.15334 14.9131 6.25957 15.1998 6.47604 15.3264C6.64702 15.4359 6.85839 15.4024 7.05048 15.4071C9.85175 15.4064 12.653 15.4068 15.4543 15.4068C15.912 15.3973 16.3685 15.5876 16.6803 15.9237C16.9983 16.2584 17.1627 16.7321 17.1176 17.1923C17.0761 17.6911 16.7873 18.1611 16.3627 18.4259C15.9767 18.6751 15.4819 18.745 15.0417 18.6162C14.5608 18.4834 14.1537 18.1153 13.97 17.6518C13.8205 17.2865 13.8186 16.8707 13.9427 16.4982C12.7905 16.4982 11.6387 16.4982 10.4866 16.4982C10.6037 16.8536 10.6092 17.2476 10.4786 17.6001C10.2992 18.1062 9.85466 18.5067 9.33297 18.6326C8.8633 18.7501 8.34379 18.6446 7.95889 18.351C7.57181 18.064 7.32406 17.5987 7.30623 17.117C7.29313 16.9067 7.33279 16.6982 7.39427 16.4982C7.13197 16.4942 6.86894 16.5076 6.607 16.4887C6.09914 16.4461 5.62401 16.1467 5.36062 15.7113C5.08377 15.2649 5.04411 14.6821 5.25912 14.2026C5.43011 13.8086 5.76408 13.4975 6.15953 13.3345C5.82265 10.2881 5.48177 7.24232 5.14525 4.19584C5.1176 4.00193 5.13979 3.78329 5.00991 3.62103C4.90368 3.47369 4.71996 3.39475 4.54025 3.4013C3.43502 3.40021 2.32942 3.40312 1.22383 3.40021C0.955708 3.40384 0.724694 3.18665 0.682129 2.9269V2.79302ZM12.7603 4.4927C12.7603 5.22031 12.7603 5.94791 12.7603 6.67551C13.8518 6.67551 14.9432 6.67551 16.0346 6.67551C16.0346 5.94791 16.0346 5.22031 16.0346 4.4927C14.9432 4.4927 13.8518 4.4927 12.7603 4.4927ZM9.48613 5.58411C9.48613 5.94791 9.48613 6.31171 9.48613 6.67551C10.2137 6.67551 10.9413 6.67551 11.6689 6.67551C11.6689 6.31171 11.6689 5.94791 11.6689 5.58411C10.9413 5.58411 10.2137 5.58411 9.48613 5.58411ZM6.63975 7.76728C6.84166 9.58593 7.04429 11.4046 7.24584 13.2236C10.3327 13.2247 13.4196 13.2232 16.5064 13.2243C16.669 13.221 16.8437 13.2425 16.9935 13.1646C17.1533 13.0853 17.2624 12.9238 17.2882 12.7488C17.5654 11.0884 17.8419 9.42767 18.1188 7.76728C14.2923 7.76655 10.4662 7.76692 6.63975 7.76728ZM8.84075 16.5069C8.54316 16.5567 8.32851 16.8831 8.41219 17.1759C8.4784 17.4662 8.81092 17.6616 9.09577 17.5652C9.3668 17.4906 9.54507 17.1828 9.4683 16.9111C9.405 16.6404 9.11433 16.449 8.84075 16.5069ZM15.3866 16.5083C15.0894 16.5585 14.8773 16.8842 14.9603 17.1756C15.0254 17.4579 15.3408 17.6521 15.6213 17.5717C15.9036 17.5073 16.096 17.1919 16.0171 16.9118C15.9542 16.64 15.6606 16.449 15.3866 16.5083Z" fill="black"/>
<path d="M8.83792 8.8685C9.15952 8.7961 9.49458 9.07441 9.48512 9.40328C9.48803 10.1061 9.4844 10.8094 9.48694 11.5122C9.49604 11.6785 9.44801 11.8531 9.32578 11.971C9.15588 12.1467 8.86484 12.1842 8.6582 12.0518C8.49776 11.9564 8.39481 11.7742 8.3959 11.5876C8.39299 10.9087 8.39663 10.2298 8.39408 9.55099C8.39481 9.43166 8.38717 9.30724 8.43737 9.19592C8.50504 9.02857 8.66111 8.90269 8.83792 8.8685Z" fill="#FF7000"/>
<path d="M12.1143 8.86811C12.3416 8.82191 12.5894 8.94233 12.6953 9.1486C12.7516 9.24792 12.7626 9.36434 12.7611 9.47675C12.7586 10.1803 12.7622 10.8839 12.7593 11.5875C12.7611 11.8218 12.5963 12.0441 12.3707 12.1081C12.123 12.1903 11.8312 12.0572 11.7235 11.8211C11.6624 11.7039 11.6679 11.5682 11.6682 11.4402C11.6708 10.7606 11.6672 10.0807 11.6701 9.40108C11.6668 9.14678 11.8647 8.91213 12.1143 8.86811Z" fill="#FF7000"/>
<path d="M15.3895 8.86779C15.7104 8.79794 16.0426 9.07552 16.0335 9.40294C16.0367 10.0829 16.0327 10.7625 16.0353 11.4424C16.0367 11.5796 16.0386 11.7251 15.9662 11.8473C15.8508 12.0685 15.57 12.1864 15.332 12.1082C15.1076 12.0434 14.9417 11.8222 14.9442 11.5887C14.9424 10.8589 14.9424 10.1287 14.9442 9.39894C14.9417 9.14537 15.1403 8.91108 15.3895 8.86779Z" fill="#FF7000"/>
</svg>
