<svg width="20" height="21" viewBox="0 0 20 21" fill="none" xmlns="http://www.w3.org/2000/svg">
<path d="M2.76965 9.82654C2.597 10.0052 2.5 10.2474 2.5 10.5V16.2143C2.5 16.4669 2.597 16.7091 2.76965 16.8877C2.94231 17.0663 3.17648 17.1666 3.42065 17.1666H8.94453C9.1887 17.1666 9.42287 17.0663 9.59552 16.8877C9.76818 16.7091 9.86517 16.4669 9.86517 16.2143V10.5C9.86517 10.2474 9.76818 10.0052 9.59552 9.82654C9.42287 9.64794 9.1887 9.5476 8.94453 9.5476H3.42065C3.17648 9.5476 2.94231 9.64794 2.76965 9.82654Z" fill="#FF7000"/>
<path d="M9.11523 10.5003C9.11523 10.4387 9.09146 10.3841 9.05664 10.348C9.02253 10.3127 8.98124 10.2972 8.94434 10.2972H3.4209C3.384 10.2972 3.34271 10.3127 3.30859 10.348C3.27376 10.3841 3.25 10.4387 3.25 10.5003V16.2142L3.25391 16.2591C3.26227 16.302 3.28244 16.3394 3.30859 16.3665C3.34271 16.4018 3.384 16.4163 3.4209 16.4163H8.94434C8.98124 16.4163 9.02253 16.4018 9.05664 16.3665C9.09152 16.3304 9.11523 16.2758 9.11523 16.2142V10.5003ZM17.5 16.4163C17.9141 16.4163 18.2498 16.7523 18.25 17.1663C18.25 17.5805 17.9142 17.9163 17.5 17.9163H12.627C12.2128 17.9162 11.877 17.5805 11.877 17.1663C11.8771 16.7523 12.2129 16.4164 12.627 16.4163H17.5ZM17.5 12.6068C17.9141 12.6068 18.2498 12.9427 18.25 13.3568C18.25 13.771 17.9142 14.1068 17.5 14.1068H12.627C12.2128 14.1067 11.877 13.7709 11.877 13.3568C11.8772 12.9428 12.2129 12.6068 12.627 12.6068H17.5ZM17.5 8.79718C17.9141 8.79718 18.2498 9.13316 18.25 9.54718C18.25 9.96139 17.9142 10.2972 17.5 10.2972H12.627C12.2128 10.2971 11.877 9.96134 11.877 9.54718C11.8772 9.13321 12.213 8.79727 12.627 8.79718H17.5ZM17.5 3.08331C17.9142 3.08331 18.25 3.4191 18.25 3.83331C18.25 4.24753 17.9142 4.58331 17.5 4.58331H2.76953C2.35537 4.58325 2.01953 4.24749 2.01953 3.83331C2.01953 3.41914 2.35537 3.08338 2.76953 3.08331H17.5ZM10.6152 16.2142C10.6152 16.6575 10.445 17.0875 10.1348 17.4085C9.82357 17.7304 9.39578 17.9163 8.94434 17.9163H3.4209C2.96946 17.9163 2.54167 17.7304 2.23047 17.4085C1.95912 17.1277 1.79468 16.7637 1.75781 16.3802L1.75 16.2142V10.5003C1.75 10.0569 1.92011 9.62605 2.23047 9.30499C2.54165 8.98318 2.96954 8.79718 3.4209 8.79718H8.94434C9.39571 8.79718 9.82358 8.98316 10.1348 9.30499C10.4451 9.62605 10.6152 10.0569 10.6152 10.5003V16.2142Z" fill="black"/>
</svg>
