<svg width="20" height="21" viewBox="0 0 20 21" fill="none" xmlns="http://www.w3.org/2000/svg">
<path d="M4.09423 4.0355C4.91467 3.60741 5.86337 3.4319 6.78255 3.53589C7.67614 3.63266 8.53889 3.99515 9.23139 4.56825C9.50531 4.79099 9.74314 5.05342 9.99573 5.29945C10.3133 4.98781 10.6157 4.65649 10.9805 4.39799C12.0063 3.64677 13.346 3.34891 14.5946 3.58641C15.7503 3.79406 16.8108 4.46426 17.504 5.41099C18.0453 6.13662 18.3467 7.02693 18.394 7.92872V8.32664C18.3349 9.50301 17.8389 10.642 17.0411 11.5051C16.2079 12.4016 15.2904 13.2142 14.3764 14.0264C13.1348 15.1171 11.8689 16.1793 10.5915 17.2278C10.4816 17.3203 10.3664 17.4148 10.2254 17.4548C9.98294 17.5253 9.70312 17.4794 9.50826 17.3147C8.20429 16.2482 6.91442 15.1647 5.64784 14.0546C4.83069 13.3323 4.01779 12.6033 3.2528 11.8252C3.0353 11.5956 2.81387 11.3676 2.62525 11.113C2.01181 10.3097 1.64571 9.32127 1.59814 8.3109V8.01697C1.61455 7.47274 1.72018 6.92983 1.92389 6.42399C2.33001 5.4018 3.11961 4.542 4.09423 4.0355ZM5.43822 5.09705C4.76377 5.27059 4.15492 5.67835 3.72944 6.22847C3.29544 6.78582 3.06876 7.49636 3.08877 8.20166C3.10551 9.03128 3.45126 9.83761 4.00041 10.4543C4.43638 10.9356 4.90876 11.3817 5.3841 11.8236C6.8803 13.1948 8.43228 14.5037 9.99573 15.7972C10.9943 14.9754 11.982 14.1406 12.9596 13.2939C13.9129 12.4574 14.8708 11.6225 15.7539 10.7109C16.0747 10.3868 16.3601 10.0226 16.5569 9.60896C16.902 8.90334 17.0034 8.07339 16.7974 7.31167C16.6104 6.59621 16.1495 5.96178 15.5393 5.54647C14.9144 5.11509 14.1314 4.92352 13.3772 5.00914C12.6755 5.08491 12.0027 5.40115 11.4988 5.89584C11.1744 6.21798 10.8523 6.54241 10.5275 6.86422C10.3323 7.05875 10.0295 7.11977 9.76938 7.03809C9.50334 6.96952 9.34424 6.72841 9.15168 6.55324C8.74818 6.16844 8.38996 5.72329 7.9015 5.44019C7.17128 5.00061 6.26063 4.87431 5.43822 5.09705Z" fill="black"/>
</svg>
