<svg width="20" height="21" viewBox="0 0 20 21" fill="none" xmlns="http://www.w3.org/2000/svg">
<path d="M9.79731 2.34082H10.1541C11.1276 2.38637 12.0925 2.74698 12.8227 3.39908C13.5382 4.02441 14.0026 4.90523 14.1906 5.83096C14.3139 6.45184 14.3549 7.09597 14.253 7.72321C14.0561 8.88373 13.5362 9.95791 12.9641 10.9757C13.5681 10.9767 14.1718 10.9748 14.7754 10.9767C14.9704 10.9706 15.1606 11.091 15.2339 11.2726C16.1688 13.4509 17.1019 15.6302 18.0362 17.8091C18.0808 17.9111 18.1286 18.0127 18.1496 18.1229V18.215C18.127 18.4405 17.9375 18.6307 17.711 18.6511H2.27865C2.05406 18.632 1.86707 18.4447 1.83936 18.223V18.1242C1.86611 17.9805 1.93779 17.8521 1.99195 17.718C2.9129 15.5697 3.83322 13.4207 4.75514 11.2723C4.8284 11.091 5.01859 10.9703 5.21354 10.9767C5.81626 10.9738 6.41929 10.9786 7.02233 10.9741C6.47855 10.0028 5.98223 8.98407 5.76402 7.88472C5.63436 7.24123 5.6624 6.57512 5.7758 5.93163C5.93954 5.01832 6.36164 4.13846 7.03858 3.49496C7.77317 2.7833 8.78078 2.38701 9.79731 2.34082ZM9.73519 3.31243C8.97032 3.36499 8.21693 3.67877 7.67092 4.22255C7.08954 4.79055 6.77194 5.58249 6.67701 6.38048C6.61234 6.89018 6.62254 7.41198 6.74677 7.91212C6.98187 8.89105 7.44538 9.7964 7.94998 10.6613C8.55651 11.6845 9.25193 12.6532 9.99449 13.5819C10.5118 12.9352 11.0053 12.2691 11.4634 11.5791C12.0033 10.7562 12.5079 9.90471 12.8861 8.99427C13.1221 8.41576 13.3158 7.8089 13.3477 7.1807C13.3617 6.77581 13.326 6.36838 13.2381 5.97241C13.0753 5.22666 12.6838 4.52041 12.0855 4.03779C11.4353 3.50293 10.5724 3.24744 9.73519 3.31243ZM5.51395 11.9362C5.0326 13.06 4.54998 14.1833 4.06959 15.3075C5.51427 14.5678 6.95957 13.8297 8.4036 13.089C8.13538 12.708 7.86333 12.3299 7.61262 11.9371C6.91306 11.9343 6.2135 11.9362 5.51395 11.9362ZM12.3745 11.9381C11.7596 12.8826 11.0872 13.7899 10.3567 14.6481C10.184 14.8586 9.83012 14.8688 9.64854 14.6653C9.4214 14.4063 9.2067 14.1365 8.99294 13.8663C8.41316 14.1613 7.83498 14.4592 7.25551 14.7542C8.23477 15.7331 9.21466 16.7107 10.192 17.6913C10.5265 17.6887 10.861 17.6954 11.1951 17.6884C12.7653 16.8825 14.3285 16.0618 15.8958 15.2498C15.4215 14.1454 14.9487 13.0406 14.4747 11.9362C13.7748 11.9371 13.0747 11.933 12.3745 11.9381ZM3.47707 16.6884C3.33404 17.0226 3.18973 17.3565 3.04765 17.6913C4.97717 17.6913 6.90669 17.691 8.83589 17.6913C8.01018 16.8652 7.18511 16.0383 6.35749 15.2138C5.39799 15.7063 4.43753 16.1975 3.47707 16.6884ZM13.2763 17.6906C14.498 17.6919 15.7197 17.6906 16.9413 17.6913C16.7203 17.1717 16.4969 16.6534 16.2746 16.1348C15.2746 16.6521 14.2766 17.1739 13.2763 17.6906Z" fill="black"/>
<path d="M9.68745 5.25457C10.0337 5.17939 10.4084 5.23546 10.7145 5.41576C11.0595 5.61518 11.3153 5.96369 11.3981 6.35392C11.4908 6.76805 11.3863 7.22009 11.121 7.55107C10.861 7.88397 10.4485 8.09039 10.0261 8.09708C9.61068 8.11014 9.19719 7.92729 8.92164 7.61733C8.64099 7.30833 8.50878 6.87286 8.56899 6.45968C8.64321 5.8764 9.11245 5.37339 9.68745 5.25457Z" fill="#FF7000"/>
</svg>
