<svg width="20" height="21" viewBox="0 0 20 21" fill="none" xmlns="http://www.w3.org/2000/svg">
<path d="M12.3271 8.19244C12.3271 6.90734 11.2851 5.86534 10 5.8653C8.71488 5.8653 7.67285 6.90732 7.67285 8.19244C7.67293 9.4775 8.71493 10.5196 10 10.5196C11.285 10.5196 12.3271 9.47747 12.3271 8.19244Z" fill="#FF7000"/>
<path d="M16.9434 10.5C16.9434 6.66589 13.8351 3.55766 10.001 3.55762C6.16685 3.55762 3.05859 6.66587 3.05859 10.5C3.05861 12.0556 3.57122 13.4898 4.43555 14.6475C5.10939 13.5554 6.31542 12.8271 7.69336 12.8271H12.3086C13.6861 12.8271 14.8915 13.555 15.5654 14.6465C16.4297 13.4889 16.9433 12.0555 16.9434 10.5ZM7.69336 14.3271C6.7083 14.3271 5.86454 14.9394 5.52539 15.8047C6.73448 16.826 8.29468 17.4424 10.001 17.4424C11.707 17.4424 13.2666 16.8257 14.4756 15.8047C14.1364 14.9395 13.2935 14.3271 12.3086 14.3271H7.69336ZM12.3281 8.19238C12.3281 6.90728 11.2861 5.86527 10.001 5.86523C8.71585 5.86523 7.67383 6.90726 7.67383 8.19238C7.67391 9.47744 8.7159 10.5195 10.001 10.5195C11.286 10.5195 12.328 9.47741 12.3281 8.19238ZM18.4434 10.5C18.4433 12.894 17.4457 15.0563 15.8457 16.5918C14.3295 18.0468 12.269 18.9424 10.001 18.9424C7.73292 18.9424 5.67242 18.0468 4.15625 16.5918C2.55627 15.0563 1.55861 12.894 1.55859 10.5C1.55859 5.83744 5.33842 2.05762 10.001 2.05762C14.6635 2.05766 18.4434 5.83747 18.4434 10.5ZM13.8281 8.19238C13.828 10.3058 12.1144 12.0195 10.001 12.0195C7.88748 12.0195 6.17391 10.3059 6.17383 8.19238C6.17383 6.07883 7.88743 4.36523 10.001 4.36523C12.1145 4.36527 13.8281 6.07886 13.8281 8.19238Z" fill="black"/>
</svg>
