<svg width="24" height="24" viewBox="0 0 24 24" fill="none" xmlns="http://www.w3.org/2000/svg">
<path d="M20.6622 0H20.9809C21.7548 0.058125 22.5081 0.392344 23.05 0.951562C23.6214 1.50937 23.957 2.2875 23.9992 3.08297V3.24328C23.9781 3.73031 23.83 4.21359 23.5544 4.61719C23.3828 4.87828 23.1489 5.08781 22.9309 5.30859C20.0791 8.16 17.2276 11.0114 14.3758 13.8633C14.208 14.0395 13.9801 14.1572 13.7373 14.1848C12.8697 14.2894 12.0011 14.3906 11.133 14.4942C10.8897 14.5167 10.6483 14.565 10.4041 14.5687C9.98874 14.5683 9.59733 14.2748 9.47452 13.8792C9.39811 13.6641 9.43186 13.433 9.45999 13.2127C9.56686 12.3234 9.67186 11.4342 9.77733 10.545C9.80358 10.3317 9.81155 10.1086 9.91374 9.91453C9.99624 9.74156 10.1416 9.61219 10.2751 9.47953C13.1275 6.62859 15.9798 3.77813 18.8312 0.926719C18.9794 0.779063 19.1247 0.627187 19.2944 0.503438C19.6895 0.207656 20.1709 0.0379688 20.6622 0ZM20.4109 2.18016C17.5291 5.06391 14.6444 7.94578 11.762 10.83C11.6987 11.3625 11.6341 11.895 11.5717 12.428C12.1047 12.3652 12.6391 12.3089 13.1701 12.2344C14.1737 11.2537 15.1572 10.2506 16.1528 9.26156C18.0433 7.37109 19.9328 5.48063 21.8237 3.59062C21.9484 3.47766 22.0155 3.30938 22.0033 3.14109C21.9587 2.55234 21.4469 2.04375 20.8586 1.99969C20.6903 1.98703 20.523 2.05453 20.4109 2.18016Z" fill="white"/>
<path d="M2.48016 3.045C2.79047 2.98782 3.10781 3.00094 3.42187 3C6.10969 3 8.79703 3 11.4848 3C11.8369 2.98735 12.187 3.17204 12.3698 3.47391C12.5831 3.81 12.5653 4.27313 12.3258 4.59094C12.1359 4.85532 11.8116 5.00907 11.4872 5.00016C8.65875 5.00063 5.82984 4.99922 3.00141 5.00063C2.46703 4.98563 1.98656 5.46422 2.00062 5.99907C1.99922 10.9992 1.99969 15.9998 2.00062 21C1.98609 21.5344 2.46609 22.013 3.00047 21.9989C7.67109 22.0003 12.3422 22.0013 17.0128 21.9984C17.5406 22.0059 18.0103 21.532 17.9986 21.0042C18.0019 18.5025 17.9986 16.0008 18.0005 13.4991C17.9911 13.1484 18.1809 12.8039 18.4819 12.6248C18.8048 12.4242 19.2422 12.4345 19.5553 12.6488C19.8347 12.832 20.0058 13.1625 19.9997 13.4958C20.0002 15.998 20.0006 18.5002 19.9997 21.0019C20.0048 21.818 19.6519 22.6233 19.0575 23.1806C18.5395 23.6752 17.8406 23.9667 17.1262 24H2.86219C2.09063 23.9611 1.33922 23.6156 0.812812 23.0494C0.323438 22.5398 0.0403125 21.8494 0 21.1467V5.86125C0.0379687 5.145 0.330469 4.44094 0.834375 3.92719C1.26937 3.46594 1.85578 3.15282 2.48016 3.045Z" fill="white"/>
</svg>
