<svg width="24" height="24" viewBox="0 0 24 24" fill="none" xmlns="http://www.w3.org/2000/svg">
<rect width="24" height="24" rx="12" transform="matrix(-1 0 0 1 24 0)" fill="white" fill-opacity="0.7"/>
<path fill-rule="evenodd" clip-rule="evenodd" d="M5.23192 12.0003C5.23192 12.1927 5.30843 12.3773 5.4446 12.5134L11.4927 18.5559C11.7761 18.839 12.2353 18.8388 12.5185 18.5554C12.8016 18.272 12.8014 17.8128 12.518 17.5296L7.70946 12.7256H18.0403C18.4409 12.7256 18.7656 12.4008 18.7656 12.0003C18.7656 11.5997 18.4409 11.2749 18.0403 11.2749H7.70946L12.518 6.47086C12.8014 6.18774 12.8016 5.72849 12.5185 5.4451C12.2353 5.16171 11.7761 5.1615 11.4927 5.44463L5.4446 11.4871C5.30843 11.6232 5.23192 11.8078 5.23192 12.0003Z" fill="black"/>
</svg>
