<svg width="24" height="24" viewBox="0 0 24 24" fill="none" xmlns="http://www.w3.org/2000/svg">
<path d="M16.0658 2.40039H16.2563C17.1919 2.42777 18.1227 2.72589 18.8813 3.27752C19.6174 3.80327 20.1968 4.54689 20.5204 5.39214C20.8512 6.24752 20.9176 7.20114 20.7192 8.09589C20.5366 8.92389 20.1196 9.69827 19.5301 10.3073C19.0936 10.758 18.6436 11.196 18.2018 11.6415C15.3398 14.5039 12.4778 17.3659 9.61543 20.2279C9.36493 20.4773 9.12043 20.7371 8.82868 20.9396C8.25305 21.3521 7.5518 21.5756 6.84605 21.6004H6.65518C6.28468 21.5813 5.91493 21.5209 5.56505 21.3964C4.78393 21.1275 4.10893 20.5729 3.68218 19.8664C3.25505 19.1674 3.08555 18.318 3.20068 17.5076C3.29705 16.8019 3.61168 16.1276 4.09243 15.6023C4.24505 15.432 4.41043 15.2745 4.57093 15.1121C7.17793 12.5059 9.7838 9.89852 12.3912 7.29264C12.7493 6.92852 13.2169 6.67202 13.7202 6.57939C14.3757 6.45189 15.0807 6.60002 15.6267 6.98552C16.1074 7.32039 16.4656 7.82852 16.6137 8.39589C16.7746 9.00152 16.7018 9.66714 16.4048 10.2199C16.1892 10.6455 15.8179 10.9553 15.4906 11.292C13.6156 13.1666 11.7409 15.0416 9.86593 16.9163C9.72868 17.0565 9.5348 17.1458 9.33643 17.1285C9.03943 17.115 8.7743 16.8724 8.73418 16.578C8.69743 16.3628 8.78443 16.1415 8.9393 15.9919C10.9639 13.9665 12.9912 11.9434 15.0151 9.91689C15.3413 9.60339 15.4763 9.10464 15.3304 8.67302C15.1906 8.22152 14.7597 7.87989 14.2876 7.84877C13.9189 7.81464 13.5499 7.96989 13.2976 8.23652C10.5908 10.9421 7.88443 13.6485 5.17805 16.3549C4.8293 16.695 4.58368 17.1424 4.5053 17.6246C4.4003 18.2231 4.5488 18.8606 4.90805 19.3508C5.24593 19.8195 5.76943 20.1518 6.33905 20.2526C6.89743 20.3573 7.4948 20.2451 7.97368 19.9384C8.26355 19.761 8.48668 19.5011 8.7278 19.2664C11.9408 16.0538 15.1531 12.8408 18.3664 9.62814C18.6143 9.38514 18.8517 9.12677 19.0313 8.82789C19.5537 7.98639 19.6651 6.90902 19.3407 5.97489C19.0909 5.24289 18.5757 4.60727 17.9164 4.20489C17.1874 3.75339 16.2811 3.60339 15.4444 3.78714C14.8047 3.92139 14.2141 4.25552 13.7543 4.71827C11.0723 7.39764 8.39293 10.0796 5.71168 12.7598C5.55905 12.9199 5.3303 13.0069 5.1098 12.9653C4.81205 12.9173 4.57243 12.6409 4.5713 12.3383C4.56193 12.1391 4.66093 11.9513 4.80268 11.8166C7.25293 9.36789 9.70205 6.91764 12.1516 4.46814C12.6574 3.97239 13.1329 3.42677 13.7539 3.06902C14.4481 2.64677 15.2554 2.42552 16.0658 2.40039Z" fill="black"/>
</svg>
