<svg width="16" height="14" viewBox="0 0 16 14" fill="none" xmlns="http://www.w3.org/2000/svg">
<path d="M5.67685 0.255222C5.861 0.187932 6.06017 0.184628 6.25422 0.18613C7.46665 0.187332 8.67907 0.185229 9.89149 0.187031C10.2261 0.182826 10.5641 0.315002 10.7879 0.56734C10.9819 0.77702 11.0838 1.0615 11.0844 1.34598C11.088 1.80349 11.0841 2.26131 11.0862 2.71912C11.7987 2.71942 12.511 2.71912 13.2232 2.71912C13.9929 2.69088 14.7628 3.05677 15.2173 3.6795C15.5096 4.06942 15.6724 4.55127 15.6865 5.03792V11.9006C15.6766 12.3566 15.5045 12.8069 15.2008 13.1479C14.8367 13.5654 14.2876 13.8106 13.7339 13.8054C9.91823 13.8067 6.10282 13.806 2.28712 13.8057C1.81038 13.8142 1.33274 13.6441 0.974063 13.329C0.563113 12.9757 0.316784 12.444 0.305969 11.9027V5.04423C0.319788 4.37704 0.627399 3.72366 1.13658 3.29198C1.55354 2.9318 2.09967 2.72543 2.65091 2.72092C3.40251 2.71671 4.15442 2.72062 4.90632 2.71912C4.90692 2.29255 4.90692 1.86598 4.90632 1.43941C4.90662 1.27118 4.91894 1.09935 4.97902 0.940439C5.09317 0.622614 5.35753 0.364869 5.67685 0.255222ZM5.81324 1.32285C5.80753 1.78817 5.81233 2.2538 5.81113 2.71912C7.26778 2.71912 8.72473 2.71912 10.1814 2.71912C10.1823 2.28233 10.1808 1.84555 10.1823 1.40877C10.1814 1.32946 10.1817 1.24054 10.1252 1.17806C10.0693 1.10746 9.9753 1.08974 9.89029 1.09034C8.61899 1.09124 7.34769 1.08944 6.07639 1.09124C5.94391 1.08283 5.81173 1.18497 5.81324 1.32285ZM1.70073 4.00304C1.38351 4.28481 1.20177 4.71018 1.21018 5.13435C1.21018 5.41522 1.20928 5.6961 1.21048 5.97698C1.20868 6.20318 1.27446 6.43118 1.40904 6.61413C1.55504 6.8172 1.77854 6.95989 2.02156 7.01426C3.44937 7.36153 4.87628 7.7118 6.30379 8.05966C6.31671 7.77428 6.43987 7.49461 6.65496 7.30445C6.84662 7.12752 7.10616 7.03349 7.36571 7.02958C7.77606 7.02628 8.18641 7.02808 8.59676 7.02868C8.85901 7.02838 9.12426 7.1143 9.32163 7.29033C9.54603 7.48049 9.6758 7.76707 9.68872 8.05936C11.1234 7.7103 12.5573 7.35822 13.992 7.00916C14.4273 6.91123 14.7649 6.50328 14.779 6.05718C14.7868 5.74927 14.7805 5.44136 14.7823 5.13345C14.7886 4.76816 14.6568 4.40047 14.4134 4.1271C14.1896 3.86425 13.8661 3.69663 13.5279 3.63955C13.387 3.61942 13.2443 3.62213 13.1028 3.62243C9.63825 3.62273 6.17372 3.62213 2.70948 3.62273C2.34179 3.61912 1.9732 3.7555 1.70073 4.00304ZM1.21018 7.64631C1.20958 9.03146 1.21018 10.4169 1.20988 11.8021C1.20988 11.9802 1.23661 12.1613 1.31862 12.3215C1.46552 12.6264 1.77223 12.8487 2.10868 12.8892C2.24807 12.9069 2.38896 12.9012 2.52924 12.9018C6.24461 12.9021 9.95998 12.9015 13.6754 12.9021C13.8661 12.9033 14.0602 12.8724 14.2293 12.7796C14.5648 12.6071 14.7826 12.2398 14.7811 11.8637C14.7844 10.4578 14.7817 9.05189 14.7823 7.64631C14.588 7.75986 14.3795 7.85178 14.1584 7.89895C12.6687 8.26243 11.1793 8.62712 9.68992 8.99121C9.68722 9.16875 9.69863 9.34719 9.6737 9.52382C9.62954 9.82452 9.44509 10.0994 9.18675 10.2589C9.0032 10.377 8.78271 10.422 8.56642 10.4208C8.15577 10.4187 7.74482 10.4253 7.33417 10.4175C6.91331 10.4112 6.51527 10.1264 6.37258 9.7305C6.28036 9.49528 6.3068 9.23814 6.30259 8.99121C4.78316 8.61961 3.26403 8.24801 1.74459 7.87702C1.55594 7.82715 1.3784 7.74394 1.21018 7.64631ZM7.31615 7.9413C7.24525 7.96113 7.20229 8.03563 7.2077 8.10743C7.2062 8.51777 7.2065 8.92842 7.2074 9.33877C7.19779 9.42889 7.27018 9.51841 7.36331 9.51511C7.77546 9.51901 8.18761 9.51601 8.59976 9.51661C8.68808 9.52652 8.78361 9.46404 8.78301 9.36941C8.78962 8.96898 8.78301 8.56794 8.78631 8.16721C8.78361 8.10623 8.79232 8.03473 8.74606 7.98697C8.68778 7.91517 8.58564 7.9356 8.50484 7.93169C8.10891 7.9389 7.71117 7.91967 7.31615 7.9413Z" fill="#5F6B7A"/>
</svg>
