<svg xmlns="http://www.w3.org/2000/svg" width="24.08" height="20.64" viewBox="49.307 14.907 24.08 20.64"><g data-name="money 1"><path d="M49.307 30.387h24.08v1.72h-24.08v-1.72ZM49.307 33.827h24.08v1.72h-24.08v-1.72ZM68.227 20.067a1.72 1.72 0 1 0 0 3.44 1.72 1.72 0 0 0 0-3.44ZM61.347 25.227a3.44 3.44 0 1 1 0-6.88 3.44 3.44 0 0 1 0 6.88Zm0-5.16a1.72 1.72 0 1 0 0 3.44 1.72 1.72 0 0 0 0-3.44ZM54.467 20.067a1.72 1.72 0 1 0 0 3.44 1.72 1.72 0 0 0 0-3.44Z" fill-rule="evenodd" data-name="Vector"/><path d="M71.667 28.667h-20.64a1.724 1.724 0 0 1-1.72-1.72v-10.32a1.724 1.724 0 0 1 1.72-1.72h20.64a1.724 1.724 0 0 1 1.72 1.72v10.32a1.722 1.722 0 0 1-1.72 1.72Zm0-12.04h-20.64v10.32h20.64v-10.32Z" fill-rule="evenodd" data-name="Vector"/></g></svg>