<svg xmlns="http://www.w3.org/2000/svg" width="22.994" height="23.01" viewBox="293.246 870.513 22.994 23.01"><g data-name="Icon core-cart"><path d="M300.27 874.472v1.533h14.562v3.034l-1.7 5.397h-13.345l-1.916-13.798h-4.5v1.533h3.165l1.916 13.798h15.804l2.11-6.694v-4.803h-16.097Zm.813 13.044a3.066 3.066 0 1 0 0 6.132 3.066 3.066 0 0 0 0-6.132Zm0 4.6a1.533 1.533 0 1 1 0-3.067 1.533 1.533 0 0 1 0 3.066Zm10.73-4.6a3.066 3.066 0 1 0 0 6.132 3.066 3.066 0 0 0 0-6.132Zm0 4.6a1.533 1.533 0 1 1 0-3.067 1.533 1.533 0 0 1 0 3.066Z" fill="#bbbfd1" fill-rule="evenodd"/><path d="M300.27 874.472v1.533h14.562v3.034l-1.7 5.397h-13.345l-1.916-13.798h-4.5v1.533h3.165l1.916 13.798h15.804l2.11-6.694v-4.803h-16.097Zm.813 13.044a3.066 3.066 0 1 0 0 6.132 3.066 3.066 0 0 0 0-6.132Zm0 4.6a1.533 1.533 0 1 1 0-3.067 1.533 1.533 0 0 1 0 3.066Zm10.73-4.6a3.066 3.066 0 1 0 0 6.132 3.066 3.066 0 0 0 0-6.132Zm0 4.6a1.533 1.533 0 1 1 0-3.067 1.533 1.533 0 0 1 0 3.066Z" stroke-linejoin="round" stroke-linecap="round" stroke-width=".25" stroke="#bbbfd1" fill="transparent"/></g></svg>