<svg xmlns="http://www.w3.org/2000/svg" width="19.354" height="21.91" viewBox="205 705 19.354 21.91"><path d="M207.815 722.528h16.539V705h-16.585a2.778 2.778 0 0 0-2.769 2.77V723.928c0 1.616 1.268 2.98 2.77 2.98h16.584v-1.46h-16.585c-.685 0-1.308-.724-1.308-1.52 0-.76.62-1.401 1.354-1.401Zm11.791-16.052v7.888l-2.209-1.94-2.173 1.929v-7.877h4.382Zm-5.842-.015v9.859h1.444l2.194-1.947 2.218 1.947h1.447v-9.86h1.826v14.607h-13.507l-.004-14.606h4.382Zm-5.995 0h.152l.004 14.606h-.11c-.475 0-.942.124-1.354.36V707.78a1.316 1.316 0 0 1 1.308-1.32Z" fill-rule="evenodd" data-name="Icon core-book"/></svg>