<?xml version="1.0" encoding="iso-8859-1"?>
<!-- Uploaded to: SVG Repo, www.svgrepo.com, Generator: SVG Repo Mixer Tools -->
<svg fill="#000000" height="800px" width="800px" version="1.1" id="Layer_1" xmlns="http://www.w3.org/2000/svg" xmlns:xlink="http://www.w3.org/1999/xlink" 
	 viewBox="0 0 469.333 469.333" xml:space="preserve">
<g>
	<g>
		<path d="M437.333,181.333h-74.667V32c0-17.643-14.357-32-32-32H53.333c-17.643,0-32,14.357-32,32v405.333
			c0,17.643,14.357,32,32,32H352c52.928,0,96-43.072,96-96V192C448,186.112,443.221,181.333,437.333,181.333z M341.333,192v256h-288
			c-5.877,0-10.667-4.789-10.667-10.667V32c0-5.877,4.789-10.667,10.667-10.667h277.333c5.877,0,10.667,4.789,10.667,10.667V192z
			 M426.667,373.333c0,37.557-27.861,68.715-64,73.909V202.667h64V373.333z"/>
	</g>
</g>
<g>
	<g>
		<path d="M330.667,266.667C330.667,225.493,297.173,192,256,192s-74.667,33.493-74.667,74.667c0,20.395,8.235,38.88,21.525,52.373
			c-0.032,0.331-0.192,0.619-0.192,0.96v96c0,3.701,1.92,7.125,5.056,9.077c3.147,1.941,7.083,2.112,10.379,0.469L256,406.592
			l37.899,18.944c1.504,0.757,3.136,1.131,4.768,1.131c1.952,0,3.893-0.533,5.611-1.589c3.136-1.952,5.056-5.376,5.056-9.077v-96
			c0-0.341-0.16-0.629-0.192-0.96C322.432,305.547,330.667,287.061,330.667,266.667z M288,398.741l-27.232-13.621
			c-2.997-1.504-6.539-1.504-9.547,0L224,398.741v-64.715c9.717,4.64,20.533,7.307,32,7.307c11.456,0,22.283-2.667,32-7.307V398.741
			z M256,320c-29.408,0-53.333-23.925-53.333-53.333s23.925-53.333,53.333-53.333c29.408,0,53.333,23.925,53.333,53.333
			S285.408,320,256,320z"/>
	</g>
</g>
<g>
	<g>
		<path d="M256,224c-5.888,0-10.667,4.779-10.667,10.667s4.779,10.667,10.667,10.667c11.765,0,21.333,9.568,21.333,21.333
			c0,11.765-9.568,21.333-21.333,21.333c-5.888,0-10.667,4.779-10.667,10.667s4.779,10.667,10.667,10.667
			c23.531,0,42.667-19.136,42.667-42.667S279.531,224,256,224z"/>
	</g>
</g>
<g>
	<g>
		<path d="M298.667,64H85.333c-5.888,0-10.667,4.779-10.667,10.667s4.779,10.667,10.667,10.667h213.333
			c5.888,0,10.667-4.779,10.667-10.667S304.555,64,298.667,64z"/>
	</g>
</g>
<g>
	<g>
		<path d="M266.667,106.667H85.333c-5.888,0-10.667,4.779-10.667,10.667S79.445,128,85.333,128h181.333
			c5.888,0,10.667-4.779,10.667-10.667S272.555,106.667,266.667,106.667z"/>
	</g>
</g>
<g>
	<g>
		<path d="M149.333,149.333h-64c-5.888,0-10.667,4.779-10.667,10.667s4.779,10.667,10.667,10.667h64
			c5.888,0,10.667-4.779,10.667-10.667S155.221,149.333,149.333,149.333z"/>
	</g>
</g>
<g>
	<g>
		<path d="M298.667,149.333H192c-5.888,0-10.667,4.779-10.667,10.667s4.779,10.667,10.667,10.667h106.667
			c5.888,0,10.667-4.779,10.667-10.667S304.555,149.333,298.667,149.333z"/>
	</g>
</g>
<g>
	<g>
		<path d="M160,192H85.333c-5.888,0-10.667,4.779-10.667,10.667s4.779,10.667,10.667,10.667H160c5.888,0,10.667-4.779,10.667-10.667
			S165.888,192,160,192z"/>
	</g>
</g>
<g>
	<g>
		<path d="M149.333,234.667h-64c-5.888,0-10.667,4.779-10.667,10.667S79.445,256,85.333,256h64c5.888,0,10.667-4.779,10.667-10.667
			S155.221,234.667,149.333,234.667z"/>
	</g>
</g>
<g>
	<g>
		<path d="M149.333,277.333h-64c-5.888,0-10.667,4.779-10.667,10.667s4.779,10.667,10.667,10.667h64
			c5.888,0,10.667-4.779,10.667-10.667S155.221,277.333,149.333,277.333z"/>
	</g>
</g>
<g>
	<g>
		<path d="M160,320H85.333c-5.888,0-10.667,4.779-10.667,10.667c0,5.888,4.779,10.667,10.667,10.667H160
			c5.888,0,10.667-4.779,10.667-10.667C170.667,324.779,165.888,320,160,320z"/>
	</g>
</g>
<g>
	<g>
		<path d="M170.667,362.667H85.333c-5.888,0-10.667,4.779-10.667,10.667S79.445,384,85.333,384h85.333
			c5.888,0,10.667-4.779,10.667-10.667S176.555,362.667,170.667,362.667z"/>
	</g>
</g>
</svg>