<svg xmlns="http://www.w3.org/2000/svg" width="22.513" height="22.512" viewBox="112.372 871.136 22.513 22.512"><path d="M119.407 887.317c1.166 0 2.111.946 2.111 2.11v.704l3.188-2.392c.365-.272.809-.422 1.266-.422h6.1a.706.706 0 0 0 .703-.703V873.95a.706.706 0 0 0-.704-.704h-16.885a.706.706 0 0 0-.703.704v12.664c0 .387.316.703.703.703h4.221Zm2.111 5.453-.009.009-.224.167-.752.562a.71.71 0 0 1-.739.066.692.692 0 0 1-.387-.628v-3.518h-4.22a2.817 2.817 0 0 1-2.815-2.814V873.95a2.817 2.817 0 0 1 2.814-2.814h16.885a2.817 2.817 0 0 1 2.814 2.814v12.664a2.817 2.817 0 0 1-2.814 2.814h-6.099l-4.454 3.342Z" fill="#bbbfd2" fill-rule="evenodd" data-name="Icon fa-regular-message"/></svg>