<svg width="30" height="30" viewBox="0 0 30 30" fill="none" xmlns="http://www.w3.org/2000/svg">
<rect width="30" height="30" rx="15" fill="white"/>
<path d="M14.8718 5.76953H15.1177C16.4093 5.79369 17.6915 6.21088 18.7423 6.9634C19.8395 7.73756 20.6869 8.86004 21.1264 10.1289C21.5245 11.2572 21.5847 12.4928 21.3399 13.6615C21.0204 15.212 20.3133 16.6496 19.5164 18.0057C18.293 20.0823 16.8027 21.9822 15.4563 23.9772C15.3665 24.1182 15.2133 24.2091 15.0489 24.2311H14.9508C14.7828 24.2123 14.627 24.1186 14.5365 23.9751C12.9204 21.5801 11.0894 19.3142 9.77507 16.7285C9.14767 15.4773 8.63241 14.1378 8.52495 12.7308C8.4687 11.9567 8.55092 11.1717 8.77123 10.4267C9.14659 9.14597 9.93193 7.99177 10.9805 7.16677C12.0792 6.29201 13.4685 5.79694 14.8718 5.76953ZM14.5675 6.86929C13.3823 6.95907 12.2357 7.45992 11.3594 8.26184C10.4353 9.09874 9.81293 10.2627 9.64238 11.4987C9.49887 12.4672 9.65789 13.4556 9.95897 14.3794C10.3985 15.7218 11.0897 16.9647 11.8369 18.1579C12.8245 19.726 13.9369 21.2102 14.9969 22.7293C16.4205 20.6848 17.9537 18.7031 19.1227 16.4949C19.6498 15.4824 20.1067 14.4169 20.3104 13.2876C20.477 12.38 20.4236 11.4299 20.1287 10.5537C19.7389 9.37638 18.9283 8.34513 17.8787 7.68528C16.9026 7.06256 15.721 6.77482 14.5675 6.86929Z" fill="black"/>
<path d="M14.5804 9.04131C15.3312 8.94324 16.1151 9.11775 16.7497 9.53134C17.3818 9.93662 17.8657 10.568 18.0899 11.2852C18.3088 11.9739 18.2868 12.7358 18.0286 13.4108C17.7878 14.0465 17.341 14.601 16.7724 14.9732C16.1785 15.3666 15.4512 15.5519 14.7413 15.4942C13.9952 15.4387 13.2744 15.1109 12.739 14.5891C12.2367 14.1053 11.8967 13.4559 11.7899 12.7664C11.6677 12.0053 11.8285 11.2022 12.2389 10.5492C12.7429 9.7311 13.6256 9.15886 14.5804 9.04131ZM14.6544 10.123C14.2163 10.1955 13.8012 10.4025 13.4846 10.7144C13.0812 11.1053 12.8403 11.6591 12.8324 12.2209C12.8212 12.7318 13.0022 13.2431 13.3292 13.6358C13.608 13.974 13.9909 14.2242 14.4135 14.3418C14.9482 14.4972 15.541 14.4258 16.0282 14.1583C16.525 13.8896 16.9072 13.4187 17.0666 12.8768C17.1845 12.4906 17.1892 12.0702 17.0782 11.6818C16.9256 11.1236 16.5369 10.6361 16.0289 10.361C15.6135 10.1324 15.122 10.048 14.6544 10.123Z" fill="black"/>
</svg>
