<svg width="30" height="30" viewBox="0 0 30 30" fill="none" xmlns="http://www.w3.org/2000/svg">
<rect width="30" height="30" rx="15" fill="white"/>
<path d="M9.73121 7.47305C10.1072 7.21097 10.5667 7.07071 11.0251 7.08275C11.6793 7.08989 12.3174 7.42154 12.7059 7.94683C13.0289 8.38864 13.3466 8.8346 13.6669 9.27829C13.9798 9.71259 14.1306 10.2612 14.0745 10.794C14.0174 11.4009 13.6951 11.9773 13.2071 12.3424C12.8987 12.571 12.5885 12.7963 12.2791 13.023C12.9988 14.6211 14.0512 16.0676 15.3519 17.2423C15.6594 17.0197 15.9666 16.7963 16.2739 16.5733C16.7206 16.2545 17.288 16.1078 17.8332 16.1808C18.4295 16.2522 18.9864 16.5831 19.3391 17.0686C19.6542 17.5059 19.9689 17.9428 20.2833 18.3805C20.5965 18.8136 20.748 19.3619 20.692 19.8943C20.6341 20.5185 20.2923 21.1081 19.7817 21.4709C19.403 21.7326 19.0244 21.9943 18.6454 22.2553C18.3746 22.4414 18.1084 22.6411 17.8012 22.7644C16.9902 23.1137 16.0261 23.0716 15.2447 22.6625C13.3214 21.6582 11.6105 20.25 10.2591 18.5523C8.60166 16.4805 7.48452 13.9792 7.05436 11.3607C6.92088 10.4657 7.22545 9.52007 7.85377 8.86957C8.10419 8.59921 8.41967 8.40406 8.71634 8.18973C9.05513 7.95172 9.39129 7.70994 9.73121 7.47305ZM10.8055 8.2875C10.6043 8.31457 10.4242 8.41534 10.2633 8.53454C9.83348 8.83196 9.40144 9.12638 8.97166 9.42419C8.53172 9.73665 8.25084 10.2582 8.22903 10.797C8.21436 11.0362 8.26964 11.2708 8.31062 11.5047C8.6152 13.1136 9.19614 14.67 10.0222 16.0842C11.292 18.2699 13.1496 20.1086 15.347 21.3574C15.626 21.5085 15.8982 21.6883 16.2126 21.7578C16.7025 21.8759 17.2391 21.7759 17.6538 21.4894C18.1178 21.1641 18.5796 20.8351 19.0428 20.5087C19.206 20.3967 19.3433 20.2436 19.4203 20.0601C19.561 19.745 19.5211 19.3596 19.3211 19.0787C19.0601 18.7132 18.7954 18.3504 18.5333 17.986C18.4119 17.8213 18.3036 17.6397 18.1306 17.5228C17.8005 17.2844 17.3233 17.2791 16.9902 17.5141C16.5438 17.8322 16.102 18.1567 15.6561 18.4752C15.4985 18.5948 15.2819 18.6316 15.0954 18.5628C14.948 18.5121 14.842 18.3925 14.7251 18.2959C13.0837 16.8678 11.788 15.0452 10.9803 13.0249C10.8874 12.7865 10.9721 12.4962 11.177 12.3436C11.5883 12.0394 12.0042 11.7404 12.4175 11.4385C12.7995 11.2027 12.9976 10.7071 12.854 10.277C12.8123 10.1349 12.7284 10.0104 12.6412 9.89232C12.346 9.48472 12.0542 9.07449 11.7583 8.66727C11.5447 8.37435 11.1638 8.21342 10.8055 8.2875Z" fill="black"/>
<path d="M17.003 7.09097C17.1443 7.03758 17.3057 7.04209 17.4448 7.10113C18.6789 7.62191 19.784 8.44463 20.6356 9.47829C21.7159 10.7812 22.3871 12.418 22.5262 14.1048C22.5465 14.3717 22.3649 14.6368 22.1107 14.718C21.8449 14.8083 21.5279 14.6774 21.3971 14.4308C21.332 14.3195 21.3211 14.189 21.308 14.0642C21.1628 12.6925 20.6097 11.3685 19.7396 10.2988C19.0064 9.39068 18.0479 8.66798 16.9751 8.20849C16.727 8.10621 16.5702 7.82533 16.6179 7.56024C16.6495 7.34967 16.8025 7.16317 17.003 7.09097Z" fill="black"/>
<path d="M16.1052 9.76528C16.1988 9.74836 16.2966 9.754 16.3872 9.78408C17.3829 10.1345 18.2575 10.817 18.8395 11.6976C19.3423 12.4527 19.6311 13.3494 19.6574 14.2564C19.6694 14.602 19.3287 14.9125 18.9847 14.8516C18.7008 14.8095 18.4763 14.5452 18.4771 14.2587C18.4462 13.5066 18.1823 12.7662 17.7262 12.1673C17.2938 11.5923 16.6899 11.1501 16.0127 10.9091C15.7164 10.811 15.5442 10.4571 15.6472 10.1627C15.7115 9.9593 15.8954 9.801 16.1052 9.76528Z" fill="black"/>
</svg>
