<svg width="30" height="30" viewBox="0 0 30 30" fill="none" xmlns="http://www.w3.org/2000/svg">
<rect width="30" height="30" rx="15" fill="white"/>
<path d="M8.23379 9.96896C8.46046 9.89247 8.70317 9.89587 8.9394 9.89679C13.1641 9.89772 17.3889 9.89618 21.6136 9.89772C21.9664 9.89217 22.3242 10.0072 22.5878 10.2459C22.8787 10.4957 23.0452 10.8701 23.0634 11.2507V19.64C23.0467 19.9996 22.9012 20.3546 22.6387 20.6044C22.4269 20.8088 22.1496 20.9464 21.8569 20.9821C21.6537 21.008 21.4483 20.9976 21.2442 20.9994C17.1523 20.9994 13.0608 20.9994 8.96932 20.9994C8.73247 21.0003 8.49037 21.0068 8.26154 20.9362C7.88653 20.8236 7.56487 20.5448 7.40358 20.1874C7.32247 20.0181 7.28824 19.8315 7.27344 19.6459V11.2556C7.28701 11.0983 7.30983 10.9398 7.36842 10.7924C7.51399 10.4066 7.8412 10.0951 8.23379 9.96896ZM8.85644 10.8226C10.6171 12.5749 12.379 14.3263 14.1396 16.0786C14.3237 16.2593 14.5427 16.4117 14.7953 16.4765C15.276 16.6189 15.8176 16.4641 16.1664 16.1079C17.9391 14.3473 19.7093 12.5842 21.4807 10.8226C17.2726 10.8223 13.0645 10.8223 8.85644 10.8226ZM8.19863 11.4742C8.19863 14.124 8.19863 16.7734 8.19863 19.4232C9.53152 18.0996 10.8638 16.7753 12.1961 15.4513C10.8638 14.1252 9.53122 12.7997 8.19863 11.4742ZM18.1408 15.451C19.473 16.7753 20.8056 18.0996 22.1382 19.4235C22.1382 16.7738 22.1382 14.124 22.1379 11.4742C20.8053 12.7997 19.473 14.1252 18.1408 15.451ZM8.85644 20.0739C13.0645 20.0742 17.2723 20.0742 21.4804 20.0739C20.1487 18.7503 18.8165 17.4272 17.4845 16.1039C17.3047 16.2815 17.1258 16.4601 16.9466 16.6384C16.7968 16.7886 16.6447 16.9391 16.4668 17.0569C16.0193 17.3656 15.4589 17.5019 14.9192 17.442C14.4202 17.3918 13.9419 17.1682 13.5792 16.8225C13.3335 16.5866 13.0957 16.3426 12.8524 16.1039C11.5204 17.4272 10.1881 18.7503 8.85644 20.0739Z" fill="black"/>
</svg>
