<svg width="20" height="21" viewBox="0 0 20 21" fill="none" xmlns="http://www.w3.org/2000/svg">
<path d="M12.9424 7.55788C13.0005 7.61593 13.0466 7.68486 13.0781 7.76073C13.1095 7.83661 13.1257 7.91794 13.1257 8.00007C13.1257 8.08221 13.1095 8.16354 13.0781 8.23941C13.0466 8.31528 13.0005 8.38421 12.9424 8.44226L7.94241 13.4423C7.88434 13.5003 7.8154 13.5464 7.73953 13.5778C7.66366 13.6092 7.58234 13.6254 7.50022 13.6254C7.4181 13.6254 7.33678 13.6092 7.26091 13.5778C7.18504 13.5464 7.1161 13.5003 7.05803 13.4423C6.99997 13.3842 6.9539 13.3153 6.92248 13.2394C6.89105 13.1635 6.87488 13.0822 6.87488 13.0001C6.87488 12.9179 6.89105 12.8366 6.92248 12.7608C6.9539 12.6849 6.99997 12.616 7.05803 12.5579L12.058 7.55788C12.1161 7.49977 12.185 7.45367 12.2609 7.42222C12.3368 7.39077 12.4181 7.37458 12.5002 7.37458C12.5824 7.37458 12.6637 7.39077 12.7396 7.42222C12.8154 7.45367 12.8844 7.49977 12.9424 7.55788ZM16.844 3.65632C16.4377 3.25002 15.9554 2.92772 15.4246 2.70783C14.8937 2.48793 14.3248 2.37476 13.7502 2.37476C13.1757 2.37476 12.6067 2.48793 12.0759 2.70783C11.545 2.92772 11.0627 3.25002 10.6565 3.65632L8.30803 6.00398C8.19076 6.12125 8.12488 6.28031 8.12488 6.44617C8.12488 6.61202 8.19076 6.77108 8.30803 6.88835C8.42531 7.00563 8.58437 7.07151 8.75022 7.07151C8.91607 7.07151 9.07513 7.00563 9.19241 6.88835L11.5408 4.5446C12.129 3.96933 12.9204 3.64922 13.7431 3.65376C14.5658 3.65829 15.3536 3.98709 15.9354 4.5688C16.5172 5.15052 16.8462 5.93822 16.8508 6.76095C16.8555 7.58368 16.5355 8.37506 15.9604 8.96335L13.6112 11.3118C13.4939 11.429 13.428 11.5879 13.4279 11.7537C13.4278 11.9195 13.4936 12.0785 13.6108 12.1958C13.7279 12.313 13.8869 12.379 14.0527 12.379C14.2185 12.3791 14.3775 12.3133 14.4948 12.1962L16.844 9.84382C17.2503 9.43756 17.5726 8.95524 17.7925 8.42441C18.0124 7.89359 18.1255 7.32464 18.1255 6.75007C18.1255 6.1755 18.0124 5.60656 17.7925 5.07573C17.5726 4.5449 17.2503 4.06258 16.844 3.65632ZM10.808 14.111L8.4596 16.4594C8.1706 16.7549 7.82585 16.9902 7.44531 17.1515C7.06478 17.3128 6.65602 17.3971 6.2427 17.3994C5.82938 17.4016 5.41972 17.3219 5.03743 17.1648C4.65515 17.0076 4.30783 16.7762 4.01559 16.4839C3.72335 16.1916 3.492 15.8443 3.33493 15.462C3.17786 15.0796 3.09819 14.67 3.10054 14.2566C3.10289 13.8433 3.18721 13.4346 3.34862 13.0541C3.51002 12.6736 3.74531 12.3289 4.04085 12.0399L6.3885 9.69226C6.50578 9.57498 6.57166 9.41592 6.57166 9.25007C6.57166 9.08422 6.50578 8.92516 6.3885 8.80788C6.27123 8.69061 6.11217 8.62472 5.94632 8.62472C5.78046 8.62472 5.6214 8.69061 5.50413 8.80788L3.15647 11.1563C2.33596 11.9768 1.875 13.0897 1.875 14.2501C1.875 15.4105 2.33596 16.5233 3.15647 17.3438C3.97699 18.1643 5.08984 18.6253 6.25022 18.6253C7.4106 18.6253 8.52346 18.1643 9.34397 17.3438L11.6924 14.9946C11.8096 14.8773 11.8754 14.7183 11.8753 14.5525C11.8752 14.3867 11.8093 14.2278 11.692 14.1106C11.5747 13.9934 11.4157 13.9277 11.2499 13.9277C11.0842 13.9278 10.9252 13.9937 10.808 14.111Z" fill="#5F6B7A"/>
</svg>
