<svg width="70" height="70" viewBox="0 0 70 70" fill="none" xmlns="http://www.w3.org/2000/svg">
<g filter="url(#filter0_d_3660_11340)">
<rect x="10" y="6" width="50" height="50" rx="25" fill="url(#paint0_linear_3660_11340)" shape-rendering="crispEdges"/>
<path d="M43.6622 19L43.9809 19C44.7548 19.0581 45.5081 19.3923 46.05 19.9516C46.6214 20.5094 46.957 21.2875 46.9992 22.083L46.9992 22.2433C46.9781 22.7303 46.83 23.2136 46.5544 23.6172C46.3828 23.8783 46.1489 24.0878 45.9309 24.3086C43.0791 27.16 40.2276 30.0114 37.3758 32.8633C37.208 33.0395 36.9801 33.1572 36.7373 33.1848C35.8697 33.2894 35.0011 33.3906 34.133 33.4942C33.8897 33.5167 33.6483 33.565 33.4041 33.5687C32.9887 33.5683 32.5973 33.2748 32.4745 32.8792C32.3981 32.6641 32.4319 32.433 32.46 32.2127C32.5669 31.3234 32.6719 30.4342 32.7773 29.545C32.8036 29.3317 32.8116 29.1086 32.9137 28.9145C32.9962 28.7416 33.1416 28.6122 33.2751 28.4795C36.1275 25.6286 38.9798 22.7781 41.8312 19.9267C41.9794 19.7791 42.1247 19.6272 42.2944 19.5034C42.6895 19.2077 43.1709 19.038 43.6622 19ZM43.4109 21.1802C40.5291 24.0639 37.6444 26.9458 34.762 29.83C34.6987 30.3625 34.6341 30.895 34.5717 31.428C35.1047 31.3652 35.6391 31.3089 36.1701 31.2344C37.1737 30.2537 38.1572 29.2506 39.1528 28.2616C41.0433 26.3711 42.9328 24.4806 44.8237 22.5906C44.9484 22.4777 45.0155 22.3094 45.0033 22.1411C44.9587 21.5523 44.4469 21.0438 43.8586 20.9997C43.6903 20.987 43.523 21.0545 43.4109 21.1802Z" fill="white"/>
<path d="M25.4802 22.0447C25.7905 21.9875 26.1078 22.0006 26.4219 21.9997C29.1097 21.9997 31.797 21.9997 34.4848 21.9997C34.8369 21.987 35.187 22.1717 35.3698 22.4736C35.5831 22.8097 35.5653 23.2728 35.3258 23.5906C35.1359 23.855 34.8116 24.0088 34.4872 23.9999C31.6587 24.0003 28.8298 23.9989 26.0014 24.0003C25.467 23.9853 24.9866 24.4639 25.0006 24.9988C24.9992 29.9989 24.9997 34.9995 25.0006 39.9997C24.9861 40.5341 25.4661 41.0127 26.0005 40.9986C30.6711 41 35.3422 41.0009 40.0128 40.9981C40.5406 41.0056 41.0103 40.5317 40.9986 40.0039C41.0019 37.5022 40.9986 35.0005 41.0005 32.4988C40.9911 32.1481 41.1809 31.8036 41.4819 31.6245C41.8048 31.4239 42.2422 31.4342 42.5553 31.6484C42.8347 31.8317 43.0058 32.1622 42.9997 32.4955C43.0002 34.9977 43.0006 37.4999 42.9997 40.0016C43.0048 40.8177 42.6519 41.623 42.0575 42.1803C41.5395 42.6749 40.8406 42.9664 40.1262 42.9997L25.8622 42.9997C25.0906 42.9608 24.3392 42.6153 23.8128 42.0491C23.3234 41.5395 23.0403 40.8491 23 40.1464L23 24.8609C23.038 24.1447 23.3305 23.4406 23.8344 22.9269C24.2694 22.4656 24.8558 22.1525 25.4802 22.0447Z" fill="white"/>
</g>
<defs>
<filter id="filter0_d_3660_11340" x="0" y="0" width="70" height="70" filterUnits="userSpaceOnUse" color-interpolation-filters="sRGB">
<feFlood flood-opacity="0" result="BackgroundImageFix"/>
<feColorMatrix in="SourceAlpha" type="matrix" values="0 0 0 0 0 0 0 0 0 0 0 0 0 0 0 0 0 0 127 0" result="hardAlpha"/>
<feOffset dy="4"/>
<feGaussianBlur stdDeviation="5"/>
<feComposite in2="hardAlpha" operator="out"/>
<feColorMatrix type="matrix" values="0 0 0 0 1 0 0 0 0 0.439216 0 0 0 0 0 0 0 0 0.5 0"/>
<feBlend mode="normal" in2="BackgroundImageFix" result="effect1_dropShadow_3660_11340"/>
<feBlend mode="normal" in="SourceGraphic" in2="effect1_dropShadow_3660_11340" result="shape"/>
</filter>
<linearGradient id="paint0_linear_3660_11340" x1="23" y1="9.5" x2="47" y2="52" gradientUnits="userSpaceOnUse">
<stop stop-color="#FFB073"/>
<stop offset="1" stop-color="#FF7000"/>
</linearGradient>
</defs>
</svg>
