<svg width="16" height="16" viewBox="0 0 16 16" fill="none" xmlns="http://www.w3.org/2000/svg">
<path d="M7.99599 15.6731C6.95974 15.6731 5.9543 15.4701 5.00758 15.0697C4.09336 14.683 3.27236 14.1295 2.56743 13.4246C1.86251 12.7196 1.30899 11.8986 0.922308 10.9844C0.521873 10.0377 0.318848 9.03225 0.318848 7.996C0.318848 6.95975 0.521873 5.95432 0.922308 5.0076C1.30899 4.09336 1.86251 3.27238 2.56743 2.56743C3.27238 1.86251 4.09336 1.30899 5.00758 0.922308C5.95428 0.521892 6.95974 0.318848 7.99599 0.318848C9.03224 0.318848 10.0377 0.521892 10.9844 0.922308C11.8986 1.30899 12.7196 1.86251 13.4245 2.56743C14.1295 3.27238 14.683 4.09336 15.0697 5.0076C15.4701 5.9543 15.6731 6.95975 15.6731 7.996C15.6731 9.03225 15.4701 10.0377 15.0697 10.9844C14.683 11.8986 14.1295 12.7196 13.4245 13.4246C12.7196 14.1295 11.8986 14.683 10.9844 15.0697C10.0377 15.4701 9.03224 15.6731 7.99599 15.6731ZM7.99599 1.03916C7.05666 1.03916 6.14562 1.22305 5.28818 1.58571C4.45981 1.93608 3.71579 2.43774 3.07675 3.07677C2.43772 3.71579 1.93608 4.45981 1.5857 5.2882C1.22303 6.14564 1.03914 7.05667 1.03914 7.996C1.03914 8.93533 1.22301 9.84636 1.5857 10.7038C1.93608 11.5322 2.43774 12.2762 3.07675 12.9152C3.71577 13.5543 4.45979 14.0559 5.28818 14.4063C6.14562 14.769 7.05666 14.9529 7.99599 14.9529C8.93532 14.9529 9.84635 14.769 10.7038 14.4063C11.5322 14.0559 12.2762 13.5542 12.9152 12.9152C13.5542 12.2762 14.0559 11.5322 14.4063 10.7038C14.7689 9.84636 14.9528 8.93533 14.9528 7.996C14.9528 7.05667 14.769 6.14564 14.4063 5.2882C14.0559 4.45983 13.5542 3.71579 12.9152 3.07677C12.2762 2.43774 11.5322 1.93608 10.7038 1.58571C9.84635 1.22305 8.93532 1.03916 7.99599 1.03916Z" fill="#5F6B7A"/>
<path d="M10.0068 6.31351C9.84125 6.3244 9.68736 6.22233 9.63776 6.06398C9.59489 5.92721 9.52825 5.80184 9.43667 5.68501C9.28509 5.49181 9.08163 5.3373 8.83201 5.22585C8.6789 5.15753 8.51038 5.10934 8.32875 5.08184V7.61436L8.50125 7.65443C9.22741 7.82121 9.73473 8.04134 10.0516 8.32722C10.3862 8.62922 10.5559 9.05311 10.5559 9.58717V9.59204C10.5559 10.0073 10.4473 10.3765 10.2331 10.6894C10.0209 10.9994 9.71884 11.2413 9.33531 11.4085C9.04154 11.5366 8.70383 11.6148 8.32875 11.6419V12.1066C8.32875 12.3028 8.16971 12.4618 7.97355 12.4618C7.77738 12.4618 7.61835 12.3028 7.61835 12.1066V11.6324C7.29015 11.5981 6.98672 11.5205 6.71374 11.401C6.32368 11.2303 6.00799 10.9853 5.77555 10.6728C5.62709 10.4734 5.51826 10.2512 5.45006 10.0091C5.38669 9.78407 5.54743 9.55813 5.78089 9.54608C5.95201 9.53726 6.10453 9.64961 6.1504 9.81472C6.19526 9.97619 6.26779 10.1225 6.36933 10.257C6.52787 10.467 6.74825 10.6338 7.02441 10.7528C7.20243 10.8295 7.4014 10.8826 7.61834 10.9116V8.19128L7.57707 8.18163C6.87939 8.01771 6.38479 7.79572 6.06479 7.50291C5.72779 7.19472 5.55692 6.77612 5.55692 6.25871V6.24896C5.55692 5.87003 5.6635 5.53097 5.87374 5.24119C6.07872 4.95866 6.36598 4.73431 6.72756 4.57438C6.99316 4.45695 7.29191 4.38298 7.61835 4.35367V3.88541C7.61835 3.68924 7.77739 3.53021 7.97355 3.53021C8.16973 3.53021 8.32875 3.68925 8.32875 3.88541V4.36034C8.62464 4.39414 8.90044 4.46865 9.15122 4.58271C9.51133 4.74664 9.80631 4.97625 10.028 5.26518C10.1613 5.43896 10.2617 5.62983 10.3284 5.83585C10.4018 6.06237 10.245 6.29788 10.0074 6.31347L10.0068 6.31351ZM8.32875 10.9248C8.59354 10.9018 8.8281 10.8473 9.02841 10.7621C9.29238 10.6498 9.48734 10.4973 9.62439 10.2959C9.75999 10.0965 9.82593 9.86787 9.82593 9.59691V9.59204C9.82593 9.26583 9.73006 9.02255 9.53285 8.84835C9.31464 8.6557 8.9095 8.49048 8.32877 8.35735V10.9248H8.32875ZM7.61834 5.07215C7.40247 5.09619 7.20823 5.14485 7.03863 5.21755C6.79607 5.32148 6.6068 5.46442 6.47602 5.64242C6.34874 5.81559 6.28685 6.01396 6.28685 6.24894V6.25869C6.28685 6.57228 6.38375 6.81097 6.58306 6.9884C6.78571 7.16887 7.13363 7.32313 7.61834 7.44764V5.07215Z" fill="#5F6B7A"/>
</svg>
