<svg xmlns="http://www.w3.org/2000/svg" width="31.609" height="31.61" viewBox="13618.232 -1247.903 31.609 31.61"><g data-name="Multiple Layers (2)"><g data-name="Logo"><path d="M13634.037-1247.903a15.805 15.805 0 0 1 15.804 15.805 15.805 15.805 0 0 1-15.804 15.805 15.805 15.805 0 0 1-15.805-15.805 15.805 15.805 0 0 1 15.805-15.805z" fill="#fff" fill-rule="evenodd" data-name="Logo [Frame Background]"/></g><path d="M13640.037-1238.252h-12c-.825 0-1.493.675-1.493 1.5l-.007 9c0 .825.675 1.5 1.5 1.5h12c.825 0 1.5-.675 1.5-1.5v-9c0-.825-.675-1.5-1.5-1.5Zm0 3-6 3.75-6-3.75v-1.5l6 3.75 6-3.75v1.5Z" fill-rule="evenodd" data-name="Icon material-email"/></g></svg>