<svg width="20" height="21" viewBox="0 0 20 21" fill="none" xmlns="http://www.w3.org/2000/svg">
<path d="M1.11869 0.899994H18.9458C19.2409 0.924744 19.5057 1.13249 19.6002 1.41299V2.38949C19.4959 3.35174 19.2102 4.29562 18.7448 5.14537C18.3409 5.89274 17.8021 6.56549 17.1679 7.13099C16.0707 8.10862 14.9704 9.08287 13.8732 10.0612C13.3306 10.5495 13.0062 11.2699 13.0006 12C12.9979 13.464 13.0013 14.928 12.9991 16.392C13.0036 16.6522 12.8607 16.9016 12.6421 17.0404C11.2099 17.9959 9.77669 18.9506 8.34419 19.9054C8.20507 20.0047 8.04832 20.0854 7.87507 20.1H7.77457C7.39582 20.0737 7.06657 19.737 7.07594 19.3526C7.07257 16.902 7.07707 14.451 7.07407 12C7.06769 11.2605 6.73507 10.533 6.18194 10.0425C5.22344 9.18899 4.26382 8.33699 3.30494 7.48424C3.01432 7.22512 2.71732 6.97162 2.45032 6.68699C1.15957 5.33737 0.420818 3.47662 0.440318 1.60874C0.449318 1.24537 0.760193 0.932994 1.11869 0.899994ZM1.98644 2.39999C2.13644 3.55537 2.64194 4.66162 3.42082 5.52862C3.68369 5.82824 3.98969 6.08474 4.28594 6.34987C5.23319 7.19174 6.18044 8.03324 7.12694 8.87549C8.02544 9.64687 8.56882 10.8124 8.57369 11.9974C8.57632 13.9804 8.57332 15.9637 8.57519 17.9467C9.55057 17.298 10.5244 16.6474 11.4994 15.9982C11.5002 14.8402 11.4994 13.6822 11.4994 12.5242C11.5013 12.162 11.4874 11.7975 11.5433 11.4382C11.6798 10.4779 12.1654 9.57299 12.8899 8.92799C13.9744 7.96274 15.0601 6.99862 16.1453 6.03374C17.2043 5.11012 17.9089 3.79387 18.0878 2.39999C12.7208 2.39999 7.35344 2.39999 1.98644 2.39999Z" fill="black"/>
</svg>
