<svg xmlns="http://www.w3.org/2000/svg" width="31.609" height="31.61" viewBox="13617.934 -1334.907 31.609 31.61"><g data-name="Multiple Layers (2)"><g data-name="Logo"><path d="M13633.738-1334.907a15.805 15.805 0 0 1 15.805 15.805 15.805 15.805 0 0 1-15.805 15.805 15.805 15.805 0 0 1-15.805-15.805 15.805 15.805 0 0 1 15.805-15.805z" fill="#fff" fill-rule="evenodd" data-name="Logo [Frame Background]"/></g><path d="M13639.904-1320.306c.08.43.124.879.124 1.348 0 3.667-2.454 6.274-6.16 6.274a6.416 6.416 0 0 1-6.419-6.418 6.416 6.416 0 0 1 6.418-6.418c1.733 0 3.181.637 4.292 1.673l-1.81 1.809v-.005c-.673-.641-1.527-.97-2.482-.97-2.117 0-3.839 1.789-3.839 3.907 0 2.117 1.722 3.91 3.84 3.91 1.92 0 3.228-1.098 3.497-2.607h-3.498v-2.503h6.037Z" fill-rule="evenodd" data-name="Icon akar-google-fill"/></g></svg>