<svg width="21" height="17" viewBox="0 0 21 17" fill="none" xmlns="http://www.w3.org/2000/svg">
<path d="M10.5609 0.558303C10.7248 0.486743 10.9125 0.478532 11.0786 0.547745C14.1229 1.6493 17.1663 2.75281 20.2105 3.85397C20.3822 3.90715 20.5468 4.01312 20.6227 4.18244C20.7689 4.46438 20.6317 4.84838 20.3376 4.97038C19.99 5.10842 19.6338 5.22534 19.2826 5.35516C19.2826 7.12813 19.2822 8.90109 19.283 10.6737C19.7996 11.1922 20.3189 11.708 20.8346 12.2269C20.9293 12.3203 20.9793 12.447 21.0051 12.5757V12.6922C20.9832 12.8357 20.9211 12.973 20.8151 13.0735C20.3044 13.5845 19.7929 14.0945 19.283 14.6063C19.2803 15.0462 19.2857 15.4862 19.281 15.9261C19.276 16.2029 19.0503 16.4532 18.7754 16.4864C18.4462 16.5408 18.1142 16.2612 18.1115 15.9276C18.1064 15.4869 18.1115 15.0459 18.1095 14.6048C17.5937 14.0866 17.0744 13.5716 16.5594 13.0527C16.4003 12.8948 16.344 12.6433 16.4261 12.4337C16.4765 12.291 16.5942 12.1901 16.6975 12.0857C17.1691 11.6161 17.6391 11.1449 18.1095 10.6737C18.1099 9.04186 18.1091 7.40967 18.1099 5.77748C17.6344 5.95032 17.1593 6.12238 16.6826 6.2917C16.6826 7.49531 16.6818 8.69932 16.6826 9.90293C16.683 10.0785 16.6967 10.2693 16.5958 10.423C16.4722 10.6072 16.3017 10.7546 16.132 10.895C15.3578 11.5089 14.4072 11.8554 13.4511 12.0669C12.556 12.2617 11.6374 12.3321 10.7228 12.3344C9.35456 12.3313 7.96168 12.1842 6.68221 11.6735C6.15118 11.4589 5.64009 11.1781 5.20995 10.7964C5.08091 10.6784 4.95265 10.5548 4.86075 10.405C4.76886 10.2533 4.78568 10.0703 4.78489 9.90097C4.78568 8.68602 4.78489 7.47067 4.78528 6.25533C3.64541 5.82793 2.50202 5.40952 1.36097 4.98446C1.15841 4.91016 1.01764 4.71777 0.984009 4.50739V4.38617C1.00825 4.16211 1.16115 3.95681 1.37739 3.88525C4.43843 2.77588 7.50065 1.66924 10.5609 0.558303ZM3.27705 4.44522C5.75506 5.36103 8.23267 6.27879 10.7099 7.19812C13.2638 6.27879 15.818 5.35946 18.3699 4.43544C15.8571 3.52745 13.3463 2.6136 10.8327 1.70717C8.31518 2.62259 5.79494 3.53097 3.27705 4.44522ZM5.95801 6.69055C5.9584 7.75691 5.9584 8.82366 5.95801 9.89042C6.31972 10.242 6.78466 10.4629 7.25351 10.6338C8.04302 10.9134 8.87593 11.0518 9.70845 11.121C10.5945 11.191 11.4885 11.1734 12.3698 11.0588C13.028 10.972 13.6818 10.8285 14.302 10.5884C14.7376 10.4179 15.1599 10.1962 15.5107 9.88259C15.5075 8.82797 15.5107 7.77334 15.5091 6.71832C13.9919 7.25991 12.4782 7.81127 10.9617 8.3552C10.8123 8.41034 10.6442 8.4295 10.4937 8.36811C8.98151 7.80931 7.47171 7.24505 5.95801 6.69055ZM17.8037 12.6398C18.1005 12.9378 18.3985 13.2346 18.6961 13.5325C18.9944 13.2353 19.2912 12.937 19.5892 12.6398C19.2916 12.3418 18.994 12.0439 18.6961 11.7467C18.3985 12.0443 18.1005 12.3414 17.8037 12.6398Z" fill="#5F6B7A"/>
</svg>
