<svg width="20" height="20" viewBox="0 0 20 20" fill="none" xmlns="http://www.w3.org/2000/svg">
<path d="M7.98707 0.269226H8.16834C9.24346 0.294912 10.3175 0.545163 11.2778 1.03392C13.1194 1.94686 14.5296 3.69385 15.0132 5.69403C15.4612 7.42781 15.2073 9.32891 14.3307 10.8891C14.1017 11.3144 13.8144 11.7045 13.5095 12.0776C13.8584 12.4262 14.2063 12.7767 14.5578 13.123C15.1651 12.8321 15.9386 12.9554 16.4167 13.432C17.2045 14.2103 17.9832 14.9974 18.7677 15.7789C19.0422 16.0674 19.3698 16.3235 19.5419 16.6922C19.6461 16.8996 19.6924 17.1304 19.7104 17.3604V17.443C19.6905 17.9138 19.4755 18.3765 19.1064 18.6733C18.822 18.9174 18.4499 19.0392 18.079 19.0564H18.0221C17.5928 19.0377 17.1767 18.8586 16.8736 18.5534C16.0579 17.7424 15.2462 16.9267 14.432 16.114C14.2136 15.8898 13.9678 15.6817 13.8184 15.401C13.5638 14.9445 13.5594 14.3728 13.7766 13.901C13.4277 13.5531 13.0794 13.2045 12.7305 12.8566C12.0619 13.4166 11.302 13.8698 10.4789 14.1618C9.39831 14.542 8.22301 14.6752 7.08844 14.5035C5.1877 14.2521 3.41796 13.1803 2.29881 11.6263C1.43137 10.455 0.95985 9.00784 0.923157 7.55367V7.29608C0.947742 6.45506 1.10736 5.61587 1.41632 4.83246C2.07791 3.11813 3.43154 1.68524 5.10441 0.924943C6.00487 0.506635 6.99597 0.293811 7.98707 0.269226ZM7.51152 1.39976C6.63784 1.48672 5.78031 1.75532 5.02515 2.20519C3.61391 3.02346 2.56227 4.43727 2.19276 6.02721C1.86435 7.39222 2.03167 8.87354 2.66794 10.1266C3.41723 11.6425 4.83361 12.8133 6.46685 13.2548C7.12073 13.4393 7.80727 13.5065 8.48464 13.4588C10.2375 13.3568 11.917 12.4273 12.9477 11.008C13.9223 9.70943 14.3215 8.00133 14.0397 6.40369C13.8159 5.05005 13.1036 3.78449 12.0692 2.88402C10.8422 1.78541 9.14916 1.24308 7.51152 1.39976ZM15.0866 14.0962C14.7655 14.196 14.6125 14.6198 14.8 14.9005C14.9325 15.0847 15.1134 15.2274 15.2682 15.3922C15.5273 15.1331 15.7863 14.8741 16.045 14.6143C15.9287 14.4972 15.812 14.3805 15.6957 14.2639C15.5482 14.0951 15.3005 14.0162 15.0866 14.0962ZM16.0461 16.1723C16.5822 16.7069 17.1165 17.2434 17.6529 17.778C17.7924 17.9244 18.0114 17.9923 18.2074 17.9332C18.4393 17.8727 18.6117 17.6444 18.607 17.4052C18.6114 17.2416 18.5281 17.0896 18.4118 16.9799C17.8819 16.4512 17.3535 15.9213 16.824 15.3929C16.565 15.6531 16.3041 15.9114 16.0461 16.1723Z" fill="#5F6B7A"/>
<path d="M7.71076 3.05466C8.29859 2.95045 8.92459 3.10529 9.39977 3.46563C9.89477 3.83477 10.2217 4.4204 10.2702 5.03649C10.3274 5.65441 10.1025 6.28774 9.67534 6.73651C10.3777 7.1372 10.9409 7.78852 11.1967 8.55908C11.4253 9.16967 11.3761 9.83126 11.3809 10.4705C11.3776 10.644 11.4025 10.8315 11.3126 10.9893C11.2146 11.1761 11.0029 11.2891 10.7934 11.2774C8.98257 11.2774 7.1721 11.2774 5.36163 11.2774C5.15284 11.2884 4.94259 11.1757 4.84461 10.99C4.75398 10.8319 4.7793 10.6437 4.776 10.4697C4.78113 9.83236 4.73196 9.1726 4.95873 8.56385C5.21192 7.78962 5.77847 7.13977 6.48042 6.73614C6.12486 6.35746 5.90359 5.85366 5.88121 5.3337C5.85296 4.80825 6.02212 4.27546 6.35016 3.86375C6.68224 3.43774 7.1776 3.14309 7.71076 3.05466ZM7.87258 4.14519C7.56435 4.20354 7.28621 4.40058 7.12953 4.67212C6.94643 4.97924 6.93285 5.37737 7.08844 5.69807C7.29942 6.15381 7.84579 6.4169 8.33345 6.29068C8.86882 6.17399 9.25337 5.61331 9.16493 5.07134C9.09705 4.46957 8.46518 4.01493 7.87258 4.14519ZM6.88625 7.77787C6.39529 8.09344 6.03826 8.61082 5.92341 9.18324C5.85479 9.50982 5.88268 9.8452 5.87681 10.1765C7.34456 10.1765 8.81231 10.1765 10.2801 10.1765C10.2753 9.79126 10.3083 9.39607 10.1935 9.02216C9.98651 8.27544 9.35501 7.66669 8.60022 7.48909C8.02156 7.34526 7.38529 7.45093 6.88625 7.77787Z" fill="#5F6B7A"/>
</svg>
