<svg xmlns="http://www.w3.org/2000/svg" width="21.86" height="23.011" viewBox="30.898 869.431 21.86 23.011"><g data-name="Home"><g data-name="Group 1046"><path d="M38.532 891.03v-3.517c0-.899.733-1.627 1.638-1.627h3.307c.434 0 .851.171 1.158.476.307.305.48.72.48 1.15v3.518c-.003.374.145.733.41.997.265.265.625.415 1.001.415h2.256a3.983 3.983 0 0 0 2.812-1.15 3.923 3.923 0 0 0 1.165-2.788v-10.022c0-.846-.377-1.646-1.03-2.188l-7.675-6.086a3.565 3.565 0 0 0-4.543.082l-7.5 6.004a2.846 2.846 0 0 0-1.113 2.188v10.012c0 2.18 1.78 3.948 3.977 3.948h2.205c.78 0 1.416-.626 1.421-1.402l.031-.01Z" fill-rule="evenodd" data-name="Home_2"/></g></g></svg>