<svg width="24" height="25" viewBox="0 0 24 25" fill="none" xmlns="http://www.w3.org/2000/svg">
<path d="M9.98707 3.26923H10.1683C11.2435 3.29491 12.3175 3.54516 13.2778 4.03392C15.1194 4.94686 16.5296 6.69385 17.0132 8.69403C17.4612 10.4278 17.2073 12.3289 16.3307 13.8891C16.1017 14.3144 15.8144 14.7045 15.5095 15.0776C15.8584 15.4262 16.2063 15.7767 16.5578 16.123C17.1651 15.8321 17.9386 15.9554 18.4167 16.432C19.2045 17.2103 19.9832 17.9974 20.7677 18.7789C21.0422 19.0674 21.3698 19.3235 21.5419 19.6922C21.6461 19.8996 21.6924 20.1304 21.7104 20.3604V20.443C21.6905 20.9138 21.4755 21.3765 21.1064 21.6733C20.822 21.9174 20.4499 22.0392 20.079 22.0564H20.0221C19.5928 22.0377 19.1767 21.8586 18.8736 21.5534C18.0579 20.7424 17.2462 19.9267 16.432 19.114C16.2136 18.8898 15.9678 18.6817 15.8184 18.401C15.5638 17.9445 15.5594 17.3728 15.7766 16.901C15.4277 16.5531 15.0794 16.2045 14.7305 15.8566C14.0619 16.4166 13.302 16.8698 12.4789 17.1618C11.3983 17.542 10.223 17.6752 9.08844 17.5035C7.1877 17.2521 5.41796 16.1803 4.29881 14.6263C3.43137 13.455 2.95985 12.0078 2.92316 10.5537V10.2961C2.94774 9.45506 3.10736 8.61587 3.41632 7.83246C4.07791 6.11813 5.43154 4.68524 7.10441 3.92494C8.00487 3.50663 8.99597 3.29381 9.98707 3.26923ZM9.51152 4.39976C8.63784 4.48672 7.78031 4.75532 7.02515 5.20519C5.61391 6.02346 4.56227 7.43727 4.19276 9.02721C3.86435 10.3922 4.03167 11.8735 4.66794 13.1266C5.41723 14.6425 6.83361 15.8133 8.46685 16.2548C9.12073 16.4393 9.80727 16.5065 10.4846 16.4588C12.2375 16.3568 13.917 15.4273 14.9477 14.008C15.9223 12.7094 16.3215 11.0013 16.0397 9.40369C15.8159 8.05005 15.1036 6.78449 14.0692 5.88402C12.8422 4.78541 11.1492 4.24308 9.51152 4.39976ZM17.0866 17.0962C16.7655 17.196 16.6125 17.6198 16.8 17.9005C16.9325 18.0847 17.1134 18.2274 17.2682 18.3922C17.5273 18.1331 17.7863 17.8741 18.045 17.6143C17.9287 17.4972 17.812 17.3805 17.6957 17.2639C17.5482 17.0951 17.3005 17.0162 17.0866 17.0962ZM18.0461 19.1723C18.5822 19.7069 19.1165 20.2434 19.6529 20.778C19.7924 20.9244 20.0114 20.9923 20.2074 20.9332C20.4393 20.8727 20.6117 20.6444 20.607 20.4052C20.6114 20.2416 20.5281 20.0896 20.4118 19.9799C19.8819 19.4512 19.3535 18.9213 18.824 18.3929C18.565 18.6531 18.3041 18.9114 18.0461 19.1723Z" fill="#5F6B7A"/>
<path d="M9.71076 6.05466C10.2986 5.95045 10.9246 6.10529 11.3998 6.46563C11.8948 6.83477 12.2217 7.4204 12.2702 8.03649C12.3274 8.65441 12.1025 9.28774 11.6753 9.73651C12.3777 10.1372 12.9409 10.7885 13.1967 11.5591C13.4253 12.1697 13.3761 12.8313 13.3809 13.4705C13.3776 13.644 13.4025 13.8315 13.3126 13.9893C13.2146 14.1761 13.0029 14.2891 12.7934 14.2774C10.9826 14.2774 9.1721 14.2774 7.36163 14.2774C7.15284 14.2884 6.94259 14.1757 6.84461 13.99C6.75398 13.8319 6.7793 13.6437 6.776 13.4697C6.78113 12.8324 6.73196 12.1726 6.95873 11.5639C7.21192 10.7896 7.77847 10.1398 8.48042 9.73614C8.12486 9.35746 7.90359 8.85366 7.88121 8.3337C7.85296 7.80825 8.02212 7.27546 8.35016 6.86375C8.68224 6.43774 9.1776 6.14309 9.71076 6.05466ZM9.87258 7.14519C9.56435 7.20354 9.28621 7.40058 9.12953 7.67212C8.94643 7.97924 8.93285 8.37737 9.08844 8.69807C9.29942 9.15381 9.84579 9.4169 10.3335 9.29068C10.8688 9.17399 11.2534 8.61331 11.1649 8.07134C11.0971 7.46957 10.4652 7.01493 9.87258 7.14519ZM8.88625 10.7779C8.39529 11.0934 8.03826 11.6108 7.92341 12.1832C7.85479 12.5098 7.88268 12.8452 7.87681 13.1765C9.34456 13.1765 10.8123 13.1765 12.2801 13.1765C12.2753 12.7913 12.3083 12.3961 12.1935 12.0222C11.9865 11.2754 11.355 10.6667 10.6002 10.4891C10.0216 10.3453 9.38529 10.4509 8.88625 10.7779Z" fill="#5F6B7A"/>
</svg>
