<svg xmlns="http://www.w3.org/2000/svg" width="16" height="19.5" viewBox="335.75 272.648 16 19.5"><path d="M343.686 292.147a4.675 4.675 0 0 1-3.488-1.576h6.976a4.608 4.608 0 0 1-3.488 1.576Zm8.064-2.193h-16v-1.917c1.298-.282 2.24-1.425 2.24-2.719v-5.562c0-2.84 2.201-5.219 5.12-5.532v-.958a.63.63 0 0 1 .64-.618.63.63 0 0 1 .64.618v.958c2.918.313 5.12 2.691 5.12 5.532v5.562c0 1.294.942 2.437 2.24 2.72v1.915Zm-8-14.468-.495.06c-2.186.247-3.835 2.07-3.835 4.24v5.49a3.91 3.91 0 0 1-1.886 3.354c.024.032 3.238.047 6.216.047 2.976 0 6.19-.015 6.216-.046a3.914 3.914 0 0 1-1.887-3.355v-5.49c0-2.17-1.648-3.993-3.834-4.24l-.495-.06Z" fill="#a8a8a8" fill-rule="evenodd" data-name="Icon Notification"/></svg>