<svg xmlns="http://www.w3.org/2000/svg" width="25" height="25" viewBox="338 591 25 25"><g data-name="search-dollar--search-pay-product-currency-query-magnifying-cash-business-money-glass"><path d="M349.538 614.077c6.373 0 11.539-5.166 11.539-11.539 0-6.372-5.166-11.538-11.539-11.538-6.372 0-11.538 5.166-11.538 11.538 0 6.373 5.166 11.539 11.538 11.539Z" stroke-linejoin="round" stroke-linecap="round" stroke-width="1.5" stroke="#000" fill="transparent" data-name="Vector"/><path d="M357.692 610.692 363 616" stroke-linejoin="round" stroke-linecap="round" stroke-width="1.5" stroke="#000" fill="transparent" data-name="Vector_2"/><path d="M343.77 601.286c0-.94.761-1.701 1.7-1.701h8.136c.94 0 1.701.761 1.701 1.7v4.84a1.7 1.7 0 0 1-1.7 1.701h-8.137a1.7 1.7 0 0 1-1.7-1.7v-4.84Z" stroke-linejoin="round" stroke-linecap="round" stroke-width="1.5" stroke="#000" fill="transparent" data-name="Vector_3"/><path d="M347.066 599.192v-.98c0-1.063.861-1.924 1.923-1.924h1.099c1.062 0 1.923.861 1.923 1.923v.981" stroke-linejoin="round" stroke-linecap="round" stroke-width="1.5" stroke="#000" fill="transparent" data-name="Vector_4"/></g></svg>