<svg xmlns="http://www.w3.org/2000/svg" width="24.888" height="24.934" viewBox="67 591 24.888 24.934"><g data-name="global-learning--global-learning-education"><path d="M87.817 604.077c.197-.807.302-1.65.302-2.517 0-5.832-4.728-10.56-10.56-10.56-5.832 0-10.56 4.728-10.56 10.56 0 4.331 2.609 8.054 6.34 9.683" stroke-linejoin="round" stroke-linecap="round" stroke-width="1.5" stroke="#000" fill="transparent" data-name="Vector"/><path d="M67 601.56h21.119" stroke-linejoin="round" stroke-linecap="round" stroke-width="1.5" stroke="#000" fill="transparent" data-name="Vector_2"/><path d="M74.422 606.434a18.226 18.226 0 0 1-.928-4.874c.2-3.862 1.622-7.56 4.062-10.56 2.44 3 3.862 6.698 4.061 10.56-.035.68-.108 1.356-.218 2.023" stroke-linejoin="round" stroke-linecap="round" stroke-width="1.5" stroke="#000" fill="transparent" data-name="Vector_3"/><path d="m84.159 605.726 7.728 3.349-7.728 3.348-7.728-3.348 7.728-3.349Z" stroke-linejoin="round" stroke-linecap="round" stroke-width="1.5" stroke="#000" fill="transparent" data-name="Rectangle 645"/><path d="m79.937 610.602.007 3.643s1.276 1.689 4.214 1.689c2.938 0 4.22-1.689 4.22-1.689v-3.643" stroke-linejoin="round" stroke-linecap="round" stroke-width="1.5" stroke="#000" fill="transparent" data-name="Ellipse 346"/><path d="M76.43 614.965v-5.89" stroke-linejoin="round" stroke-linecap="round" stroke-width="1.5" stroke="#000" fill="transparent" data-name="Ellipse 347"/></g></svg>