<svg width="12" height="16" viewBox="0 0 12 16" fill="none" xmlns="http://www.w3.org/2000/svg">
<path d="M5.89575 0.307617H6.10068C7.177 0.327749 8.24551 0.675406 9.12111 1.30251C10.0355 1.94764 10.7416 2.88304 11.1079 3.94043C11.4396 4.88063 11.4898 5.91038 11.2858 6.88424C11.0196 8.17631 10.4303 9.37432 9.76625 10.5044C8.74672 12.2349 7.50483 13.8181 6.38283 15.4807C6.30801 15.5982 6.18031 15.6739 6.04329 15.6922H5.96156C5.82154 15.6766 5.69173 15.5985 5.61631 15.4789C4.26955 13.4831 2.74371 11.5949 1.64846 9.44013C1.12562 8.39746 0.696235 7.28117 0.606692 6.1087C0.559817 5.46357 0.628326 4.80942 0.81192 4.18863C1.12472 3.12132 1.77917 2.15948 2.65297 1.47198C3.56853 0.743014 4.72628 0.330454 5.89575 0.307617ZM5.64215 1.22408C4.65447 1.2989 3.69894 1.71627 2.96877 2.38454C2.19864 3.08196 1.68001 4.05191 1.53788 5.08196C1.41829 5.88905 1.5508 6.71267 1.8017 7.4825C2.16799 8.60119 2.74401 9.63694 3.36661 10.6312C4.18962 11.938 5.11661 13.1748 6.00002 14.4407C7.18632 12.737 8.46396 11.0856 9.43812 9.24542C9.87743 8.40167 10.2581 7.51375 10.4279 6.57264C10.5667 5.81633 10.5223 5.02456 10.2765 4.2944C9.95164 3.31333 9.27616 2.45395 8.40146 1.90407C7.58806 1.38514 6.60339 1.14536 5.64215 1.22408Z" fill="#5F6B7A"/>
<path d="M5.65448 3.03418C6.28008 2.95245 6.93332 3.09788 7.46217 3.44254C7.98891 3.78028 8.39216 4.30642 8.57905 4.90407C8.76145 5.47799 8.74312 6.11291 8.52797 6.67541C8.32725 7.20516 7.95496 7.6673 7.4811 7.97739C6.98621 8.30522 6.38014 8.45966 5.78849 8.41159C5.1668 8.36531 4.56613 8.09218 4.11992 7.65738C3.70135 7.25413 3.418 6.71297 3.32906 6.13845C3.22719 5.50413 3.36121 4.83496 3.70315 4.29079C4.12323 3.609 4.8588 3.13214 5.65448 3.03418ZM5.71607 3.93562C5.35099 3.99602 5.00514 4.1685 4.74131 4.42841C4.40508 4.75413 4.20436 5.21567 4.19775 5.68382C4.18843 6.1096 4.33927 6.53569 4.61181 6.86291C4.84408 7.14476 5.16319 7.35329 5.51535 7.45125C5.96097 7.58076 6.45496 7.52126 6.86091 7.29831C7.27497 7.07445 7.59348 6.68202 7.72629 6.2304C7.82455 5.90858 7.82845 5.55822 7.73591 5.2346C7.6088 4.76946 7.28488 4.36321 6.86151 4.13394C6.51535 3.94344 6.1058 3.87312 5.71607 3.93562Z" fill="#5F6B7A"/>
</svg>
