<svg xmlns="http://www.w3.org/2000/svg" width="31.655" height="31.394" viewBox="13645.194 -2016.046 31.655 31.394"><g data-name="Multiple Layers (4)"><path d="M13676.85-1996.375h-.499c-10.572 0-19.173-8.6-19.173-19.173v-.498h7.949v.498c0 6.19 5.034 11.225 11.224 11.225h.498v7.948Z" fill="#898989" fill-rule="evenodd" data-name="Path 23"/><path d="M13664.865-1984.652h-7.948v-.498c0-6.19-5.036-11.225-11.225-11.225h-.498v-7.948h.498c10.572 0 19.173 8.601 19.173 19.173v.498Z" fill="#898989" fill-rule="evenodd" data-name="Path 22"/><path d="M13645.692-1996.375h-.498v-7.948h.498c6.19 0 11.225-5.035 11.225-11.225v-.498h7.948v.498c0 10.572-8.601 19.173-19.173 19.173" fill="#ff7000" fill-rule="evenodd" data-name="Path 25"/><path d="M13665.126-1984.652h-7.948v-.498c0-10.572 8.601-19.173 19.173-19.173h.498v7.948h-.498c-6.19 0-11.225 5.035-11.225 11.225v.498Z" fill-rule="evenodd" data-name="Path 24"/></g></svg>