<svg width="20" height="21" viewBox="0 0 20 21" fill="none" xmlns="http://www.w3.org/2000/svg">
<path d="M2.44485 1.5719H11.0005C11.4575 1.59316 11.9072 1.76536 12.2533 2.06584C12.7051 2.44894 12.9745 3.0356 12.9696 3.6282C12.9689 4.74401 12.9714 5.86018 12.9686 6.976C12.97 7.26114 12.718 7.5156 12.4339 7.52048C12.1341 7.53966 11.8524 7.27613 11.8552 6.97495C11.8521 5.84798 11.857 4.72101 11.8528 3.59438C11.8535 3.1109 11.4205 2.68353 10.9374 2.68876C9.34646 2.68667 7.75518 2.68632 6.16424 2.68876C6.50306 2.8024 6.84224 2.9143 7.18141 3.02793C7.39997 3.10253 7.62864 3.16109 7.8221 3.29286C8.24912 3.5644 8.51753 4.06253 8.50777 4.56868C8.50812 8.4031 8.50777 12.2379 8.50777 16.0726C9.33043 16.0716 10.1531 16.0765 10.9757 16.0702C11.4446 16.0563 11.8521 15.6359 11.8528 15.167C11.8573 14.039 11.8517 12.9106 11.8556 11.7823C11.8545 11.4933 12.1135 11.2374 12.4021 11.2399C12.6974 11.227 12.9682 11.4877 12.9682 11.783C12.9717 12.7245 12.9686 13.6664 12.9696 14.6082C12.9651 14.9969 13.0014 15.3974 12.8693 15.7711C12.6218 16.5687 11.8437 17.1634 11.0075 17.186C10.1743 17.1923 9.34088 17.186 8.50777 17.1892C8.48929 17.6378 8.5747 18.1136 8.37844 18.5354C8.16093 19.0394 7.64607 19.3898 7.09914 19.4194H6.94437C6.66759 19.4068 6.41069 19.297 6.1503 19.2137C4.79186 18.7599 3.43204 18.3095 2.0743 17.8543C1.51274 17.6629 1.10106 17.1156 1.07178 16.5234V3.02933C1.08049 2.68249 1.21121 2.33948 1.44232 2.07979C1.694 1.78698 2.0635 1.61234 2.44485 1.5719ZM2.44589 2.70654C2.29252 2.75395 2.18202 2.90837 2.18794 3.06907C2.18655 7.52153 2.18725 11.974 2.18759 16.4261C2.17923 16.598 2.29984 16.7625 2.46472 16.8092C3.94515 17.3021 5.42489 17.7978 6.90603 18.2882C7.13923 18.3667 7.40624 18.1683 7.39195 17.9215C7.39265 13.4708 7.393 9.01974 7.3923 4.56868C7.40241 4.39264 7.27657 4.22671 7.10855 4.17931C5.64589 3.69199 4.18289 3.20432 2.72023 2.71735C2.63239 2.68632 2.53513 2.67691 2.44589 2.70654Z" fill="black"/>
<path d="M15.0198 6.52427C15.0432 6.27747 15.2544 6.06379 15.5015 6.03869C15.6706 6.01569 15.8473 6.07495 15.9673 6.19695C16.9046 7.13081 17.8364 8.06989 18.7754 9.00166C18.848 9.07451 18.8873 9.17177 18.9191 9.26763V9.48863C18.8828 9.64933 18.7734 9.77447 18.6527 9.87939C17.7551 10.7725 16.8624 11.6704 15.9655 12.5635C15.711 12.8378 15.2053 12.7458 15.0644 12.399C14.9707 12.1936 15.0146 11.9326 15.1784 11.775C15.7898 11.1622 16.403 10.5511 17.0141 9.9383C15.1739 9.93795 13.3337 9.93795 11.4935 9.9383C11.3405 9.93726 11.1763 9.95364 11.0383 9.87347C10.8256 9.76436 10.6988 9.51129 10.7486 9.27564C10.7932 9.01177 11.0487 8.80959 11.3158 8.82248C13.2152 8.82214 15.115 8.82318 17.0148 8.82214C16.403 8.20863 15.7891 7.59721 15.1777 6.9837C15.0575 6.86553 14.9989 6.69124 15.0198 6.52427Z" fill="#FF7000"/>
</svg>
