<svg xmlns="http://www.w3.org/2000/svg" width="26.888" height="20.614" viewBox="66 480 26.888 20.614"><g data-name="Icon core-newspaper"><path d="M70.033 480v17.701a1.12 1.12 0 1 1-2.24 0v-13.22H66v13.22a2.916 2.916 0 0 0 2.913 2.913h21.062a2.916 2.916 0 0 0 2.913-2.913v-17.7H70.033Zm21.062 17.701c0 .619-.502 1.12-1.12 1.12H71.602c.148-.354.224-.735.224-1.12v-15.908h19.27V497.7Z" fill-rule="evenodd" data-name="Path 60"/><path d="M81.685 483.585h-8.067v8.963h8.067v-8.963Zm-1.793 7.17h-4.481v-5.377h4.481v5.377Zm3.585-7.17h5.826v1.793h-5.826v-1.793Zm0 3.585h5.826v1.793h-5.826v-1.793Zm0 3.585h5.826v1.793h-5.826v-1.793Z" fill-rule="evenodd" data-name="Path 61"/></g></svg>