<svg width="20" height="20" viewBox="0 0 20 20" fill="none" xmlns="http://www.w3.org/2000/svg">
<path d="M8.6244 15.1225C8.7416 15.2396 8.90055 15.3055 9.06627 15.3055C9.232 15.3055 9.39094 15.2396 9.50815 15.1225L13.5619 11.0687C13.6203 11.0106 13.6665 10.9414 13.6978 10.8652C13.7291 10.789 13.745 10.7074 13.7444 10.625C13.7448 10.5426 13.7289 10.461 13.6976 10.3848C13.6662 10.3087 13.6201 10.2395 13.5619 10.1812L9.50815 6.12747C9.39027 6.01362 9.2324 5.95063 9.06852 5.95205C8.90465 5.95347 8.74789 6.0192 8.63201 6.13508C8.51613 6.25096 8.4504 6.40772 8.44898 6.5716C8.44755 6.73547 8.51055 6.89335 8.6244 7.01122L12.2381 10.625L8.6244 14.2387C8.50723 14.3559 8.44141 14.5149 8.44141 14.6806C8.44141 14.8463 8.50723 15.0053 8.6244 15.1225Z" fill="#FF7000"/>
</svg>
