<svg xmlns="http://www.w3.org/2000/svg" width="372.116" height="361.828" viewBox="0 0 372.116 361.828">
  <g id="Group_58356" data-name="Group 58356" transform="translate(-18.302 -26.316)">
    <g id="Background_Complete" data-name="Background Complete" transform="translate(28.317 25.014)">
      <g id="Group_58134" data-name="Group 58134" transform="translate(270.352 1.302)">
        <g id="Group_58131" data-name="Group 58131" transform="translate(3.928)">
          <path id="Path_5351" data-name="Path 5351" d="M371.489,27.814,367.245,72.5a2.861,2.861,0,0,0,2.255,3.214l71.562,10.816a2.884,2.884,0,0,0,3.137-2.587l5.216-34.508a2.881,2.881,0,0,0-2.25-3.4l-44.058-6.335a2.579,2.579,0,0,1-1.771-1.148l-6.38-9.555a2.581,2.581,0,0,0-1.754-1.145l-18.554-2.8A2.907,2.907,0,0,0,371.489,27.814Z" transform="translate(-367.23 -25.014)" fill="#d9d9d9"/>
        </g>
        <g id="Group_58132" data-name="Group 58132" transform="translate(1.295 4.37)">
          <rect id="Rectangle_120" data-name="Rectangle 120" width="79.078" height="52.676" transform="translate(7.872 0) rotate(8.595)" fill="#e8e8e9"/>
        </g>
        <g id="Group_58133" data-name="Group 58133" transform="translate(0 6.186)">
          <path id="Path_5352" data-name="Path 5352" d="M364.618,34.574l-2.239,55.217a1.825,1.825,0,0,0,1.458,1.95l76.2,11.517a1.836,1.836,0,0,0,1.989-1.513L454.072,48.01a1.874,1.874,0,0,0-1.407-2.336l-86.008-13A1.882,1.882,0,0,0,364.618,34.574Z" transform="translate(-362.377 -32.657)" fill="#f1f1f1"/>
        </g>
      </g>
      <g id="Group_58138" data-name="Group 58138" transform="translate(137.67 296.835)">
        <g id="Group_58135" data-name="Group 58135" transform="translate(5.178)">
          <path id="Path_5353" data-name="Path 5353" d="M214.606,372.577l-9.673,31.034a2.124,2.124,0,0,0,1.207,2.653L257.731,425.7a2.133,2.133,0,0,0,2.709-1.322l8.909-23.649a2.131,2.131,0,0,0-1.175-2.785l-31.81-11.738a2.007,2.007,0,0,1-1.148-1.106l-3.346-7.833a2.009,2.009,0,0,0-1.135-1.1l-13.376-5.039A2.142,2.142,0,0,0,214.606,372.577Z" transform="translate(-204.828 -371)" fill="#d9d9d9"/>
        </g>
        <g id="Group_58136" data-name="Group 58136" transform="translate(2.007 2.852)">
          <rect id="Rectangle_121" data-name="Rectangle 121" width="60.239" height="38.144" transform="translate(13.448 0) rotate(20.644)" fill="#e8e8e9"/>
        </g>
        <g id="Group_58137" data-name="Group 58137" transform="translate(0 3.27)">
          <path id="Path_5354" data-name="Path 5354" d="M208.193,376.136l-9.72,38.844a1.36,1.36,0,0,0,.8,1.624l54.936,20.7a1.364,1.364,0,0,0,1.7-.749l16.79-36.18a1.379,1.379,0,0,0-.7-1.891l-62.006-23.361A1.383,1.383,0,0,0,208.193,376.136Z" transform="translate(-198.429 -375.04)" fill="#f1f1f1"/>
        </g>
      </g>
      <g id="Group_58142" data-name="Group 58142" transform="translate(-10.015 26.329)">
        <g id="Group_58139" data-name="Group 58139" transform="translate(4.456)">
          <path id="Path_5355" data-name="Path 5355" d="M43.695,51.419l2.171,35.165a2.375,2.375,0,0,0,2.37,2.23h63.309a2.375,2.375,0,0,0,2.375-2.375V59.053a2.376,2.376,0,0,0-2.391-2.375l-38.934.251a2.377,2.377,0,0,1-1.682-.683L64.146,49.58a2.373,2.373,0,0,0-1.666-.683H46.066A2.376,2.376,0,0,0,43.695,51.419Z" transform="translate(-43.69 -48.897)" fill="#d9d9d9"/>
        </g>
        <g id="Group_58140" data-name="Group 58140" transform="translate(5.514 3.624)">
          <rect id="Rectangle_122" data-name="Rectangle 122" width="69.172" height="41.334" fill="#e8e8e9"/>
        </g>
        <g id="Group_58141" data-name="Group 58141" transform="translate(0 5.62)">
          <path id="Path_5356" data-name="Path 5356" d="M38.2,57.554l5.281,43.1A1.527,1.527,0,0,0,44.993,102h67.413a1.527,1.527,0,0,0,1.522-1.407l3.394-43.1a1.528,1.528,0,0,0-1.523-1.648H39.711A1.527,1.527,0,0,0,38.2,57.554Z" transform="translate(-38.184 -55.841)" fill="#f1f1f1"/>
        </g>
      </g>
      <g id="Group_58180" data-name="Group 58180" transform="translate(0 221.843)">
        <g id="Group_58158" data-name="Group 58158">
          <g id="Group_58143" data-name="Group 58143">
            <path id="Path_5357" data-name="Path 5357" d="M48.142,299.152s-5.129-.37-4.657,11.137a133.223,133.223,0,0,0,1.646,17.635s-.151,2.552-2.127,2.051-5.693-2.984-7.53-1.127c-1.9,1.924-1.227,4.877,1.3,8.355s7.779,11.3,8.252,12.009.65,2-.751,1.876-10.855-3.33-12.107,1.247,7.375,13.11,8.3,14.061.975,1.551.6,2.126-3.452-.8-6.178-1.6-6.028-1.253-6.529,1.449,3.3,10.607,17.53,18.916l6.846,3.418,6.481-4.133c13.328-9.69,16.319-17.936,15.55-20.575s-4.009-1.858-6.642-.788-5.556,2.748-5.986,2.213-.442-1.137.384-2.176,8.557-10.391,6.853-14.82-10.79-.3-12.171-.03-1.327-1.053-.935-1.792,4.844-9.062,7.008-12.774,2.544-6.719.456-8.443c-2.013-1.663-5.463,1.179-7.378,1.875s-2.322-1.827-2.322-1.827a133.33,133.33,0,0,0-.125-17.712c-.681-11.5-5.871-10.569-5.871-10.569" transform="translate(-28.317 -299.133)" fill="#ebebeb"/>
          </g>
          <g id="Group_58145" data-name="Group 58145" transform="translate(20.228 10.324)">
            <g id="Group_58144" data-name="Group 58144">
              <path id="Path_5358" data-name="Path 5358" d="M53.314,311.89s.014.081.028.24.031.405.054.706c.043.634.105,1.547.185,2.718.157,2.36.359,5.777.592,10,.469,8.445,1.017,20.116,1.581,33.008s1.083,24.569,1.5,33.014c.214,4.215.388,7.629.509,10,.058,1.171.1,2.086.135,2.719.012.3.021.537.028.707s0,.242,0,.242-.014-.081-.028-.24-.032-.4-.055-.706c-.043-.634-.1-1.547-.184-2.717-.157-2.36-.359-5.776-.592-10-.469-8.445-1.018-20.117-1.581-33.013s-1.083-24.563-1.5-33.009c-.214-4.214-.388-7.629-.509-10l-.135-2.72c-.012-.3-.022-.537-.028-.708S53.314,311.89,53.314,311.89Z" transform="translate(-53.312 -311.89)" fill="#e0e0e0"/>
            </g>
          </g>
          <g id="Group_58147" data-name="Group 58147" transform="translate(12.217 33.396)">
            <g id="Group_58146" data-name="Group 58146">
              <path id="Path_5359" data-name="Path 5359" d="M43.414,340.4a2.253,2.253,0,0,1,.426.354c.264.24.634.6,1.086,1.044.9.894,2.119,2.163,3.433,3.589l3.349,3.664,1.019,1.1a2.314,2.314,0,0,1,.357.424,2.22,2.22,0,0,1-.429-.351c-.263-.24-.634-.6-1.081-1.05-.9-.9-2.093-2.189-3.407-3.614l-3.373-3.638-1.025-1.1A2.249,2.249,0,0,1,43.414,340.4Z" transform="translate(-43.413 -340.399)" fill="#e0e0e0"/>
            </g>
          </g>
          <g id="Group_58149" data-name="Group 58149" transform="translate(22.565 31.822)">
            <g id="Group_58148" data-name="Group 58148">
              <path id="Path_5360" data-name="Path 5360" d="M56.2,349.982c-.052-.05,2.452-2.672,5.591-5.855s5.727-5.723,5.779-5.672-2.452,2.672-5.592,5.856S56.252,350.033,56.2,349.982Z" transform="translate(-56.2 -338.454)" fill="#e0e0e0"/>
            </g>
          </g>
          <g id="Group_58151" data-name="Group 58151" transform="translate(22.537 55.704)">
            <g id="Group_58150" data-name="Group 58150">
              <path id="Path_5361" data-name="Path 5361" d="M56.166,375.45a2.318,2.318,0,0,1,.477-.3l1.339-.752c1.13-.635,2.688-1.517,4.371-2.552s3.181-2.018,4.258-2.739l1.277-.852a2.352,2.352,0,0,1,.486-.287,2.32,2.32,0,0,1-.426.371c-.286.224-.7.541-1.232.921-1.051.762-2.535,1.775-4.226,2.81s-3.266,1.9-4.42,2.492c-.579.295-1.05.528-1.381.679A2.357,2.357,0,0,1,56.166,375.45Z" transform="translate(-56.166 -367.963)" fill="#e0e0e0"/>
            </g>
          </g>
          <g id="Group_58153" data-name="Group 58153" transform="translate(11.196 56.246)">
            <g id="Group_58152" data-name="Group 58152">
              <path id="Path_5362" data-name="Path 5362" d="M42.152,368.635a1.974,1.974,0,0,1,.473.222c.3.158.719.394,1.241.69,1.042.592,2.473,1.426,4.045,2.361s2.988,1.793,4.006,2.426c.509.317.919.577,1.2.762a1.979,1.979,0,0,1,.421.31,2.018,2.018,0,0,1-.473-.222c-.3-.158-.719-.394-1.241-.69-1.042-.592-2.473-1.426-4.046-2.361s-2.987-1.793-4.005-2.427c-.509-.316-.919-.576-1.2-.761A2.017,2.017,0,0,1,42.152,368.635Z" transform="translate(-42.151 -368.633)" fill="#e0e0e0"/>
            </g>
          </g>
          <g id="Group_58155" data-name="Group 58155" transform="translate(8.945 73.758)">
            <g id="Group_58154" data-name="Group 58154">
              <path id="Path_5363" data-name="Path 5363" d="M39.371,390.273a3.156,3.156,0,0,1,.6.291l1.593.879c1.34.752,3.181,1.806,5.208,2.985s3.853,2.26,5.169,3.053l1.551.951a3.34,3.34,0,0,1,.551.38,3.268,3.268,0,0,1-.6-.291l-1.593-.879c-1.34-.752-3.181-1.807-5.208-2.986s-3.853-2.258-5.169-3.051l-1.551-.951A3.34,3.34,0,0,1,39.371,390.273Z" transform="translate(-39.371 -390.271)" fill="#e0e0e0"/>
            </g>
          </g>
          <g id="Group_58157" data-name="Group 58157" transform="translate(23.327 72.076)">
            <g id="Group_58156" data-name="Group 58156">
              <path id="Path_5364" data-name="Path 5364" d="M57.141,398.111a3.849,3.849,0,0,1,.6-.4L59.4,396.7c1.4-.856,3.34-2.044,5.441-3.415s3.976-2.655,5.325-3.595l1.6-1.112a3.691,3.691,0,0,1,.605-.383,3.885,3.885,0,0,1-.545.465c-.361.286-.89.691-1.552,1.18-1.323.98-3.183,2.294-5.29,3.665s-4.06,2.539-5.49,3.355c-.716.406-1.3.729-1.708.942A3.633,3.633,0,0,1,57.141,398.111Z" transform="translate(-57.141 -388.194)" fill="#e0e0e0"/>
            </g>
          </g>
        </g>
        <g id="Group_58179" data-name="Group 58179" transform="translate(14.676 93.809)">
          <g id="Group_58160" data-name="Group 58160">
            <g id="Group_58159" data-name="Group 58159">
              <path id="Path_5365" data-name="Path 5365" d="M65.392,415.048H46.452l6.182,46.795H59.21Z" transform="translate(-46.452 -415.048)" fill="#e0e0e0"/>
            </g>
          </g>
          <g id="Group_58163" data-name="Group 58163" transform="translate(0.982 3.823)">
            <g id="Group_58162" data-name="Group 58162">
              <g id="Group_58161" data-name="Group 58161">
                <path id="Path_5366" data-name="Path 5366" d="M47.666,421.7c-.007,0,.021.066.1.167a1.206,1.206,0,0,0,.457.326,2.292,2.292,0,0,0,2-.245,15.259,15.259,0,0,1,2.455-1.617,5.38,5.38,0,0,1,3.483.07,14.9,14.9,0,0,1,3.243,1.571,22.414,22.414,0,0,0,2.637,1.415,7.289,7.289,0,0,0,1.946.562,3.527,3.527,0,0,0,.55.037c.125,0,.192-.006.192-.016a9.84,9.84,0,0,1-2.6-.783,25.944,25.944,0,0,1-2.579-1.459,14.383,14.383,0,0,0-3.3-1.623,5.56,5.56,0,0,0-3.676-.04,4.843,4.843,0,0,0-1.384.855,10.763,10.763,0,0,1-1.084.84,2.229,2.229,0,0,1-1.845.32A1.909,1.909,0,0,1,47.666,421.7Z" transform="translate(-47.665 -419.772)" fill="#f5f5f5"/>
              </g>
            </g>
          </g>
          <g id="Group_58166" data-name="Group 58166" transform="translate(1.672 10.936)">
            <g id="Group_58165" data-name="Group 58165">
              <g id="Group_58164" data-name="Group 58164">
                <path id="Path_5367" data-name="Path 5367" d="M48.52,432c.025.016.151-.193.447-.5a4.211,4.211,0,0,1,1.513-.96,6.751,6.751,0,0,1,2.633-.4,27.713,27.713,0,0,1,3.3.449,11.327,11.327,0,0,0,3.375.14,9.282,9.282,0,0,0,2.654-.758,8.393,8.393,0,0,0,1.6-.949,2.25,2.25,0,0,0,.506-.455,16.814,16.814,0,0,1-2.189,1.2,9.657,9.657,0,0,1-2.6.676,11.636,11.636,0,0,1-3.292-.162,24.858,24.858,0,0,0-3.336-.429,6.666,6.666,0,0,0-2.724.479,3.979,3.979,0,0,0-1.521,1.081,2.718,2.718,0,0,0-.286.42C48.535,431.935,48.511,431.991,48.52,432Z" transform="translate(-48.518 -428.562)" fill="#f5f5f5"/>
              </g>
            </g>
          </g>
          <g id="Group_58169" data-name="Group 58169" transform="translate(2.746 17.678)">
            <g id="Group_58168" data-name="Group 58168">
              <g id="Group_58167" data-name="Group 58167">
                <path id="Path_5368" data-name="Path 5368" d="M63.893,438.2a1.616,1.616,0,0,0-.522-.27,5.556,5.556,0,0,0-1.569-.337,10.013,10.013,0,0,0-2.374.135c-.883.143-1.83.387-2.824.6a11.924,11.924,0,0,1-2.82.319,6.152,6.152,0,0,1-2.239-.484,5.173,5.173,0,0,1-1.7-1.265,1.473,1.473,0,0,0,.32.494,3.99,3.99,0,0,0,1.286.968,6.038,6.038,0,0,0,2.319.571,11.4,11.4,0,0,0,2.9-.3c1.005-.214,1.945-.465,2.809-.62a10.872,10.872,0,0,1,2.312-.2A8.775,8.775,0,0,1,63.893,438.2Z" transform="translate(-49.845 -436.892)" fill="#f5f5f5"/>
              </g>
            </g>
          </g>
          <g id="Group_58172" data-name="Group 58172" transform="translate(3.347 24.374)">
            <g id="Group_58171" data-name="Group 58171">
              <g id="Group_58170" data-name="Group 58170">
                <path id="Path_5369" data-name="Path 5369" d="M50.588,446.267a3.068,3.068,0,0,1,1.839-.185,8.922,8.922,0,0,1,1.924.717,7.3,7.3,0,0,0,2.5.688,7.494,7.494,0,0,0,4.531-1.05,6.428,6.428,0,0,0,1.127-.868c.231-.245.349-.386.334-.4a16.686,16.686,0,0,1-1.571,1.079,7.763,7.763,0,0,1-4.394.931c-1.793-.1-3.169-1.172-4.412-1.313a2.813,2.813,0,0,0-1.428.124A.94.94,0,0,0,50.588,446.267Z" transform="translate(-50.587 -445.166)" fill="#f5f5f5"/>
              </g>
            </g>
          </g>
          <g id="Group_58175" data-name="Group 58175" transform="translate(4.403 31.84)">
            <g id="Group_58174" data-name="Group 58174">
              <g id="Group_58173" data-name="Group 58173">
                <path id="Path_5370" data-name="Path 5370" d="M51.892,457.007a3.619,3.619,0,0,0,1.579-.314c.952-.318,2.13-1.048,3.507-1.594a5.7,5.7,0,0,1,2.013-.422,3.712,3.712,0,0,1,1.619.369,3.562,3.562,0,0,1,1.169,1.01.851.851,0,0,0-.18-.4,2.6,2.6,0,0,0-.887-.8,3.715,3.715,0,0,0-1.717-.461,5.631,5.631,0,0,0-2.127.418c-1.426.568-2.567,1.32-3.476,1.68C52.493,456.878,51.885,456.958,51.892,457.007Z" transform="translate(-51.892 -454.391)" fill="#f5f5f5"/>
              </g>
            </g>
          </g>
          <g id="Group_58178" data-name="Group 58178" transform="translate(5.331 38.624)">
            <g id="Group_58177" data-name="Group 58177">
              <g id="Group_58176" data-name="Group 58176">
                <path id="Path_5371" data-name="Path 5371" d="M53.039,462.785a4.472,4.472,0,0,0,1.2.389,22.066,22.066,0,0,0,6.037.593,4.419,4.419,0,0,0,1.253-.149c0-.093-1.92-.011-4.262-.247S53.062,462.695,53.039,462.785Z" transform="translate(-53.039 -462.773)" fill="#f5f5f5"/>
              </g>
            </g>
          </g>
        </g>
      </g>
    </g>
    <g id="Window" transform="translate(68.422 92.954)">
      <g id="Group_58181" data-name="Group 58181" transform="translate(0.211 0.21)">
        <rect id="Rectangle_123" data-name="Rectangle 123" width="268.548" height="236.17" fill="#fff"/>
      </g>
      <g id="Group_58183" data-name="Group 58183" transform="translate(0 0)">
        <g id="Group_58182" data-name="Group 58182">
          <path id="Path_5372" data-name="Path 5372" d="M366.442,307.931c0-1.5-.07-94.022-.178-236.171l.178.178L97.92,71.971H97.9l.21-.21c-.009,85.832-.018,166.653-.025,236.171l-.185-.186,268.547.186L97.9,308.117h-.186v-.186c-.007-69.518-.016-150.338-.025-236.171v-.21h.236l268.523.032h.179v.178C366.514,213.909,366.444,306.431,366.442,307.931Z" transform="translate(-97.684 -71.55)" fill="#263238"/>
        </g>
      </g>
      <g id="Group_58238" data-name="Group 58238" transform="translate(47.545 56.96)">
        <g id="Group_58184" data-name="Group 58184" transform="translate(10.36)">
          <path id="Path_5373" data-name="Path 5373" d="M169.234,145.583V187.94h51.484V145.583a3.651,3.651,0,0,0-3.651-3.651H172.885A3.651,3.651,0,0,0,169.234,145.583Z" transform="translate(-169.234 -141.932)" fill="#fb940c"/>
        </g>
        <g id="Group_58185" data-name="Group 58185" transform="translate(0 44.505)">
          <path id="Path_5374" data-name="Path 5374" d="M156.455,228.556l11.5-31.632,50.322,1.5-7.5,28.85a2.55,2.55,0,0,1-2.523,1.908l-13.034-.277-2.138,3.04a2.871,2.871,0,0,1-2.47,1.216l-31.5-1.33A2.832,2.832,0,0,1,156.455,228.556Z" transform="translate(-156.432 -196.924)" fill="#fb940c"/>
        </g>
        <g id="Group_58189" data-name="Group 58189" transform="translate(12.947 7.263)">
          <g id="Group_58186" data-name="Group 58186" transform="translate(0.172 0.19)">
            <path id="Path_5375" data-name="Path 5375" d="M172.642,151.142V184.29l45.251,2.491-.2-35.639Z" transform="translate(-172.642 -151.142)" fill="#f5f5f5"/>
          </g>
          <g id="Group_58188" data-name="Group 58188">
            <g id="Group_58187" data-name="Group 58187">
              <path id="Path_5376" data-name="Path 5376" d="M172.6,151.1a1.239,1.239,0,0,1,.2-.011l.617-.011,2.423-.023,9.2-.051,32.61-.095h.189v.189c.064,10.333.137,22.095.214,34.523,0,.376,0,.75.006,1.116l0,.224-.224-.013-45.249-2.531-.162-.01v-.161c.031-10.054.056-18.335.074-24.123.021-2.879.038-5.137.049-6.694q.018-1.129.028-1.748c.008-.391.02-.582.02-.582s.012.216.02.615.015,1,.027,1.751c.011,1.549.028,3.795.049,6.658.018,5.788.043,14.07.074,24.123l-.161-.171,45.253,2.451-.223.212c0-.366,0-.74-.006-1.116-.062-12.428-.121-24.191-.172-34.524l.189.189-32.487-.095-9.245-.05-2.46-.023-.638-.011A1.83,1.83,0,0,1,172.6,151.1Z" transform="translate(-172.43 -150.907)" fill="#263238"/>
            </g>
          </g>
        </g>
        <g id="Group_58193" data-name="Group 58193" transform="translate(15.364 9.675)">
          <g id="Group_58190" data-name="Group 58190" transform="translate(0.121 0.193)">
            <path id="Path_5377" data-name="Path 5377" d="M175.566,159.979c.04-1.1,0-5.844,0-5.844,12.65-.04,26.821.05,39.471.011.354,6.259.428,14.713.783,20.972" transform="translate(-175.566 -154.125)" fill="#ebebeb"/>
          </g>
          <g id="Group_58192" data-name="Group 58192">
            <g id="Group_58191" data-name="Group 58191">
              <path id="Path_5378" data-name="Path 5378" d="M215.791,175.073a1.818,1.818,0,0,1-.053-.395c-.023-.3-.053-.675-.09-1.149-.07-1-.147-2.473-.227-4.326-.173-3.7-.275-8.954-.609-15.09l.2.185-12.162.011c-11.341,0-21.352-.042-27.309-.1l.119-.12c-.023,1.816-.042,3.268-.056,4.309-.012.471-.023.849-.031,1.143a1.838,1.838,0,0,1-.032.393,1.813,1.813,0,0,1-.032-.395c-.008-.294-.019-.672-.032-1.144-.013-1.04-.032-2.49-.056-4.3l0-.119.121,0c5.957-.053,15.967-.087,27.309-.083l12.162.019h.187l.01.185c.3,6.152.351,11.4.456,15.1.048,1.822.087,3.281.115,4.329.011.475.02.855.027,1.152A1.835,1.835,0,0,1,215.791,175.073Z" transform="translate(-175.416 -153.887)" fill="#e0e0e0"/>
            </g>
          </g>
        </g>
        <g id="Group_58197" data-name="Group 58197" transform="translate(6.202 15.525)">
          <g id="Group_58194" data-name="Group 58194" transform="translate(0 0.197)">
            <path id="Path_5379" data-name="Path 5379" d="M164.1,161.507l9.337,27.223h42.831l-6.4-27.37Z" transform="translate(-164.096 -161.359)" fill="#fff"/>
          </g>
          <g id="Group_58196" data-name="Group 58196">
            <g id="Group_58195" data-name="Group 58195">
              <path id="Path_5380" data-name="Path 5380" d="M164.1,161.46a1.518,1.518,0,0,1,.206-.01l.634-.012,2.487-.029,9.415-.082,33.026-.21h.155l.036.152c1.9,8.085,3.976,16.963,6.155,26.26.087.373.175.745.259,1.107l.061.259h-.265l-42.831-.044h-.12l-.039-.113-6.735-19.931-1.827-5.455q-.3-.91-.469-1.416c-.1-.318-.147-.474-.147-.474s.071.176.189.5l.511,1.441,1.92,5.472,6.876,19.754-.159-.113,42.831-.043-.206.258c-.084-.362-.172-.734-.259-1.106-2.168-9.3-4.239-18.18-6.126-26.267l.191.151-32.874,0-9.469-.021-2.535-.012-.659-.008A2.238,2.238,0,0,1,164.1,161.46Z" transform="translate(-164.096 -161.116)" fill="#263238"/>
            </g>
          </g>
        </g>
        <path id="Path_5381" data-name="Path 5381" d="M215.654,195.842a1.147,1.147,0,0,0-1.068-.081,168.637,168.637,0,0,0-47.4,20.647l-6.01,6.953c.76,1.2,2.387,1.407,3.8,1.5l20.181,1.315c4.692.306,9.389.612,14.091.6,2.79-.01,5.843-.237,7.876-2.147a11.207,11.207,0,0,0,2.467-4.207,105.057,105.057,0,0,0,6.249-23.553A1.143,1.143,0,0,0,215.654,195.842Z" transform="translate(-157.337 -152.18)" fill="#ae6608"/>
        <g id="Group_58203" data-name="Group 58203" transform="translate(3.307 42.886)">
          <g id="Group_58200" data-name="Group 58200" transform="translate(0.259 0.207)">
            <path id="Path_5382" data-name="Path 5382" d="M172.812,197.33l-11.974,25.891,44.947.9,9.857-28.941Z" transform="translate(-160.838 -195.179)" fill="#f5f5f5"/>
          </g>
          <g id="Group_58202" data-name="Group 58202">
            <g id="Group_58201" data-name="Group 58201">
              <path id="Path_5383" data-name="Path 5383" d="M172.75,197.281a1.03,1.03,0,0,1,.194-.023l.591-.044,2.315-.142,8.772-.494,30.95-1.639.282-.015-.091.269-9.839,28.946-.049.146-.155,0h-.008l-44.938-.944-.256,0,.108-.231c3.69-7.9,6.712-14.37,8.82-18.881l2.434-5.16.642-1.338c.146-.3.228-.443.228-.443s-.063.172-.2.484l-.613,1.376-2.366,5.22-8.644,18.882-.148-.236,44.939.855h.009l-.2.142,9.876-28.934.19.253-30.869,1.464-8.807.389-2.345.091-.607.017A1.244,1.244,0,0,1,172.75,197.281Z" transform="translate(-160.518 -194.924)" fill="#263238"/>
            </g>
          </g>
        </g>
        <g id="Group_58207" data-name="Group 58207" transform="translate(2.009 42.892)">
          <g id="Group_58204" data-name="Group 58204" transform="translate(0.343 0.201)">
            <path id="Path_5384" data-name="Path 5384" d="M172.327,195.179l-12.989,14.3,44.651.337,11.169-14.639Z" transform="translate(-159.338 -195.179)" fill="#fafafa"/>
          </g>
          <g id="Group_58206" data-name="Group 58206">
            <g id="Group_58205" data-name="Group 58205">
              <path id="Path_5385" data-name="Path 5385" d="M172.245,195.132a.962.962,0,0,1,.2-.015l.6-.015,2.355-.031,8.863-.057,30.809-.082h.4l-.246.322L204.076,209.9l-.064.084h-.105l-1.361-.011-43.29-.385-.342,0,.231-.251,9.574-10.435,2.608-2.812.681-.72a2.107,2.107,0,0,1,.238-.232,2.252,2.252,0,0,1-.219.273l-.663.759-2.561,2.879-9.433,10.493-.112-.254,43.291.269,1.361.01-.169.083c3.926-5.141,7.705-10.088,11.177-14.632l.159.32-30.735-.081-8.887-.057-2.378-.03-.617-.015A1.163,1.163,0,0,1,172.245,195.132Z" transform="translate(-158.914 -194.931)" fill="#263238"/>
            </g>
          </g>
        </g>
        <g id="Group_58211" data-name="Group 58211" transform="translate(9.879 18.468)">
          <g id="Group_58208" data-name="Group 58208" transform="translate(0.217 0.21)">
            <path id="Path_5386" data-name="Path 5386" d="M172.743,176.961l-3.836-11.949h39.8l5.577,21.849" transform="translate(-168.907 -165.012)" fill="#f5f5f5"/>
          </g>
          <g id="Group_58210" data-name="Group 58210">
            <g id="Group_58209" data-name="Group 58209">
              <path id="Path_5387" data-name="Path 5387" d="M214.232,186.812a2.138,2.138,0,0,1-.135-.4c-.085-.3-.2-.693-.334-1.186-.289-1.076-.694-2.588-1.2-4.482-1.011-3.885-2.428-9.33-4.093-15.73l.187.146-14.9.017-24.9-.053.15-.2,2.739,8.759c.306,1.012.548,1.811.724,2.393l.177.626a.112.112,0,1,1-.044.015c-.058-.163-.131-.365-.22-.613l-.8-2.367-2.871-8.717-.068-.2h.217l24.9-.053,14.9.017h.151l.036.146,3.945,15.767c.463,1.905.832,3.427,1.095,4.509.114.5.206.9.275,1.2A2.122,2.122,0,0,1,214.232,186.812Z" transform="translate(-168.639 -164.752)" fill="#263238"/>
            </g>
          </g>
        </g>
        <g id="Group_58212" data-name="Group 58212" transform="translate(27.79 26.996)">
          <path id="Path_5388" data-name="Path 5388" d="M200.535,176.683a6.16,6.16,0,0,0-2.027-1.258,4.827,4.827,0,0,0-4.3,1.289c-1.2,1-2.163,2.269-3.437,3.171l13.957.227Z" transform="translate(-190.771 -175.289)" fill="#fff"/>
        </g>
        <g id="Group_58213" data-name="Group 58213" transform="translate(40.214 22.97)">
          <path id="Path_5389" data-name="Path 5389" d="M210.777,171.547c-.5-.75-2.166-1.683-3.257-.989h0a2.139,2.139,0,0,0-1.384,1.639,2.553,2.553,0,0,0,4.457,1.869A2.163,2.163,0,0,0,210.777,171.547Z" transform="translate(-206.122 -170.315)" fill="#fff"/>
        </g>
        <g id="Group_58217" data-name="Group 58217" transform="translate(1.561 30.475)">
          <g id="Group_58214" data-name="Group 58214" transform="translate(0.387 0.153)">
            <path id="Path_5390" data-name="Path 5390" d="M172.232,192.242l-13.393-12.465,43.832.355,12.59,12.11Z" transform="translate(-158.839 -179.777)" fill="#fafafa"/>
          </g>
          <g id="Group_58216" data-name="Group 58216">
            <g id="Group_58215" data-name="Group 58215">
              <path id="Path_5391" data-name="Path 5391" d="M172.14,192.206a1.265,1.265,0,0,1,.215-.016l.622-.016,2.395-.031,8.944-.058L215.17,192l-.14.346-12.6-12.1.144.058-.813-.006-43.019-.41.1-.26,9.736,9.157,2.642,2.514.685.664a2.145,2.145,0,0,1,.227.24,1.758,1.758,0,0,1-.244-.2l-.7-.626-2.685-2.446-9.864-9.084-.285-.263.388,0,43.02.288.813.007h.084l.061.058,12.583,12.117.361.347h-.5l-30.922-.08-8.922-.057-2.374-.032-.609-.016A.87.87,0,0,1,172.14,192.206Z" transform="translate(-158.361 -179.588)" fill="#263238"/>
            </g>
          </g>
        </g>
        <g id="Group_58221" data-name="Group 58221" transform="translate(13.424 35.209)">
          <g id="Group_58218" data-name="Group 58218" transform="translate(0 0.21)">
            <path id="Path_5392" data-name="Path 5392" d="M173.02,185.7h28.732" transform="translate(-173.02 -185.698)" fill="#fafafa"/>
          </g>
          <g id="Group_58220" data-name="Group 58220">
            <g id="Group_58219" data-name="Group 58219">
              <path id="Path_5393" data-name="Path 5393" d="M201.752,185.648c0,.117-6.432.211-14.365.211s-14.367-.095-14.367-.211,6.431-.21,14.367-.21S201.752,185.533,201.752,185.648Z" transform="translate(-173.02 -185.438)" fill="#263238"/>
            </g>
          </g>
        </g>
        <g id="Group_58225" data-name="Group 58225" transform="translate(16.602 38.173)">
          <g id="Group_58222" data-name="Group 58222" transform="translate(0 0.21)">
            <path id="Path_5394" data-name="Path 5394" d="M176.946,189.36h28.732" transform="translate(-176.946 -189.36)" fill="#fafafa"/>
          </g>
          <g id="Group_58224" data-name="Group 58224">
            <g id="Group_58223" data-name="Group 58223">
              <path id="Path_5395" data-name="Path 5395" d="M205.678,189.31c0,.117-6.432.211-14.365.211s-14.367-.095-14.367-.211,6.431-.21,14.367-.21S205.678,189.195,205.678,189.31Z" transform="translate(-176.946 -189.1)" fill="#263238"/>
            </g>
          </g>
        </g>
        <g id="Group_58229" data-name="Group 58229" transform="translate(19.457 41.028)">
          <g id="Group_58226" data-name="Group 58226" transform="translate(0 0.211)">
            <path id="Path_5396" data-name="Path 5396" d="M180.474,192.889h28.732" transform="translate(-180.474 -192.889)" fill="#fafafa"/>
          </g>
          <g id="Group_58228" data-name="Group 58228">
            <g id="Group_58227" data-name="Group 58227">
              <path id="Path_5397" data-name="Path 5397" d="M209.206,192.838c0,.117-6.433.211-14.366.211s-14.367-.095-14.367-.211,6.431-.21,14.367-.21S209.206,192.723,209.206,192.838Z" transform="translate(-180.474 -192.628)" fill="#263238"/>
            </g>
          </g>
        </g>
        <g id="Group_58233" data-name="Group 58233" transform="translate(14.954 52.478)">
          <g id="Group_58230" data-name="Group 58230" transform="translate(0 0.21)">
            <path id="Path_5398" data-name="Path 5398" d="M174.91,207.036h29.653" transform="translate(-174.91 -207.036)" fill="#fafafa"/>
          </g>
          <g id="Group_58232" data-name="Group 58232">
            <g id="Group_58231" data-name="Group 58231">
              <path id="Path_5399" data-name="Path 5399" d="M204.563,206.986c0,.117-6.639.21-14.825.21s-14.827-.094-14.827-.21,6.637-.21,14.827-.21S204.563,206.87,204.563,206.986Z" transform="translate(-174.91 -206.776)" fill="#263238"/>
            </g>
          </g>
        </g>
        <g id="Group_58237" data-name="Group 58237" transform="translate(18.329 49.102)">
          <g id="Group_58234" data-name="Group 58234" transform="translate(0 0.211)">
            <path id="Path_5400" data-name="Path 5400" d="M179.08,202.866h29.653" transform="translate(-179.08 -202.866)" fill="#fafafa"/>
          </g>
          <g id="Group_58236" data-name="Group 58236">
            <g id="Group_58235" data-name="Group 58235">
              <path id="Path_5401" data-name="Path 5401" d="M208.733,202.816c0,.117-6.639.21-14.825.21s-14.827-.094-14.827-.21,6.637-.211,14.827-.211S208.733,202.7,208.733,202.816Z" transform="translate(-179.08 -202.605)" fill="#263238"/>
            </g>
          </g>
        </g>
      </g>
      <g id="Group_58240" data-name="Group 58240" transform="translate(3.207 24.223)">
        <g id="Group_58239" data-name="Group 58239">
          <path id="Path_5402" data-name="Path 5402" d="M367.978,101.691c0,.117-59.625.21-133.159.21-73.559,0-133.172-.094-133.172-.21s59.613-.21,133.172-.21C308.353,101.481,367.978,101.575,367.978,101.691Z" transform="translate(-101.647 -101.481)" fill="#263238"/>
        </g>
      </g>
      <g id="Group_58249" data-name="Group 58249" transform="translate(178.884 32.642)">
        <g id="Group_58247" data-name="Group 58247">
          <g id="Group_58246" data-name="Group 58246">
            <path id="Path_5413" data-name="Path 5413" d="M396.1,124.522a3.057,3.057,0,0,0,.451-.089,1.549,1.549,0,0,0,.941-.884,2.311,2.311,0,0,0,.1-.971q0-.556-.01-1.211c-.006-.877-.012-1.886-.019-3.02s-.012-2.4-.019-3.782c0-.342,0-.708-.011-1.05a1.452,1.452,0,0,0-.437-.906,1.421,1.421,0,0,0-.96-.4l-1.186,0-10.968.031-63.5.062a1.346,1.346,0,0,0-1.337,1.237l-.006,2.288q0,2.3,0,4.562,0,1.133,0,2.256a1.727,1.727,0,0,0,.174.984,1.336,1.336,0,0,0,.726.606,1.446,1.446,0,0,0,.479.075h3.866l16.861.012,28.549.045,19.247.067,5.233.04,1.36.021c.307.006.464.021.464.021s-.157.015-.464.022l-1.36.021-5.233.04-19.247.066-28.549.045-16.861.012-2.2,0h-1.664a1.867,1.867,0,0,1-.616-.1,1.751,1.751,0,0,1-.953-.794,2.146,2.146,0,0,1-.228-1.19q0-1.124,0-2.256,0-2.265,0-4.562,0-1.156.006-2.319a1.768,1.768,0,0,1,1.757-1.626l63.5.062,10.968.031,1.192.006a1.646,1.646,0,0,1,1.105.469,1.667,1.667,0,0,1,.494,1.044c.014.379,0,.719,0,1.068q-.01,2.072-.019,3.782c-.007,1.134-.014,2.143-.019,3.02q0,.654-.01,1.211a2.377,2.377,0,0,1-.131,1,1.577,1.577,0,0,1-1.007.893A1.213,1.213,0,0,1,396.1,124.522Z" transform="translate(-318.721 -111.884)" fill="#e0e0e0"/>
          </g>
        </g>
        <g id="Group_58248" data-name="Group 58248" transform="translate(5.111 4.273)">
          <path id="Path_5414" data-name="Path 5414" d="M325.037,120.953l.209-.441a2.038,2.038,0,0,0,1.307.458c.684,0,.978-.265.978-.61,0-.967-2.4-.357-2.4-1.827,0-.61.475-1.131,1.516-1.131a2.331,2.331,0,0,1,1.272.35l-.186.452a2.045,2.045,0,0,0-1.086-.323c-.673,0-.962.283-.962.628,0,.967,2.4.363,2.4,1.816,0,.605-.486,1.125-1.532,1.125A2.346,2.346,0,0,1,325.037,120.953Z" transform="translate(-325.037 -117.209)" fill="#e0e0e0"/>
          <path id="Path_5415" data-name="Path 5415" d="M332.359,120.319h-2.432a1.016,1.016,0,0,0,1.086.877,1.116,1.116,0,0,0,.865-.363l.3.35a1.634,1.634,0,0,1-2.794-1.046,1.467,1.467,0,0,1,1.5-1.526,1.445,1.445,0,0,1,1.482,1.543C332.37,120.2,332.365,120.268,332.359,120.319Zm-2.432-.39h1.923a.968.968,0,0,0-1.923,0Z" transform="translate(-325.866 -117.44)" fill="#e0e0e0"/>
          <path id="Path_5416" data-name="Path 5416" d="M336.221,119.827v1.81h-.516v-.4a1.112,1.112,0,0,1-.984.43c-.679,0-1.108-.362-1.108-.882,0-.481.311-.876,1.2-.876h.86V119.8c0-.458-.266-.724-.8-.724a1.519,1.519,0,0,0-.949.322L333.7,119a2,2,0,0,1,1.239-.384C335.756,118.611,336.221,119.007,336.221,119.827Zm-.543.893V120.3h-.838c-.537,0-.69.21-.69.464,0,.3.249.486.662.486A.871.871,0,0,0,335.678,120.72Z" transform="translate(-326.673 -117.44)" fill="#e0e0e0"/>
          <path id="Path_5417" data-name="Path 5417" d="M339.691,118.611v.526a.971.971,0,0,0-.125-.006.894.894,0,0,0-.944,1.012v1.492h-.543v-3h.52v.5A1.146,1.146,0,0,1,339.691,118.611Z" transform="translate(-327.524 -117.44)" fill="#e0e0e0"/>
          <path id="Path_5418" data-name="Path 5418" d="M340.517,120.137a1.5,1.5,0,0,1,1.584-1.526,1.338,1.338,0,0,1,1.222.639l-.414.266a.932.932,0,0,0-.814-.43,1.055,1.055,0,0,0,0,2.11.932.932,0,0,0,.814-.431l.414.261a1.342,1.342,0,0,1-1.222.644A1.5,1.5,0,0,1,340.517,120.137Z" transform="translate(-327.989 -117.44)" fill="#e0e0e0"/>
          <path id="Path_5419" data-name="Path 5419" d="M347.647,119.636v1.725H347.1V119.7c0-.588-.294-.876-.809-.876a.89.89,0,0,0-.95,1v1.543H344.8v-4.2h.543v1.623a1.3,1.3,0,0,1,1.058-.452A1.161,1.161,0,0,1,347.647,119.636Z" transform="translate(-328.806 -117.164)" fill="#e0e0e0"/>
          <path id="Path_5420" data-name="Path 5420" d="M349.248,121.818a.378.378,0,0,1,.384-.384.372.372,0,0,1,.373.384.377.377,0,0,1-.373.39A.382.382,0,0,1,349.248,121.818Z" transform="translate(-329.654 -117.978)" fill="#e0e0e0"/>
          <path id="Path_5421" data-name="Path 5421" d="M350.834,121.818a.378.378,0,0,1,.384-.384.372.372,0,0,1,.373.384.377.377,0,0,1-.373.39A.382.382,0,0,1,350.834,121.818Z" transform="translate(-329.957 -117.978)" fill="#e0e0e0"/>
          <path id="Path_5422" data-name="Path 5422" d="M352.42,121.818a.378.378,0,0,1,.385-.384.372.372,0,0,1,.373.384.377.377,0,0,1-.373.39A.383.383,0,0,1,352.42,121.818Z" transform="translate(-330.259 -117.978)" fill="#e0e0e0"/>
        </g>
      </g>
      <g id="Group_58251" data-name="Group 58251" transform="translate(36.98 68.888)">
        <g id="Group_58250" data-name="Group 58250">
          <path id="Path_5423" data-name="Path 5423" d="M148.3,208.234a2.8,2.8,0,0,1-.231-.513c-.134-.343-.342-.846-.577-1.506-.486-1.313-1.137-3.234-1.812-5.648a57.241,57.241,0,0,1-2.176-19.392,41.74,41.74,0,0,1,2.2-10.557,35.283,35.283,0,0,1,3.91-7.891,29.479,29.479,0,0,1,3.752-4.6c.482-.51.913-.847,1.182-1.1a2.9,2.9,0,0,1,.436-.354,2.846,2.846,0,0,1-.379.417c-.25.271-.661.626-1.122,1.151a32.3,32.3,0,0,0-3.621,4.65,36.21,36.21,0,0,0-3.792,7.856,42.39,42.39,0,0,0-2.15,10.461,59.356,59.356,0,0,0,2.044,19.283c.635,2.415,1.242,4.345,1.678,5.672.207.632.374,1.14.5,1.53A2.834,2.834,0,0,1,148.3,208.234Z" transform="translate(-143.378 -156.671)" fill="#263238"/>
        </g>
      </g>
      <g id="Group_58269" data-name="Group 58269" transform="translate(162.595 61.777)">
        <g id="Group_58252" data-name="Group 58252" transform="translate(3.982)">
          <path id="Path_5424" data-name="Path 5424" d="M303.515,151.536v42.357H355V151.536a3.651,3.651,0,0,0-3.651-3.651H307.166A3.651,3.651,0,0,0,303.515,151.536Z" transform="translate(-303.515 -147.885)" fill="#ef6b3b"/>
        </g>
        <g id="Group_58257" data-name="Group 58257" transform="translate(6.371 7.243)">
          <g id="Group_58254" data-name="Group 58254" transform="translate(0.028 0.211)">
            <path id="Path_5426" data-name="Path 5426" d="M306.5,172.645l.341-15.55H351.9v8.873" transform="translate(-306.501 -157.095)" fill="#f5f5f5"/>
          </g>
          <g id="Group_58256" data-name="Group 58256">
            <g id="Group_58255" data-name="Group 58255">
              <path id="Path_5427" data-name="Path 5427" d="M351.888,165.919a3.467,3.467,0,0,1-.04-.6c-.009-.435-.021-1.015-.036-1.747-.015-1.564-.037-3.772-.064-6.521l.14.14-25.865.071-19.188-.036.176-.172c-.133,4.66-.244,8.536-.322,11.29-.049,1.326-.089,2.382-.117,3.146-.018.337-.032.61-.045.827a.143.143,0,1,1-.054,0c0-.218,0-.49-.007-.828,0-.765.012-1.821.021-3.149.042-2.755.1-6.631.173-11.293l0-.172h.173l19.188-.035,25.865.07h.142l0,.139c-.027,2.749-.049,4.957-.064,6.521-.015.732-.028,1.313-.037,1.747A3.433,3.433,0,0,1,351.888,165.919Z" transform="translate(-306.466 -156.835)" fill="#263238"/>
            </g>
          </g>
        </g>
        <g id="Group_58261" data-name="Group 58261" transform="translate(9.583 3.041)">
          <g id="Group_58258" data-name="Group 58258" transform="translate(0.091 0.21)">
            <rect id="Rectangle_124" data-name="Rectangle 124" width="39.361" height="4.203" fill="#f5f5f5"/>
          </g>
          <g id="Group_58260" data-name="Group 58260">
            <g id="Group_58259" data-name="Group 58259">
              <path id="Path_5428" data-name="Path 5428" d="M310.526,151.852a.8.8,0,0,1,.185-.015l.572-.015,2.231-.029,8.322-.062,28.051-.091h.21v.21c0,1.339,0,2.762,0,4.2-.421.425-.124.117-.222.213h-3.232l-3.181,0-6.131-.006-11.11-.025-15.7-.087h-.091l0-.089q.033-2.031.051-3.153c.008-.329.015-.591.021-.794a1.312,1.312,0,0,1,.017-.256,2.118,2.118,0,0,1,.018.287c0,.209.012.477.021.814q.018,1.1.05,3.1l-.089-.089,15.7-.087,11.11-.025,6.131-.006,3.181,0h3.232c-.091.093.221-.208-.2.209,0-1.439,0-2.862,0-4.2l.21.21-27.9-.09-8.371-.062-2.28-.029-.6-.015A1.3,1.3,0,0,1,310.526,151.852Z" transform="translate(-310.435 -151.642)" fill="#263238"/>
            </g>
          </g>
        </g>
        <g id="Group_58263" data-name="Group 58263" transform="translate(9.673 56.396)">
          <g id="Group_58262" data-name="Group 58262">
            <path id="Path_5429" data-name="Path 5429" d="M354.488,217.782c0,.117-9.838.21-21.97.21s-21.971-.094-21.971-.21,9.835-.211,21.971-.211S354.488,217.666,354.488,217.782Z" transform="translate(-310.547 -217.571)" fill="#263238"/>
          </g>
        </g>
        <g id="Group_58264" data-name="Group 58264" transform="translate(0 12.338)">
          <path id="Path_5430" data-name="Path 5430" d="M298.617,166.151l3.96,30.649h51.484V167.119H330.679l-4.535-3.989H301.273A2.678,2.678,0,0,0,298.617,166.151Z" transform="translate(-298.594 -163.13)" fill="#fb940c"/>
        </g>
        <g id="Group_58266" data-name="Group 58266" transform="translate(16.114 28.12)">
          <g id="Group_58265" data-name="Group 58265">
            <path id="Path_5431" data-name="Path 5431" d="M343.689,182.841c0,.117-5.638.21-12.592.21s-12.593-.094-12.593-.21,5.637-.21,12.593-.21S343.689,182.725,343.689,182.841Z" transform="translate(-318.505 -182.631)" fill="#263238"/>
          </g>
        </g>
        <g id="Group_58268" data-name="Group 58268" transform="translate(16.114 31.134)">
          <g id="Group_58267" data-name="Group 58267">
            <path id="Path_5432" data-name="Path 5432" d="M343.689,186.566c0,.117-5.638.211-12.592.211s-12.593-.095-12.593-.211,5.637-.21,12.593-.21S343.689,186.451,343.689,186.566Z" transform="translate(-318.505 -186.356)" fill="#263238"/>
          </g>
        </g>
      </g>
      <g id="Group_58287" data-name="Group 58287" transform="translate(45.914 153.777)">
        <g id="Group_58270" data-name="Group 58270" transform="translate(3.982)">
          <path id="Path_5433" data-name="Path 5433" d="M159.338,265.215v42.356h51.484V265.215a3.651,3.651,0,0,0-3.651-3.651H162.989A3.651,3.651,0,0,0,159.338,265.215Z" transform="translate(-159.338 -261.564)" fill="#ef6b3b"/>
        </g>
        <g id="Group_58275" data-name="Group 58275" transform="translate(6.37 7.242)">
          <g id="Group_58272" data-name="Group 58272" transform="translate(0.029 0.211)">
            <path id="Path_5435" data-name="Path 5435" d="M162.324,286.324l.341-15.55h45.053v8.873" transform="translate(-162.324 -270.774)" fill="#f5f5f5"/>
          </g>
          <g id="Group_58274" data-name="Group 58274">
            <g id="Group_58273" data-name="Group 58273">
              <path id="Path_5436" data-name="Path 5436" d="M207.711,279.6a3.472,3.472,0,0,1-.04-.6c-.009-.434-.021-1.015-.036-1.747-.015-1.564-.037-3.771-.064-6.521l.14.14-25.865.07-19.188-.035.176-.172c-.134,4.66-.244,8.536-.323,11.29-.049,1.327-.088,2.383-.117,3.147-.019.337-.033.609-.045.827a1.166,1.166,0,0,1-.033.282,1.155,1.155,0,0,1-.021-.284c0-.217,0-.49-.008-.828.006-.764.013-1.82.021-3.148.043-2.756.1-6.632.174-11.294l0-.172h.173l19.188-.036,25.865.071h.141v.14c-.027,2.749-.049,4.957-.064,6.521-.015.732-.028,1.313-.037,1.747A3.54,3.54,0,0,1,207.711,279.6Z" transform="translate(-162.288 -270.513)" fill="#263238"/>
            </g>
          </g>
        </g>
        <g id="Group_58279" data-name="Group 58279" transform="translate(9.583 3.04)">
          <g id="Group_58276" data-name="Group 58276" transform="translate(0.091 0.211)">
            <rect id="Rectangle_125" data-name="Rectangle 125" width="39.361" height="4.203" fill="#f5f5f5"/>
          </g>
          <g id="Group_58278" data-name="Group 58278">
            <g id="Group_58277" data-name="Group 58277">
              <path id="Path_5437" data-name="Path 5437" d="M166.349,265.53a.789.789,0,0,1,.185-.015l.571-.014,2.232-.029,8.322-.062,28.051-.09h.21v.21c0,1.339,0,2.762,0,4.2-.422.426-.125.118-.222.213h-3.232l-3.18,0-6.132-.006-11.109-.025-15.7-.087h-.091l0-.088q.033-2.032.05-3.154c.009-.329.016-.59.021-.793a1.359,1.359,0,0,1,.018-.257,2.119,2.119,0,0,1,.018.288c0,.209.012.476.021.813q.017,1.1.05,3.1l-.089-.09,15.7-.087,11.109-.025,6.132-.007,3.18,0H205.7c-.091.093.221-.208-.2.209,0-1.439,0-2.862,0-4.2l.21.21-27.9-.09-8.371-.062-2.28-.028-.6-.015A1.345,1.345,0,0,1,166.349,265.53Z" transform="translate(-166.258 -265.32)" fill="#263238"/>
            </g>
          </g>
        </g>
        <g id="Group_58281" data-name="Group 58281" transform="translate(9.673 56.396)">
          <g id="Group_58280" data-name="Group 58280">
            <path id="Path_5438" data-name="Path 5438" d="M210.311,331.46c0,.117-9.837.211-21.969.211s-21.972-.095-21.972-.211,9.835-.21,21.972-.21S210.311,331.345,210.311,331.46Z" transform="translate(-166.37 -331.25)" fill="#263238"/>
          </g>
        </g>
        <g id="Group_58282" data-name="Group 58282" transform="translate(0 12.338)">
          <path id="Path_5439" data-name="Path 5439" d="M154.44,279.83l3.96,30.648h51.484V280.8H186.5l-4.536-3.988H157.095A2.678,2.678,0,0,0,154.44,279.83Z" transform="translate(-154.417 -276.809)" fill="#fb940c"/>
        </g>
        <g id="Group_58284" data-name="Group 58284" transform="translate(16.114 28.119)">
          <g id="Group_58283" data-name="Group 58283">
            <path id="Path_5440" data-name="Path 5440" d="M199.512,296.519c0,.117-5.638.211-12.591.211s-12.593-.095-12.593-.211,5.637-.21,12.593-.21S199.512,296.4,199.512,296.519Z" transform="translate(-174.328 -296.309)" fill="#263238"/>
          </g>
        </g>
        <g id="Group_58286" data-name="Group 58286" transform="translate(16.114 31.134)">
          <g id="Group_58285" data-name="Group 58285">
            <path id="Path_5441" data-name="Path 5441" d="M199.512,300.245c0,.117-5.638.21-12.591.21s-12.593-.094-12.593-.21,5.637-.211,12.593-.211S199.512,300.129,199.512,300.245Z" transform="translate(-174.328 -300.034)" fill="#263238"/>
          </g>
        </g>
      </g>
      <g id="Group_58305" data-name="Group 58305" transform="translate(168.994 153.803)">
        <g id="Group_58288" data-name="Group 58288" transform="translate(3.982 0)">
          <path id="Path_5442" data-name="Path 5442" d="M311.422,265.247V307.6h51.484V265.247a3.651,3.651,0,0,0-3.651-3.651H315.073A3.651,3.651,0,0,0,311.422,265.247Z" transform="translate(-311.422 -261.596)" fill="#ef6b3b"/>
        </g>
        <g id="Group_58293" data-name="Group 58293" transform="translate(6.371 7.243)">
          <g id="Group_58290" data-name="Group 58290" transform="translate(0.028 0.211)">
            <path id="Path_5444" data-name="Path 5444" d="M314.408,286.356l.341-15.55H359.8v8.873" transform="translate(-314.408 -270.806)" fill="#f5f5f5"/>
          </g>
          <g id="Group_58292" data-name="Group 58292">
            <g id="Group_58291" data-name="Group 58291">
              <path id="Path_5445" data-name="Path 5445" d="M359.8,279.63a3.48,3.48,0,0,1-.04-.605c-.009-.434-.021-1.014-.036-1.747-.015-1.564-.037-3.771-.064-6.52l.14.14-25.865.071-19.188-.036.176-.172c-.134,4.66-.244,8.536-.322,11.29-.05,1.326-.089,2.382-.117,3.146-.019.337-.033.61-.044.827a.143.143,0,1,1-.054,0c0-.217,0-.49-.007-.828,0-.764.012-1.82.021-3.148.042-2.755.1-6.632.173-11.294l0-.171h.173l19.188-.035,25.865.07h.141v.139c-.027,2.749-.049,4.957-.064,6.52-.015.733-.028,1.314-.037,1.747A3.541,3.541,0,0,1,359.8,279.63Z" transform="translate(-314.373 -270.546)" fill="#263238"/>
            </g>
          </g>
        </g>
        <g id="Group_58297" data-name="Group 58297" transform="translate(9.583 3.041)">
          <g id="Group_58294" data-name="Group 58294" transform="translate(0.091 0.21)">
            <rect id="Rectangle_126" data-name="Rectangle 126" width="39.361" height="4.203" fill="#f5f5f5"/>
          </g>
          <g id="Group_58296" data-name="Group 58296">
            <g id="Group_58295" data-name="Group 58295">
              <path id="Path_5446" data-name="Path 5446" d="M318.433,265.563a.79.79,0,0,1,.185-.015l.571-.015,2.232-.029,8.322-.062,28.051-.09H358v.21c0,1.339,0,2.761,0,4.2-.422.425-.124.117-.222.213h-3.232l-3.18,0-6.131-.006-11.11-.025-15.7-.087h-.091l0-.089q.033-2.031.05-3.154c.009-.329.016-.59.022-.793a1.314,1.314,0,0,1,.017-.256,2.113,2.113,0,0,1,.018.287c0,.209.012.477.021.814q.018,1.1.05,3.1l-.089-.089,15.7-.087,11.11-.025,6.131-.007,3.18,0h3.232c-.091.093.221-.209-.2.209,0-1.44,0-2.862,0-4.2l.21.21-27.9-.09-8.371-.062-2.28-.029-.6-.015A1.424,1.424,0,0,1,318.433,265.563Z" transform="translate(-318.342 -265.353)" fill="#263238"/>
            </g>
          </g>
        </g>
        <g id="Group_58299" data-name="Group 58299" transform="translate(9.673 56.396)">
          <g id="Group_58298" data-name="Group 58298">
            <path id="Path_5447" data-name="Path 5447" d="M362.4,331.493c0,.116-9.838.21-21.97.21s-21.971-.095-21.971-.21,9.835-.211,21.971-.211S362.4,331.377,362.4,331.493Z" transform="translate(-318.454 -331.282)" fill="#263238"/>
          </g>
        </g>
        <g id="Group_58300" data-name="Group 58300" transform="translate(0 12.338)">
          <path id="Path_5448" data-name="Path 5448" d="M306.524,279.862l3.96,30.649h51.484V280.83H338.586l-4.536-3.989H309.18A2.678,2.678,0,0,0,306.524,279.862Z" transform="translate(-306.501 -276.841)" fill="#fb940c"/>
        </g>
        <g id="Group_58302" data-name="Group 58302" transform="translate(16.114 28.119)">
          <g id="Group_58301" data-name="Group 58301">
            <path id="Path_5449" data-name="Path 5449" d="M351.6,296.552c0,.117-5.638.21-12.591.21s-12.593-.094-12.593-.21,5.637-.211,12.593-.211S351.6,296.436,351.6,296.552Z" transform="translate(-326.412 -296.341)" fill="#263238"/>
          </g>
        </g>
        <g id="Group_58304" data-name="Group 58304" transform="translate(16.114 31.134)">
          <g id="Group_58303" data-name="Group 58303">
            <path id="Path_5450" data-name="Path 5450" d="M351.6,300.277c0,.117-5.638.211-12.591.211s-12.593-.095-12.593-.211,5.637-.21,12.593-.21S351.6,300.162,351.6,300.277Z" transform="translate(-326.412 -300.067)" fill="#263238"/>
          </g>
        </g>
      </g>
      <g id="Group_58307" data-name="Group 58307" transform="translate(33.84 69.371)">
        <g id="Group_58306" data-name="Group 58306">
          <path id="Path_5451" data-name="Path 5451" d="M139.536,177.384a3.426,3.426,0,0,1-.037-.87,21.525,21.525,0,0,1,.159-2.367,30.275,30.275,0,0,1,5.7-14.431,21.691,21.691,0,0,1,1.5-1.837,3.451,3.451,0,0,1,.622-.61c.056.049-.753.983-1.88,2.62a34.078,34.078,0,0,0-5.645,14.3C139.657,176.151,139.61,177.387,139.536,177.384Z" transform="translate(-139.498 -157.268)" fill="#263238"/>
        </g>
      </g>
      <g id="Group_58309" data-name="Group 58309" transform="translate(32.092 85.932)">
        <g id="Group_58308" data-name="Group 58308">
          <path id="Path_5452" data-name="Path 5452" d="M141.706,178.128c.045.036-.2.422-.621,1.015l-.764,1.028-.462.6-.248.315-.127.16-.064.081-.032.04-.016.02-.008.01,0,.006,0,0c.07,0-.606.019-.32.01h0a7.017,7.017,0,0,1-1.473-2.5,2.406,2.406,0,0,1-.2-1.182,12.731,12.731,0,0,0,1.985,3.394l0,0-.319.011,0,0,0-.006.008-.01.016-.02.032-.04.065-.081.129-.159.252-.31.482-.583.835-.972C141.338,178.411,141.66,178.091,141.706,178.128Z" transform="translate(-137.338 -177.732)" fill="#263238"/>
        </g>
      </g>
      <g id="Group_58311" data-name="Group 58311" transform="translate(177.863 123.903)">
        <g id="Group_58310" data-name="Group 58310" transform="translate(0 0)">
          <path id="Path_5453" data-name="Path 5453" d="M345.014,224.861c0,.117-6.168.21-13.777.21s-13.778-.094-13.778-.21,6.168-.211,13.778-.211S345.014,224.745,345.014,224.861Z" transform="translate(-317.459 -224.65)" fill="#e0e0e0"/>
        </g>
      </g>
      <g id="Group_58313" data-name="Group 58313" transform="translate(184.941 215.07)">
        <g id="Group_58312" data-name="Group 58312">
          <path id="Path_5454" data-name="Path 5454" d="M353.761,337.51c0,.117-6.168.21-13.777.21s-13.778-.094-13.778-.21,6.168-.21,13.778-.21S353.761,337.394,353.761,337.51Z" transform="translate(-326.206 -337.3)" fill="#e0e0e0"/>
        </g>
      </g>
      <g id="Group_58315" data-name="Group 58315" transform="translate(56.102 216.535)">
        <g id="Group_58314" data-name="Group 58314">
          <path id="Path_5455" data-name="Path 5455" d="M194.562,339.321c0,.117-6.169.21-13.777.21s-13.778-.094-13.778-.21,6.168-.21,13.778-.21S194.562,339.2,194.562,339.321Z" transform="translate(-167.006 -339.111)" fill="#e0e0e0"/>
        </g>
      </g>
      <path id="Path_5472" data-name="Path 5472" d="M4.18.12A3.6,3.6,0,0,0,7.07-1.13L6.03-2.09a2.231,2.231,0,0,1-1.76.83A2.147,2.147,0,0,1,2.03-3.5,2.147,2.147,0,0,1,4.27-5.74a2.252,2.252,0,0,1,1.76.82l1.04-.96A3.614,3.614,0,0,0,4.19-7.12,3.6,3.6,0,0,0,.39-3.5,3.594,3.594,0,0,0,4.18.12ZM11.1-1.36a1.051,1.051,0,0,1-.63.2.627.627,0,0,1-.67-.71V-4.06h1.34v-1.2H9.8V-6.57H8.24v1.31H7.41v1.2h.83v2.21A1.774,1.774,0,0,0,10.25.08a2.229,2.229,0,0,0,1.27-.34Zm3.47-4.1a4.136,4.136,0,0,0-2.32.65l.56,1.09a2.587,2.587,0,0,1,1.55-.5c.84,0,1.24.39,1.24,1.06H14.36c-1.64,0-2.31.66-2.31,1.61,0,.93.75,1.63,2.01,1.63A1.766,1.766,0,0,0,15.7-.67V0h1.46V-3.07C17.16-4.7,16.21-5.46,14.57-5.46ZM14.45-.97c-.55,0-.88-.26-.88-.65,0-.36.23-.63.96-.63H15.6v.55A1.149,1.149,0,0,1,14.45-.97ZM18.57,0h1.56V-7.42H18.57Zm5.57.08a2.761,2.761,0,0,0,2.95-2.77,2.761,2.761,0,0,0-2.95-2.77,2.77,2.77,0,0,0-2.96,2.77A2.77,2.77,0,0,0,24.14.08Zm0-1.28a1.365,1.365,0,0,1-1.38-1.49,1.365,1.365,0,0,1,1.38-1.49,1.358,1.358,0,0,1,1.37,1.49A1.358,1.358,0,0,1,24.14-1.2ZM32.2-5.38v.69a2.16,2.16,0,0,0-1.78-.77,2.561,2.561,0,0,0-2.69,2.6,2.561,2.561,0,0,0,2.69,2.6,2.215,2.215,0,0,0,1.7-.67V-.7c0,.97-.48,1.47-1.58,1.47a3.215,3.215,0,0,1-1.9-.61l-.62,1.12a4.432,4.432,0,0,0,2.64.74c1.94,0,3.02-.92,3.02-2.92V-5.38ZM30.73-1.54a1.315,1.315,0,0,1-1.42-1.32,1.315,1.315,0,0,1,1.42-1.32,1.306,1.306,0,0,1,1.41,1.32A1.306,1.306,0,0,1,30.73-1.54Zm8.26-3.84v2.66c0,.99-.52,1.45-1.24,1.45-.69,0-1.09-.4-1.09-1.3V-5.38H35.1v3.04A2.145,2.145,0,0,0,37.4.08a2.177,2.177,0,0,0,1.67-.72V0h1.48V-5.38Zm8.28,2.71a2.663,2.663,0,0,0-2.8-2.79A2.739,2.739,0,0,0,41.6-2.69,2.793,2.793,0,0,0,44.67.08a2.818,2.818,0,0,0,2.22-.87l-.83-.9a1.824,1.824,0,0,1-1.35.52,1.435,1.435,0,0,1-1.54-1.08h4.07C47.25-2.38,47.27-2.55,47.27-2.67ZM44.48-4.28A1.278,1.278,0,0,1,45.8-3.16H43.15A1.274,1.274,0,0,1,44.48-4.28Z" transform="translate(113.411 15.549)" fill="#263238"/>
    </g>
    <g id="Floor" transform="translate(43.028 387.723)">
      <g id="Group_58355" data-name="Group 58355">
        <g id="Group_58354" data-name="Group 58354">
          <path id="Path_5471" data-name="Path 5471" d="M366.821,473.4c0,.117-71.713.21-160.155.21-88.474,0-160.171-.094-160.171-.21s71.7-.21,160.171-.21C295.107,473.194,366.821,473.288,366.821,473.4Z" transform="translate(-46.494 -473.194)" fill="#263238"/>
        </g>
      </g>
    </g>
    <g id="Plant" transform="translate(300.008 249.613)">
      <g id="Group_57914" data-name="Group 57914">
        <g id="Group_57842" data-name="Group 57842" transform="translate(11.614 59.26)">
          <g id="Group_57841" data-name="Group 57841">
            <path id="Path_5172" data-name="Path 5172" d="M104.333,300.241a35.834,35.834,0,0,0-34.178-9.38,62.247,62.247,0,0,0,34.582,10.8" transform="translate(-70.155 -289.729)" fill="#fa1e70"/>
          </g>
        </g>
        <g id="Group_57899" data-name="Group 57899">
          <g id="Group_57844" data-name="Group 57844" transform="translate(24.159)">
            <g id="Group_57843" data-name="Group 57843">
              <path id="Path_5173" data-name="Path 5173" d="M105.427,199.263A34.678,34.678,0,0,0,95.4,170.542c-.249,9.981,3.965,21.214,10.031,28.721" transform="translate(-95.386 -170.542)" fill="#fa1e70"/>
            </g>
          </g>
          <g id="Group_57846" data-name="Group 57846" transform="translate(15.531 24.143)">
            <g id="Group_57845" data-name="Group 57845">
              <path id="Path_5174" data-name="Path 5174" d="M102.732,242.7a53.782,53.782,0,0,0-24.7-23.6,33.939,33.939,0,0,0,24.791,23.711" transform="translate(-78.033 -219.1)" fill="#fa1e70"/>
            </g>
          </g>
          <g id="Group_57848" data-name="Group 57848" transform="translate(7.924 40.61)">
            <g id="Group_57847" data-name="Group 57847">
              <path id="Path_5175" data-name="Path 5175" d="M96.288,263.028a63.8,63.8,0,0,1-18.122-1.6c-5.883-1.557-11.517-4.548-15.432-9.208A60.555,60.555,0,0,1,96.2,262.436" transform="translate(-62.734 -252.22)" fill="#fa1e70"/>
            </g>
          </g>
          <g id="Group_57850" data-name="Group 57850" transform="translate(38.39 13.263)">
            <g id="Group_57849" data-name="Group 57849">
              <path id="Path_5176" data-name="Path 5176" d="M124.01,223.281c3.088-11.572,8.182-19.577,17.278-26.063a24.068,24.068,0,0,1-17.278,26.063" transform="translate(-124.01 -197.218)" fill="#fa1e70"/>
            </g>
          </g>
          <g id="Group_57852" data-name="Group 57852" transform="translate(50.946 43.418)">
            <g id="Group_57851" data-name="Group 57851">
              <path id="Path_5177" data-name="Path 5177" d="M159.668,273.733a17.133,17.133,0,0,0-10.406-15.866c.506,5.976,5.2,12.889,10.406,15.866" transform="translate(-149.262 -257.867)" fill="#fa1e70"/>
            </g>
          </g>
          <g id="Group_57854" data-name="Group 57854" transform="translate(64.259 27.754)">
            <g id="Group_57853" data-name="Group 57853">
              <path id="Path_5178" data-name="Path 5178" d="M176.038,248.135a25.526,25.526,0,0,1,16.721-21.773c-2.1,9.671-7.693,17.721-16.721,21.773" transform="translate(-176.038 -226.362)" fill="#fa1e70"/>
            </g>
          </g>
          <g id="Group_57856" data-name="Group 57856" transform="translate(59.879 59.807)">
            <g id="Group_57855" data-name="Group 57855">
              <path id="Path_5179" data-name="Path 5179" d="M167.229,297.865a16.1,16.1,0,0,1,9.268-5.925,47.9,47.9,0,0,1,11.15-1.11,26.068,26.068,0,0,1-20.134,8.386" transform="translate(-167.229 -290.83)" fill="#fa1e70"/>
            </g>
          </g>
          <g id="Group_57858" data-name="Group 57858" transform="translate(55.531 90.259)">
            <g id="Group_57857" data-name="Group 57857">
              <path id="Path_5180" data-name="Path 5180" d="M158.485,353.327a28.562,28.562,0,0,1,34.878,16.522,74.615,74.615,0,0,1-34.878-16.522" transform="translate(-158.485 -352.077)" fill="#fa1e70"/>
            </g>
          </g>
          <g id="Group_57860" data-name="Group 57860" transform="translate(37.738 82.937)">
            <g id="Group_57859" data-name="Group 57859">
              <path id="Path_5181" data-name="Path 5181" d="M126.586,337.349c2.1,6.221,1.7,13.741-2.978,19.1a22.823,22.823,0,0,1,2.978-19.1" transform="translate(-122.697 -337.349)" fill="#fa1e70"/>
            </g>
          </g>
          <g id="Group_57862" data-name="Group 57862" transform="translate(18.762 79.481)">
            <g id="Group_57861" data-name="Group 57861">
              <path id="Path_5182" data-name="Path 5182" d="M99.178,330.4A23.4,23.4,0,0,1,86.251,349.39a1.457,1.457,0,0,1-1.143.188c-.57-.232-.622-1.01-.552-1.622.916-7.971,6.822-15.679,14.622-17.558" transform="translate(-84.532 -330.398)" fill="#fa1e70"/>
            </g>
          </g>
          <g id="Group_57864" data-name="Group 57864" transform="translate(0 77.799)">
            <g id="Group_57863" data-name="Group 57863">
              <path id="Path_5183" data-name="Path 5183" d="M74.836,327.89a19.194,19.194,0,0,1-28.039.143c8.913-.975,19.2-1.626,28.039-.143" transform="translate(-46.797 -327.017)" fill="#fa1e70"/>
            </g>
          </g>
          <g id="Group_57874" data-name="Group 57874" transform="translate(25.377 7.423)">
            <g id="Group_57867" data-name="Group 57867" transform="translate(1.328)">
              <g id="Group_57866" data-name="Group 57866">
                <g id="Group_57865" data-name="Group 57865">
                  <path id="Path_5184" data-name="Path 5184" d="M100.507,185.471a1.586,1.586,0,0,0,.082.261l.271.754,1.075,2.886c.48,1.248,1.033,2.788,1.674,4.576l1.033,2.861,1.113,3.224c1.579,4.513,3.332,9.93,5.225,15.961,1.858,6.042,3.81,12.712,5.731,19.75,1.894,7.047,3.574,13.793,5,19.951,1.389,6.167,2.584,11.734,3.447,16.437q.332,1.761.632,3.351l.51,3c.323,1.871.6,3.484.785,4.808.2,1.308.358,2.33.467,3.043l.13.791a1.583,1.583,0,0,0,.056.268,1.6,1.6,0,0,0-.021-.272c-.024-.195-.056-.458-.1-.8-.095-.716-.231-1.742-.4-3.054-.166-1.328-.423-2.944-.728-4.819l-.484-3.005-.609-3.358c-.833-4.712-2-10.288-3.377-16.463-1.414-6.166-3.085-12.919-4.981-19.97-1.921-7.042-3.884-13.714-5.76-19.754-1.911-6.03-3.689-11.442-5.3-15.947q-.6-1.691-1.137-3.217l-1.058-2.854c-.658-1.782-1.23-3.316-1.729-4.558l-1.135-2.863-.3-.742A1.626,1.626,0,0,0,100.507,185.471Z" transform="translate(-100.507 -185.471)" fill="#263238"/>
                </g>
              </g>
            </g>
            <g id="Group_57870" data-name="Group 57870" transform="translate(25.846 25.494)">
              <g id="Group_57869" data-name="Group 57869">
                <g id="Group_57868" data-name="Group 57868">
                  <path id="Path_5185" data-name="Path 5185" d="M174.256,236.746a.973.973,0,0,0-.154.145l-.426.448c-.372.4-.912.989-1.585,1.773a62.38,62.38,0,0,0-5.247,7,46.98,46.98,0,0,0-5.487,11.739,114.888,114.888,0,0,0-3.291,15.536c-1.812,11.113-4.036,21.066-5.646,28.266-.811,3.582-1.469,6.488-1.93,8.523-.219.99-.391,1.768-.514,2.32-.052.251-.093.45-.125.605a.99.99,0,0,0-.031.209.953.953,0,0,0,.066-.2l.158-.6.576-2.3c.486-2.03,1.18-4.927,2.036-8.5,1.67-7.187,3.932-17.141,5.747-28.264a117.515,117.515,0,0,1,3.255-15.5,47.506,47.506,0,0,1,5.39-11.7,67.259,67.259,0,0,1,5.146-7.04c.656-.8,1.179-1.4,1.534-1.813l.4-.47A.954.954,0,0,0,174.256,236.746Z" transform="translate(-149.818 -236.746)" fill="#263238"/>
                </g>
              </g>
            </g>
            <g id="Group_57873" data-name="Group 57873" transform="translate(0 70.859)">
              <g id="Group_57872" data-name="Group 57872">
                <g id="Group_57871" data-name="Group 57871">
                  <path id="Path_5186" data-name="Path 5186" d="M97.836,328a1.177,1.177,0,0,0,.321.059l.922.1.667.065.788.119c.566.084,1.211.167,1.914.323l1.106.22,1.185.3c.825.186,1.677.488,2.586.763a37.99,37.99,0,0,1,5.643,2.486,31.891,31.891,0,0,1,5.06,3.515,25.509,25.509,0,0,1,1.941,1.863,20.286,20.286,0,0,1,1.536,1.773,18.508,18.508,0,0,1,1.137,1.568,11.543,11.543,0,0,1,.779,1.239l.473.8a1.223,1.223,0,0,0,.185.269,1.127,1.127,0,0,0-.124-.3l-.419-.832a10.268,10.268,0,0,0-.734-1.278,17.147,17.147,0,0,0-1.106-1.611,19.333,19.333,0,0,0-1.521-1.818,24.266,24.266,0,0,0-1.942-1.907,30.764,30.764,0,0,0-5.1-3.576,36.3,36.3,0,0,0-5.709-2.487c-.919-.268-1.782-.563-2.616-.739l-1.2-.283-1.119-.2c-.71-.142-1.362-.208-1.933-.275l-.8-.091-.672-.036-.93-.038A1.194,1.194,0,0,0,97.836,328Z" transform="translate(-97.836 -327.987)" fill="#263238"/>
                </g>
              </g>
            </g>
          </g>
          <g id="Group_57877" data-name="Group 57877" transform="translate(22.838 33.129)">
            <g id="Group_57876" data-name="Group 57876">
              <g id="Group_57875" data-name="Group 57875">
                <path id="Path_5187" data-name="Path 5187" d="M92.73,237.174a4.439,4.439,0,0,0,.642.619l1.834,1.591c1.559,1.332,3.727,3.155,6.135,5.152s4.6,3.791,6.2,5.076l1.9,1.508a4.456,4.456,0,0,0,.726.516,4.483,4.483,0,0,0-.643-.619l-1.835-1.592c-1.559-1.333-3.727-3.154-6.134-5.151s-4.6-3.788-6.2-5.073l-1.9-1.508A4.494,4.494,0,0,0,92.73,237.174Z" transform="translate(-92.73 -237.173)" fill="#263238"/>
              </g>
            </g>
          </g>
          <g id="Group_57880" data-name="Group 57880" transform="translate(20.647 44.915)">
            <g id="Group_57879" data-name="Group 57879">
              <g id="Group_57878" data-name="Group 57878">
                <path id="Path_5188" data-name="Path 5188" d="M88.324,260.883c-.027.091,4.653,1.553,10.451,3.266s10.522,3.029,10.549,2.939-4.652-1.552-10.452-3.266S88.35,260.793,88.324,260.883Z" transform="translate(-88.324 -260.878)" fill="#263238"/>
              </g>
            </g>
          </g>
          <g id="Group_57883" data-name="Group 57883" transform="translate(37.925 23.564)">
            <g id="Group_57882" data-name="Group 57882">
              <g id="Group_57881" data-name="Group 57881">
                <path id="Path_5189" data-name="Path 5189" d="M123.076,234.6a3.864,3.864,0,0,0,.483-.672l1.234-1.879c1.046-1.583,2.532-3.742,4.288-6.042s3.451-4.3,4.7-5.731l1.482-1.691a3.814,3.814,0,0,0,.518-.646,3.876,3.876,0,0,0-.614.555c-.381.371-.916.925-1.564,1.621-1.3,1.392-3.024,3.377-4.791,5.685s-3.223,4.5-4.22,6.119c-.5.81-.889,1.474-1.144,1.941A3.859,3.859,0,0,0,123.076,234.6Z" transform="translate(-123.074 -217.935)" fill="#263238"/>
              </g>
            </g>
          </g>
          <g id="Group_57886" data-name="Group 57886" transform="translate(54.176 46.769)">
            <g id="Group_57885" data-name="Group 57885">
              <g id="Group_57884" data-name="Group 57884">
                <path id="Path_5190" data-name="Path 5190" d="M155.762,264.607a15.353,15.353,0,0,0,1.1,1.805c.7,1.1,1.648,2.627,2.63,4.353s1.811,3.323,2.4,4.486a15.408,15.408,0,0,0,.991,1.866,11.213,11.213,0,0,0-.773-1.97c-.533-1.193-1.333-2.815-2.319-4.55s-1.973-3.25-2.726-4.318A11.18,11.18,0,0,0,155.762,264.607Z" transform="translate(-155.76 -264.606)" fill="#263238"/>
              </g>
            </g>
          </g>
          <g id="Group_57889" data-name="Group 57889" transform="translate(59.739 61.316)">
            <g id="Group_57888" data-name="Group 57888">
              <g id="Group_57887" data-name="Group 57887">
                <path id="Path_5191" data-name="Path 5191" d="M166.948,299.712c.024.046.917-.39,2.378-1.048s3.5-1.517,5.807-2.326,4.438-1.407,5.99-1.8,2.522-.612,2.512-.664a2.763,2.763,0,0,0-.7.073c-.445.067-1.085.187-1.871.357a52.21,52.21,0,0,0-11.845,4.146c-.72.357-1.3.662-1.685.888A2.758,2.758,0,0,0,166.948,299.712Z" transform="translate(-166.947 -293.864)" fill="#263238"/>
              </g>
            </g>
          </g>
          <g id="Group_57892" data-name="Group 57892" transform="translate(55.362 91.542)">
            <g id="Group_57891" data-name="Group 57891">
              <g id="Group_57890" data-name="Group 57890">
                <path id="Path_5192" data-name="Path 5192" d="M158.144,354.661a1.033,1.033,0,0,0,.288.1l.842.215,3.113.718a102.647,102.647,0,0,1,10.165,2.683,45.137,45.137,0,0,1,9.485,4.456c1.134.722,2.017,1.359,2.613,1.819a9.285,9.285,0,0,0,.942.7c.008-.009-.064-.085-.209-.221s-.357-.34-.65-.579a27.264,27.264,0,0,0-2.565-1.918,41.59,41.59,0,0,0-9.505-4.576,85.065,85.065,0,0,0-10.226-2.6l-3.135-.613A7.838,7.838,0,0,0,158.144,354.661Z" transform="translate(-158.144 -354.657)" fill="#263238"/>
              </g>
            </g>
          </g>
          <g id="Group_57895" data-name="Group 57895" transform="translate(39.519 82.845)">
            <g id="Group_57894" data-name="Group 57894">
              <g id="Group_57893" data-name="Group 57893">
                <path id="Path_5193" data-name="Path 5193" d="M126.293,351.876c.093.013.651-3.269,1.245-7.331s1-7.367.907-7.381-.65,3.269-1.245,7.332S126.2,351.862,126.293,351.876Z" transform="translate(-126.279 -337.164)" fill="#263238"/>
              </g>
            </g>
          </g>
          <g id="Group_57898" data-name="Group 57898" transform="translate(23.05 79.536)">
            <g id="Group_57897" data-name="Group 57897">
              <g id="Group_57896" data-name="Group 57896">
                <path id="Path_5194" data-name="Path 5194" d="M93.158,342.546a17.287,17.287,0,0,0,1.485-1.764c.891-1.109,2.125-2.636,3.52-4.3s2.688-3.14,3.627-4.208a17.207,17.207,0,0,0,1.482-1.767,2.185,2.185,0,0,0-.472.4c-.288.275-.695.685-1.187,1.2-.986,1.029-2.31,2.487-3.711,4.152s-2.606,3.221-3.45,4.369c-.422.574-.756,1.045-.977,1.376A2.186,2.186,0,0,0,93.158,342.546Z" transform="translate(-93.156 -330.509)" fill="#263238"/>
              </g>
            </g>
          </g>
        </g>
        <g id="Group_57901" data-name="Group 57901" transform="translate(31.613 106.857)">
          <g id="Group_57900" data-name="Group 57900">
            <path id="Path_5195" data-name="Path 5195" d="M145.431,385.46V393.6H143.4l-7.239,22.847H120.1l-7.012-22.621-2.714-.226V385.46Z" transform="translate(-110.378 -385.46)" fill="#455a64"/>
          </g>
        </g>
        <g id="Group_57904" data-name="Group 57904" transform="translate(32.97 115.057)">
          <g id="Group_57903" data-name="Group 57903">
            <g id="Group_57902" data-name="Group 57902">
              <path id="Path_5196" data-name="Path 5196" d="M113.108,402.121c0,.094,7.088.171,15.829.171s15.831-.077,15.831-.171-7.086-.171-15.831-.171S113.108,402.027,113.108,402.121Z" transform="translate(-113.108 -401.95)" fill="#263238"/>
            </g>
          </g>
        </g>
        <g id="Group_57907" data-name="Group 57907" transform="translate(21.425 62.841)">
          <g id="Group_57906" data-name="Group 57906">
            <g id="Group_57905" data-name="Group 57905">
              <path id="Path_5197" data-name="Path 5197" d="M89.888,296.936a6.309,6.309,0,0,0,1.029.278l2.818.679c2.374.588,5.635,1.481,9.172,2.668s6.675,2.451,8.922,3.417l2.656,1.161a6.343,6.343,0,0,0,.987.4,6.387,6.387,0,0,0-.93-.52c-.608-.317-1.5-.75-2.615-1.262a92.578,92.578,0,0,0-18.137-6.1c-1.2-.266-2.17-.46-2.846-.575A6.406,6.406,0,0,0,89.888,296.936Z" transform="translate(-89.888 -296.931)" fill="#263238"/>
            </g>
          </g>
        </g>
        <g id="Group_57910" data-name="Group 57910" transform="translate(38.299 127.744)">
          <g id="Group_57909" data-name="Group 57909" transform="translate(0)">
            <g id="Group_57908" data-name="Group 57908">
              <path id="Path_5198" data-name="Path 5198" d="M123.826,427.638c0,.094,4.973.171,11.106.171s11.107-.077,11.107-.171-4.972-.171-11.107-.171S123.826,427.544,123.826,427.638Z" transform="translate(-123.826 -427.467)" fill="#fafafa"/>
            </g>
          </g>
        </g>
        <g id="Group_57913" data-name="Group 57913" transform="translate(37.674 125.855)">
          <g id="Group_57912" data-name="Group 57912" transform="translate(0)">
            <g id="Group_57911" data-name="Group 57911">
              <path id="Path_5199" data-name="Path 5199" d="M122.57,423.839c0,.094,5.27.171,11.77.171s11.77-.076,11.77-.171-5.269-.17-11.77-.17S122.57,423.745,122.57,423.839Z" transform="translate(-122.57 -423.669)" fill="#fafafa"/>
            </g>
          </g>
        </g>
      </g>
    </g>
  </g>
</svg>
