<svg width="20" height="16" viewBox="0 0 20 16" fill="none" xmlns="http://www.w3.org/2000/svg">
<path d="M7.15516 0.475846C7.90111 0.437434 8.65859 0.644088 9.27893 1.06124C9.94691 1.50374 10.4536 2.18285 10.6871 2.94955C10.9145 3.68129 10.8914 4.48793 10.6226 5.20584C10.3429 5.96447 9.79134 6.619 9.09033 7.02155C8.39316 7.42756 7.55387 7.58044 6.75837 7.44715C5.98438 7.32155 5.25917 6.92399 4.7337 6.34244C4.29465 5.86229 3.99389 5.25731 3.87789 4.61699C3.72194 3.77732 3.88672 2.88233 4.3346 2.15443C4.92191 1.17532 6.01434 0.525397 7.15516 0.475846ZM7.11944 1.71039C6.31049 1.78069 5.56492 2.31806 5.2438 3.06401C5.01871 3.56759 4.98837 4.15336 5.15776 4.67807C5.34636 5.27613 5.79347 5.78739 6.36388 6.04897C6.88705 6.29903 7.50739 6.33283 8.05629 6.14731C8.5445 5.98598 8.97279 5.65218 9.24974 5.21967C9.5409 4.77179 9.66535 4.21905 9.59506 3.68935C9.52208 3.10857 9.21402 2.56159 8.75423 2.1986C8.29982 1.83216 7.70022 1.65546 7.11944 1.71039Z" fill="#5F6B7A"/>
<path d="M14.3869 2.6046C14.9677 2.52202 15.575 2.64263 16.0789 2.94262C16.5649 3.22802 16.9524 3.6759 17.1652 4.19753C17.3738 4.70264 17.4184 5.2742 17.2878 5.80505C17.1514 6.37469 16.8157 6.89478 16.3513 7.2524C15.8262 7.66378 15.139 7.85891 14.476 7.78708C13.9221 7.73024 13.3901 7.48786 12.9822 7.10989C12.5762 6.7373 12.2923 6.23372 12.1879 5.69289C12.0588 5.04412 12.1894 4.3481 12.5462 3.79113C12.9473 3.1512 13.6394 2.70716 14.3869 2.6046ZM14.4979 3.83185C14.1714 3.891 13.8703 4.07423 13.6659 4.33542C13.2592 4.83055 13.2741 5.60838 13.6994 6.08814C14.1054 6.58058 14.8663 6.71924 15.4194 6.40004C15.9914 6.09775 16.2783 5.36485 16.062 4.75449C15.8638 4.11456 15.1548 3.69395 14.4979 3.83185Z" fill="#5F6B7A"/>
<path d="M4.76444 8.999C5.95136 8.47545 7.29922 8.32833 8.57141 8.58146C9.62004 8.78428 10.6111 9.26058 11.4331 9.94123C12.1806 9.15956 13.2104 8.65598 14.2867 8.54689C15.391 8.42935 16.533 8.73396 17.4326 9.38503C18.6471 10.2455 19.4038 11.7247 19.3535 13.2158C19.3205 13.4782 19.0977 13.7033 18.8354 13.7382C18.729 13.7513 18.6214 13.7451 18.515 13.7463C16.8902 13.7459 15.2654 13.7459 13.6402 13.7463C13.7059 14.1308 13.7462 14.521 13.7401 14.9117C13.7274 15.2343 13.4216 15.5048 13.0997 15.4848C9.24476 15.484 5.38978 15.4859 1.53442 15.484C1.21061 15.4898 0.915991 15.1998 0.92329 14.8744C0.919448 13.6591 1.27399 12.4457 1.93006 11.4228C2.60648 10.3572 3.60672 9.5018 4.76444 8.999ZM3.66741 11.2007C2.84924 12.0143 2.31993 13.1094 2.18818 14.2552C5.61795 14.2552 9.04771 14.2568 12.4771 14.2545C12.3012 12.786 11.4738 11.407 10.2442 10.5804C9.27626 9.91819 8.07859 9.59975 6.90973 9.70001C5.69592 9.79373 4.52475 10.3369 3.66741 11.2007ZM13.9559 9.84828C13.3225 10.0012 12.7383 10.3442 12.2927 10.8189C12.706 11.3302 13.0414 11.9041 13.2822 12.516C14.8805 12.5156 16.4792 12.5206 18.0775 12.5137C17.89 11.5023 17.2217 10.5931 16.3029 10.1275C15.5877 9.75647 14.738 9.6543 13.9559 9.84828Z" fill="#5F6B7A"/>
</svg>
