<svg width="20" height="20" viewBox="0 0 20 20" fill="none" xmlns="http://www.w3.org/2000/svg">
<path d="M7.67685 3.25522C7.861 3.18793 8.06017 3.18463 8.25422 3.18613C9.46665 3.18733 10.6791 3.18523 11.8915 3.18703C12.2261 3.18283 12.5641 3.315 12.7879 3.56734C12.9819 3.77702 13.0838 4.0615 13.0844 4.34598C13.088 4.80349 13.0841 5.26131 13.0862 5.71912C13.7987 5.71942 14.511 5.71912 15.2232 5.71912C15.9929 5.69088 16.7628 6.05677 17.2173 6.6795C17.5096 7.06942 17.6724 7.55127 17.6865 8.03792V14.9006C17.6766 15.3566 17.5045 15.8069 17.2008 16.1479C16.8367 16.5654 16.2876 16.8106 15.7339 16.8054C11.9182 16.8067 8.10282 16.806 4.28712 16.8057C3.81038 16.8142 3.33274 16.6441 2.97406 16.329C2.56311 15.9757 2.31678 15.444 2.30597 14.9027V8.04423C2.31979 7.37704 2.6274 6.72366 3.13658 6.29198C3.55354 5.9318 4.09967 5.72543 4.65091 5.72092C5.40251 5.71671 6.15442 5.72062 6.90632 5.71912C6.90692 5.29255 6.90692 4.86598 6.90632 4.43941C6.90662 4.27118 6.91894 4.09935 6.97902 3.94044C7.09317 3.62261 7.35753 3.36487 7.67685 3.25522ZM7.81324 4.32285C7.80753 4.78817 7.81233 5.2538 7.81113 5.71912C9.26778 5.71912 10.7247 5.71912 12.1814 5.71912C12.1823 5.28233 12.1808 4.84555 12.1823 4.40877C12.1814 4.32946 12.1817 4.24054 12.1252 4.17806C12.0693 4.10746 11.9753 4.08974 11.8903 4.09034C10.619 4.09124 9.34769 4.08944 8.07639 4.09124C7.94391 4.08283 7.81173 4.18497 7.81324 4.32285ZM3.70073 7.00304C3.38351 7.28481 3.20177 7.71018 3.21018 8.13435C3.21018 8.41522 3.20928 8.6961 3.21048 8.97698C3.20868 9.20318 3.27446 9.43118 3.40904 9.61413C3.55504 9.8172 3.77854 9.95989 4.02156 10.0143C5.44937 10.3615 6.87628 10.7118 8.30379 11.0597C8.31671 10.7743 8.43987 10.4946 8.65496 10.3045C8.84662 10.1275 9.10616 10.0335 9.36571 10.0296C9.77606 10.0263 10.1864 10.0281 10.5968 10.0287C10.859 10.0284 11.1243 10.1143 11.3216 10.2903C11.546 10.4805 11.6758 10.7671 11.6887 11.0594C13.1234 10.7103 14.5573 10.3582 15.992 10.0092C16.4273 9.91123 16.7649 9.50328 16.779 9.05718C16.7868 8.74927 16.7805 8.44136 16.7823 8.13345C16.7886 7.76816 16.6568 7.40047 16.4134 7.1271C16.1896 6.86425 15.8661 6.69663 15.5279 6.63955C15.387 6.61942 15.2443 6.62213 15.1028 6.62243C11.6383 6.62273 8.17372 6.62213 4.70948 6.62273C4.34179 6.61912 3.9732 6.7555 3.70073 7.00304ZM3.21018 10.6463C3.20958 12.0315 3.21018 13.4169 3.20988 14.8021C3.20988 14.9802 3.23661 15.1613 3.31862 15.3215C3.46552 15.6264 3.77223 15.8487 4.10868 15.8892C4.24807 15.9069 4.38896 15.9012 4.52924 15.9018C8.24461 15.9021 11.96 15.9015 15.6754 15.9021C15.8661 15.9033 16.0602 15.8724 16.2293 15.7796C16.5648 15.6071 16.7826 15.2398 16.7811 14.8637C16.7844 13.4578 16.7817 12.0519 16.7823 10.6463C16.588 10.7599 16.3795 10.8518 16.1584 10.8989C14.6687 11.2624 13.1793 11.6271 11.6899 11.9912C11.6872 12.1687 11.6986 12.3472 11.6737 12.5238C11.6295 12.8245 11.4451 13.0994 11.1867 13.2589C11.0032 13.377 10.7827 13.422 10.5664 13.4208C10.1558 13.4187 9.74482 13.4253 9.33417 13.4175C8.91331 13.4112 8.51527 13.1264 8.37258 12.7305C8.28036 12.4953 8.3068 12.2381 8.30259 11.9912C6.78316 11.6196 5.26403 11.248 3.74459 10.877C3.55594 10.8272 3.3784 10.7439 3.21018 10.6463ZM9.31615 10.9413C9.24525 10.9611 9.20229 11.0356 9.2077 11.1074C9.2062 11.5178 9.2065 11.9284 9.2074 12.3388C9.19779 12.4289 9.27018 12.5184 9.36331 12.5151C9.77546 12.519 10.1876 12.516 10.5998 12.5166C10.6881 12.5265 10.7836 12.464 10.783 12.3694C10.7896 11.969 10.783 11.5679 10.7863 11.1672C10.7836 11.1062 10.7923 11.0347 10.7461 10.987C10.6878 10.9152 10.5856 10.9356 10.5048 10.9317C10.1089 10.9389 9.71117 10.9197 9.31615 10.9413Z" fill="#5F6B7A"/>
</svg>
