<svg xmlns="http://www.w3.org/2000/svg" width="20.956" height="22.614" viewBox="205 480 20.956 22.614"><g data-name="Icon akar-shipping-box-v2"><path d="M214.348 480.293a2.328 2.328 0 0 1 2.26 0l8.75 4.86c.369.205.598.594.598 1.017v9.587c0 .845-.458 1.624-1.197 2.035l-8.15 4.53c-.704.39-1.558.39-2.261 0l-8.15-4.53a2.328 2.328 0 0 1-1.198-2.034v-9.588c0-.423.23-.812.598-1.018l8.75-4.86Z" stroke-linejoin="round" stroke-linecap="round" stroke-width="1.5" stroke="#000" fill="transparent" data-name="Path 62"/><path d="m210.239 482.575 10.478 5.82v4.076m-12.224-.783 3.492 1.947" stroke-linejoin="round" stroke-linecap="round" stroke-width="1.5" stroke="#000" fill="transparent" data-name="Path 63"/><path d="m205 485.485 10.478 5.821m0 0 10.478-5.82m-10.478 5.82v11.06" stroke-linejoin="round" stroke-linecap="round" stroke-width="1.5" stroke="#000" fill="transparent" data-name="Path 64"/></g></svg>