<svg xmlns="http://www.w3.org/2000/svg" width="24.221" height="21.799" viewBox="49.04 14.44 24.221 21.799"><g data-name="Icon material-twotone-support-agent"><path d="M72.05 25.606c0-6.649-5.16-11.166-10.9-11.166-5.68 0-10.899 4.42-10.899 11.238a2.383 2.383 0 0 0-1.211 2.083v2.422a2.43 2.43 0 0 0 2.422 2.422h1.211v-7.387a8.471 8.471 0 0 1 8.477-8.477 8.471 8.471 0 0 1 8.478 8.477v8.599h-9.689v2.422h9.689a2.43 2.43 0 0 0 2.422-2.422v-1.478a2.24 2.24 0 0 0 1.21-1.986v-2.785c0-.848-.496-1.587-1.21-1.962Z" fill-rule="evenodd" data-name="Path 52"/><path d="M58.728 26.55a1.211 1.211 0 1 1-2.422 0 1.211 1.211 0 0 1 2.422 0Z" fill-rule="evenodd" data-name="Path 53"/><path d="M65.995 26.55a1.211 1.211 0 1 1-2.423 0 1.211 1.211 0 0 1 2.423 0Z" fill-rule="evenodd" data-name="Path 54"/><path d="M68.417 24.165a7.315 7.315 0 0 0-7.206-6.092c-3.67 0-7.617 3.04-7.303 7.811a9.78 9.78 0 0 0 5.886-7.133c1.586 3.185 4.844 5.377 8.623 5.414Z" fill-rule="evenodd" data-name="Path 55"/></g></svg>