<svg width="345" height="247" viewBox="0 0 345 247" fill="none" xmlns="http://www.w3.org/2000/svg">
<g clip-path="url(#clip0_3660_11345)">
<path d="M345 0H0V197H345V0Z" fill="white"/>
<path d="M193.957 60.5959C184.737 60.5959 176.07 64.1832 169.55 70.698C163.031 77.2128 159.441 85.8739 159.441 95.0866C159.441 104.299 163.031 112.96 169.55 119.475C176.07 125.99 184.737 129.577 193.957 129.577C203.176 129.577 211.843 125.99 218.363 119.475C224.882 112.96 228.472 104.299 228.472 95.0866C228.472 85.8739 224.882 77.2128 218.363 70.698C211.843 64.1832 203.176 60.5959 193.957 60.5959ZM193.957 129.941C189.248 129.941 184.68 129.019 180.38 127.202C176.227 125.446 172.497 122.933 169.294 119.732C166.091 116.532 163.576 112.804 161.819 108.654C160.001 104.357 159.078 99.792 159.078 95.0876C159.078 90.3833 160.001 85.8178 161.819 81.5212C163.576 77.3704 166.091 73.6432 169.294 70.4429C172.498 67.2417 176.228 64.7289 180.38 62.9737C184.681 61.1563 189.249 60.2344 193.957 60.2344C198.664 60.2344 203.233 61.1563 207.533 62.9737C211.687 64.7289 215.417 67.2426 218.619 70.4429C221.823 73.6442 224.337 77.3714 226.094 81.5212C227.913 85.8188 228.835 90.3833 228.835 95.0876C228.835 99.792 227.913 104.357 226.094 108.654C224.337 112.805 221.822 116.532 218.619 119.732C215.417 122.933 211.686 125.446 207.533 127.202C203.232 129.019 198.664 129.941 193.957 129.941Z" fill="#FFEADA"/>
<path d="M161.046 62.2018C156.751 66.4935 153.391 71.4864 151.066 76.9837C148.657 82.678 147.415 88.788 147.415 95.087C147.415 101.386 148.657 107.497 151.066 113.191C153.391 118.689 156.752 123.681 161.046 127.973C165.342 132.265 170.338 135.623 175.839 137.946C181.537 140.354 187.651 141.595 193.955 141.595C200.26 141.595 206.375 140.354 212.072 137.946C217.573 135.623 222.569 132.265 226.865 127.973C231.16 123.681 234.52 118.689 236.845 113.191C239.254 107.497 240.496 101.388 240.496 95.087C240.496 88.786 239.254 82.677 236.845 76.9837C234.52 71.4864 231.159 66.4945 226.865 62.2018C222.57 57.9092 217.573 54.5523 212.072 52.2287C206.374 49.8214 200.26 48.5803 193.955 48.5803C187.651 48.5803 181.536 49.8214 175.839 52.2287C170.338 54.5523 165.342 57.9102 161.046 62.2018ZM193.956 141.957C187.624 141.957 181.482 140.718 175.699 138.274C170.114 135.913 165.098 132.534 160.79 128.229C156.483 123.925 153.101 118.912 150.738 113.331C148.292 107.553 147.052 101.415 147.052 95.087C147.052 88.7594 148.292 82.6219 150.738 76.8429C153.101 71.2619 156.483 66.2492 160.79 61.9447C165.098 57.6403 170.114 54.2608 175.699 51.8997C181.482 49.4559 187.624 48.2168 193.956 48.2168C200.289 48.2168 206.431 49.4559 212.214 51.8997C217.799 54.2608 222.815 57.6403 227.123 61.9447C231.43 66.2492 234.812 71.2619 237.175 76.8429C239.621 82.6219 240.861 88.7594 240.861 95.087C240.861 101.415 239.621 107.552 237.175 113.331C234.812 118.912 231.43 123.925 227.123 128.229C222.815 132.534 217.799 135.913 212.214 138.274C206.431 140.718 200.289 141.957 193.956 141.957Z" fill="#FFEADA"/>
<path d="M152.544 53.7046C147.155 59.0896 142.93 65.3582 139.99 72.3064C136.945 79.5018 135.391 87.1749 135.391 95.0864C135.391 102.998 136.945 110.672 139.99 117.867C142.93 124.815 147.155 131.083 152.544 136.468C157.933 141.853 164.206 146.075 171.159 149.013C178.36 152.056 186.039 153.609 193.956 153.609C201.873 153.609 209.553 152.056 216.752 149.013C223.706 146.075 229.979 141.853 235.368 136.468C240.757 131.083 244.981 124.815 247.922 117.867C250.967 110.671 252.521 102.998 252.521 95.0864C252.521 87.1749 250.967 79.5008 247.922 72.3064C244.981 65.3582 240.757 59.0896 235.368 53.7046C229.979 48.3196 223.706 44.0979 216.752 41.1597C209.552 38.117 201.873 36.5637 193.956 36.5637C186.039 36.5637 178.359 38.117 171.159 41.1597C164.206 44.0979 157.933 48.3196 152.544 53.7046ZM193.957 153.973C186.001 153.973 178.284 152.415 171.019 149.345C164.002 146.379 157.7 142.133 152.288 136.725C146.876 131.318 142.627 125.02 139.659 118.007C136.586 110.747 135.028 103.035 135.028 95.0864C135.028 87.1375 136.586 79.425 139.659 72.1655C142.627 65.1533 146.876 58.8562 152.288 53.4475C157.699 48.0399 164.002 43.7936 171.019 40.8277C178.285 37.7575 186.002 36.2002 193.957 36.2002C201.912 36.2002 209.63 37.7575 216.894 40.8277C223.912 43.7936 230.213 48.0399 235.626 53.4475C241.037 58.8552 245.287 65.1533 248.255 72.1655C251.327 79.425 252.886 87.1375 252.886 95.0864C252.886 103.035 251.327 110.748 248.255 118.007C245.287 125.02 241.037 131.317 235.626 136.725C230.214 142.134 223.912 146.379 216.894 149.345C209.629 152.415 201.912 153.973 193.957 153.973Z" fill="#FFEADA"/>
<path d="M193.957 24.5471C184.427 24.5471 175.183 26.4117 166.48 30.0906C158.074 33.6435 150.525 38.7291 144.042 45.2074C137.559 51.6858 132.469 59.2299 128.914 67.629C125.234 76.3255 123.367 85.5629 123.367 95.0859C123.367 104.609 125.233 113.846 128.914 122.543C132.47 130.943 137.56 138.486 144.042 144.964C150.525 151.443 158.075 156.529 166.48 160.081C175.183 163.759 184.427 165.625 193.957 165.625C203.487 165.625 212.731 163.76 221.433 160.081C229.84 156.528 237.388 151.442 243.871 144.964C250.354 138.486 255.444 130.942 258.999 122.543C262.68 113.846 264.547 104.609 264.547 95.0859C264.547 85.5629 262.681 76.3255 258.999 67.629C255.443 59.2289 250.353 51.6858 243.871 45.2074C237.388 38.7291 229.839 33.6425 221.433 30.0906C212.731 26.4126 203.487 24.5471 193.957 24.5471ZM193.957 165.989C184.378 165.989 175.086 164.115 166.338 160.417C157.888 156.846 150.3 151.733 143.785 145.222C137.268 138.711 132.152 131.128 128.579 122.686C124.879 113.944 123.003 104.659 123.003 95.0868C123.003 85.5146 124.879 76.23 128.579 67.4881C132.152 59.0447 137.269 51.4622 143.785 44.9513C150.301 38.4395 157.889 33.3273 166.338 29.7567C175.085 26.059 184.377 24.1846 193.957 24.1846C203.536 24.1846 212.827 26.059 221.575 29.7567C230.025 33.3273 237.613 38.4405 244.128 44.9513C250.645 51.4632 255.761 59.0457 259.334 67.4881C263.034 76.229 264.91 85.5146 264.91 95.0868C264.91 104.659 263.034 113.944 259.334 122.686C255.76 131.129 250.644 138.711 244.128 145.222C237.612 151.734 230.024 156.846 221.575 160.417C212.827 164.115 203.536 165.989 193.957 165.989Z" fill="#FFEADA"/>
<path d="M137.878 101.718C138.201 100.353 137.355 98.9851 135.989 98.6629C134.623 98.3408 133.254 99.1861 132.932 100.551C132.609 101.916 133.455 103.284 134.821 103.606C136.187 103.928 137.556 103.083 137.878 101.718Z" fill="#FF9C4E"/>
<path d="M260.55 121.31C261.566 121.31 262.39 120.487 262.39 119.472C262.39 118.457 261.566 117.634 260.55 117.634C259.534 117.634 258.711 118.457 258.711 119.472C258.711 120.487 259.534 121.31 260.55 121.31Z" fill="#FF9C4E"/>
<path d="M191.75 27.6662C193.521 27.6662 194.956 26.2321 194.956 24.463C194.956 22.6939 193.521 21.2598 191.75 21.2598C189.98 21.2598 188.545 22.6939 188.545 24.463C188.545 26.2321 189.98 27.6662 191.75 27.6662Z" fill="#FF9C4E"/>
<path d="M228.81 89.821C229.389 89.2425 229.389 88.3045 228.81 87.7259C228.231 87.1474 227.292 87.1474 226.713 87.7259C226.134 88.3045 226.134 89.2424 226.713 89.821C227.292 90.3995 228.231 90.3995 228.81 89.821Z" fill="#FF9C4E"/>
<path d="M175.546 54.1653C176.531 54.1653 177.33 53.3675 177.33 52.3834C177.33 51.3993 176.531 50.6016 175.546 50.6016C174.562 50.6016 173.763 51.3993 173.763 52.3834C173.763 53.3675 174.562 54.1653 175.546 54.1653Z" fill="#FF9C4E"/>
<path d="M132.899 138.506L126.476 130.5C125.653 131.15 125.387 132.281 125.834 133.228L127.577 136.92L117.172 133.684C116.315 133.461 115.468 134.079 115.42 134.962L115.337 136.456C115.175 139.394 117.329 141.95 120.254 142.288L127.568 143.136L130.75 143.48L132.899 138.506Z" fill="#FFC0B1"/>
<path d="M128.063 140.955C127.996 140.955 127.93 140.922 127.89 140.862C126.663 139.044 127.349 136.942 127.379 136.853C127.415 136.744 127.534 136.685 127.643 136.722C127.753 136.759 127.812 136.877 127.774 136.986C127.767 137.006 127.127 138.984 128.235 140.629C128.299 140.724 128.274 140.854 128.178 140.918C128.143 140.943 128.102 140.954 128.062 140.954L128.063 140.955Z" fill="#542D10"/>
<path d="M165.888 145.899L161.092 152.747L132.186 137.6L129.308 143.122L154.925 163.2C157.09 164.897 159.817 165.712 162.56 165.482C165.573 165.229 168.346 163.737 170.214 161.361L178.03 151.423L165.888 145.899Z" fill="#FFC0B1"/>
<path d="M163.137 158.926C163.137 158.926 163.13 158.926 163.127 158.926C163.011 158.92 162.922 158.823 162.928 158.708C163.11 155.096 160.967 152.917 160.945 152.896C160.863 152.814 160.863 152.682 160.945 152.601C161.027 152.519 161.158 152.519 161.24 152.6C161.334 152.693 163.537 154.924 163.345 158.728C163.339 158.839 163.248 158.926 163.137 158.926Z" fill="#542D10"/>
<path d="M178.848 120.2L161.555 146.392L176.176 153.781L178.848 120.2Z" fill="#542D10"/>
<path d="M186.839 116.054H208.386C212.929 116.054 216.818 119.309 217.614 123.778L227.479 179.135H174.926L177.08 125.424C177.29 120.19 181.597 116.054 186.84 116.054H186.839Z" fill="#FF7000"/>
<path d="M188.638 116.054C188.638 120.634 192.354 124.347 196.937 124.347C201.521 124.347 205.237 120.634 205.237 116.054H188.638Z" fill="#FFC0B1"/>
<path d="M197.132 121.305C199.957 121.305 202.182 118.901 201.964 116.087L200.652 99.2256H193.801L192.305 116.034C192.052 118.866 194.286 121.305 197.132 121.305Z" fill="#FFC0B1"/>
<path d="M201.919 85.165H180.249L180.429 86.5086C181.054 91.1519 181.253 95.8474 180.941 100.522C180.793 102.759 180.952 105.424 182.069 107.579C184.259 111.805 189.36 113.699 193.688 111.709C198.051 109.703 204.801 103.419 201.918 85.165H201.919Z" fill="#FFC0B1"/>
<path d="M189.753 101.01H187.752C187.435 101.01 187.144 100.865 186.951 100.614C186.759 100.362 186.698 100.043 186.783 99.7375L188.52 93.4739C188.553 93.3527 188.678 93.2808 188.801 93.3153C188.922 93.3488 188.993 93.4749 188.959 93.596L187.223 99.8596C187.176 100.026 187.21 100.2 187.314 100.338C187.419 100.476 187.578 100.555 187.751 100.555H189.752C189.878 100.555 189.98 100.657 189.98 100.783C189.98 100.908 189.877 101.01 189.752 101.01H189.753Z" fill="#542D10"/>
<path d="M192.476 95.2835C193.084 95.2835 193.576 94.7913 193.576 94.1842C193.576 93.5771 193.084 93.085 192.476 93.085C191.868 93.085 191.376 93.5771 191.376 94.1842C191.376 94.7913 191.868 95.2835 192.476 95.2835Z" fill="#542D10"/>
<path d="M184.628 95.0677C185.235 95.0677 185.728 94.5755 185.728 93.9684C185.728 93.3613 185.235 92.8691 184.628 92.8691C184.02 92.8691 183.528 93.3613 183.528 93.9684C183.528 94.5755 184.02 95.0677 184.628 95.0677Z" fill="#542D10"/>
<path d="M192.654 112.335C192.558 112.335 192.468 112.274 192.437 112.177C192.397 112.058 192.463 111.929 192.583 111.889C192.613 111.88 195.65 110.866 197.68 108.482C197.762 108.387 197.905 108.375 198.001 108.457C198.097 108.539 198.109 108.682 198.027 108.778C195.911 111.263 192.853 112.282 192.724 112.324C192.7 112.332 192.676 112.336 192.653 112.336L192.654 112.335Z" fill="#542D10"/>
<path d="M208.114 85.1651C205.738 79.0965 201.163 79.0965 200.188 79.1703C201.791 78.1588 202.857 76.3749 202.857 74.3409C202.857 71.1879 200.299 68.6318 197.144 68.6318C193.988 68.6318 191.43 71.1879 191.43 74.3409C191.43 75.1831 191.615 75.9819 191.942 76.7019C190.11 76.7138 188.271 77.0743 186.532 77.7785C177.814 81.3088 180.247 87.465 180.247 87.465C186.092 91.1686 193.776 88.9199 197.809 87.267L198.511 94.1867L200.071 101.085L201.175 105.965C201.175 105.965 210.781 91.9832 208.114 85.167V85.1651Z" fill="#542D10"/>
<path d="M186.973 92.3159C186.854 92.3159 186.733 92.2795 186.63 92.2036C184.273 90.4878 182.818 91.8343 182.757 91.8934C182.528 92.1209 182.161 92.1179 181.934 91.8894C181.706 91.6609 181.709 91.2896 181.938 91.063C182.684 90.3203 184.77 89.4072 187.318 91.262C187.578 91.4521 187.635 91.8165 187.446 92.0766C187.332 92.2332 187.154 92.3159 186.974 92.3159H186.973Z" fill="#542D10"/>
<path d="M194.541 92.353C194.422 92.353 194.302 92.3166 194.198 92.2407C191.841 90.5249 190.385 91.8724 190.325 91.9305C190.097 92.158 189.729 92.155 189.502 91.9265C189.274 91.698 189.277 91.3267 189.506 91.1001C190.252 90.3574 192.338 89.4443 194.886 91.2991C195.146 91.4892 195.204 91.8536 195.014 92.1137C194.9 92.2703 194.723 92.354 194.542 92.354L194.541 92.353Z" fill="#542D10"/>
<path d="M185.276 102.89C185.276 102.89 187.545 103.261 189.753 102.903C189.753 102.903 189.64 105.8 186.534 105.326C184.241 104.976 185.276 102.89 185.276 102.89Z" fill="white"/>
<path d="M187.053 105.589C185.838 105.589 185.199 104.915 185.166 104.879C185.098 104.806 185.103 104.691 185.176 104.623C185.25 104.555 185.364 104.559 185.432 104.633C185.466 104.669 186.279 105.511 187.852 105.124C189.412 104.74 189.57 102.906 189.572 102.888C189.58 102.788 189.667 102.713 189.767 102.721C189.866 102.729 189.941 102.816 189.933 102.915C189.931 102.936 189.75 105.029 187.938 105.475C187.616 105.555 187.32 105.588 187.053 105.588V105.589Z" fill="#542D10"/>
<path d="M201.978 90.8305C204.15 91.1585 205.825 93.2486 205.825 95.7791C205.825 98.5371 203.836 100.773 201.381 100.773C198.927 100.773 196.938 98.5371 196.938 95.7791C196.938 93.0211 198.927 90.7852 201.381 90.7852C201.583 90.7852 201.783 90.7999 201.978 90.8295" fill="#FF7000"/>
<path d="M201.005 100.754C200.978 100.754 200.951 100.749 200.925 100.739C199.129 100.04 197.922 98.0475 197.922 95.78C197.922 92.9058 199.873 90.5664 202.27 90.5664C202.392 90.5664 202.49 90.6649 202.49 90.7861C202.49 90.9072 202.392 91.0057 202.27 91.0057C200.116 91.0057 198.362 93.1471 198.362 95.78C198.362 97.8672 199.456 99.6964 201.085 100.33C201.198 100.374 201.254 100.501 201.21 100.614C201.176 100.701 201.092 100.754 201.005 100.754Z" fill="#542D10"/>
<path d="M198.204 98.6132C198.083 98.5787 197.957 98.6497 197.922 98.7698C197.91 98.8132 196.769 102.711 193.467 105.079C193.147 104.619 192.168 104.542 191.162 104.927C190.07 105.345 189.362 106.146 189.581 106.718C189.8 107.289 190.863 107.414 191.955 106.996C192.827 106.662 193.453 106.083 193.559 105.572C197.122 103.14 198.308 99.0791 198.361 98.8929C198.395 98.7718 198.324 98.6457 198.203 98.6112L198.204 98.6132Z" fill="#542D10"/>
<path d="M200.367 90.9174C200.367 90.9174 199.828 79.2618 186.532 77.7775C186.532 77.7775 188.391 76.886 190.996 76.7383C190.996 76.7383 202.038 79.5918 201.38 90.7864L200.366 90.9174H200.367Z" fill="#FF7000"/>
<path d="M202.27 97.1573C202.924 97.1573 203.453 96.4918 203.453 95.6709C203.453 94.85 202.924 94.1846 202.27 94.1846C201.617 94.1846 201.087 94.85 201.087 95.6709C201.087 96.4918 201.617 97.1573 202.27 97.1573Z" fill="#542D10"/>
<path d="M196.938 124.347C196.938 124.347 199.418 130.532 203.453 128.964C207.489 127.396 207.713 116.054 207.713 116.054H205.238C205.238 116.054 204.548 122.98 196.938 124.347H196.938Z" fill="#542D10"/>
<path d="M196.818 124.347C196.818 124.347 194.338 130.532 190.303 128.964C186.267 127.396 186.042 116.054 186.042 116.054H188.518C188.518 116.054 189.208 122.98 196.817 124.347H196.818Z" fill="#542D10"/>
<path d="M199.208 179.362C199.086 179.362 198.985 179.267 198.98 179.145L196.592 124.357C196.586 124.231 196.683 124.125 196.809 124.12C196.933 124.111 197.042 124.211 197.047 124.337L199.435 179.125C199.441 179.251 199.344 179.357 199.218 179.362C199.215 179.362 199.211 179.362 199.208 179.362Z" fill="#542D10"/>
<path d="M200.771 135.965C201.24 135.496 201.24 134.735 200.771 134.265C200.301 133.796 199.54 133.796 199.07 134.265C198.6 134.735 198.6 135.496 199.07 135.965C199.54 136.434 200.301 136.434 200.771 135.965Z" fill="#542D10"/>
<path d="M201.261 147.241C201.731 146.772 201.731 146.011 201.261 145.542C200.791 145.073 200.03 145.073 199.56 145.542C199.091 146.011 199.091 146.772 199.56 147.241C200.03 147.711 200.791 147.711 201.261 147.241Z" fill="#542D10"/>
<path d="M200.899 158.871C201.564 158.871 202.102 158.333 202.102 157.669C202.102 157.006 201.564 156.468 200.899 156.468C200.235 156.468 199.697 157.006 199.697 157.669C199.697 158.333 200.235 158.871 200.899 158.871Z" fill="#542D10"/>
<path d="M202.239 169.796C202.708 169.327 202.708 168.566 202.239 168.097C201.769 167.627 201.007 167.627 200.538 168.097C200.068 168.566 200.068 169.327 200.538 169.796C201.007 170.265 201.769 170.265 202.239 169.796Z" fill="#542D10"/>
<path d="M214.992 118.775L237.883 142.537L222.467 152.947C222.467 152.947 206.96 138.974 214.992 118.774V118.775Z" fill="#542D10"/>
<path d="M266.555 131.513L271.555 122.551C272.475 123.055 272.925 124.126 272.641 125.135L271.537 129.066L281.259 124.145C282.067 123.783 283.003 124.251 283.199 125.114L283.529 126.574C284.178 129.443 282.479 132.321 279.652 133.141L272.58 135.192L269.5 136.061L266.553 131.513H266.555Z" fill="#FFC0B1"/>
<path d="M271.696 133.126C271.668 133.126 271.638 133.12 271.61 133.108C271.505 133.06 271.459 132.936 271.507 132.832C272.329 131.02 271.365 129.182 271.355 129.164C271.301 129.062 271.339 128.935 271.441 128.881C271.542 128.827 271.67 128.865 271.724 128.967C271.768 129.049 272.794 131.007 271.887 133.004C271.853 133.081 271.777 133.126 271.697 133.126H271.696Z" fill="#542D10"/>
<path d="M235.254 144.286L241.123 150.241L267.106 130.501L270.863 135.467L248.944 159.524C247.092 161.557 244.538 162.815 241.796 163.043C238.782 163.296 235.8 162.284 233.562 160.252L224.2 151.752L235.253 144.287L235.254 144.286Z" fill="#FFC0B1"/>
<path d="M240.101 156.678C240.006 156.678 239.919 156.612 239.897 156.514C239.075 152.794 240.876 150.228 240.953 150.12C241.02 150.027 241.15 150.005 241.245 150.072C241.338 150.139 241.36 150.269 241.293 150.364C241.27 150.395 239.525 152.898 240.305 156.424C240.33 156.537 240.259 156.648 240.146 156.674C240.132 156.677 240.116 156.679 240.101 156.679V156.678Z" fill="#542D10"/>
<path d="M141.007 110.05H68.9377C66.28 110.05 64.1255 112.203 64.1255 114.859V160.131C64.1255 162.787 66.28 164.94 68.9377 164.94H141.007C143.665 164.94 145.82 162.787 145.82 160.131V114.859C145.82 112.203 143.665 110.05 141.007 110.05Z" fill="#CCCED3"/>
<path d="M110.119 151.305H99.0777C97.9399 151.305 97.0176 152.226 97.0176 153.363V175.555C97.0176 176.692 97.9399 177.614 99.0777 177.614H110.119C111.256 177.614 112.179 176.692 112.179 175.555V153.363C112.179 152.226 111.256 151.305 110.119 151.305Z" fill="#CCCED3"/>
<path d="M122.297 175.942H87.6484C86.9564 175.942 86.3955 176.503 86.3955 177.194V178.092C86.3955 178.783 86.9564 179.344 87.6484 179.344H122.297C122.989 179.344 123.55 178.783 123.55 178.092V177.194C123.55 176.503 122.989 175.942 122.297 175.942Z" fill="#CCCED3"/>
<path d="M110.147 92.2008C124.721 92.2008 136.535 80.3948 136.535 65.8314C136.535 51.2679 124.721 39.4619 110.147 39.4619C95.5729 39.4619 83.7583 51.2679 83.7583 65.8314C83.7583 80.3948 95.5729 92.2008 110.147 92.2008Z" fill="#FFEADA"/>
<path d="M119.369 56.4092H100.929C98.8448 56.4092 97.109 57.8384 96.6201 59.7533V59.7503L86.6309 77.8083C86.6309 77.8083 89.3061 82.5826 91.6255 84.6147L97.1849 76.6076L97.1415 75.3054L97.7763 89.1309C101.466 91.091 105.677 92.2021 110.147 92.2021C114.617 92.2021 118.85 91.0851 122.546 89.1151L123.812 61.0525C123.926 58.523 121.905 56.4092 119.37 56.4092H119.369Z" fill="#0471DE"/>
<path d="M134.1 64.3236L122.96 44.1074L118.709 46.0065L123.579 59.9807L123.398 70.2129L130.263 70.8206C132.092 71.4244 134.122 70.3419 134.57 68.3867C134.885 67.0185 134.718 65.5834 134.1 64.3236Z" fill="#0471DE"/>
<path d="M122.473 44.3256L122.393 42.9761C122.328 41.8848 121.952 40.8338 121.31 39.9482L120.484 38.8076L119.868 43.2923L120.317 45.5716L122.473 44.3256Z" fill="#FFC0B1"/>
<path d="M120.48 45.7179C120.403 45.7179 120.338 45.6559 120.335 45.5771L120.268 43.3224V43.3165L120.503 38.8013C120.507 38.7215 120.576 38.6584 120.656 38.6634C120.736 38.6673 120.798 38.7362 120.794 38.816L120.559 43.3254L120.626 45.5682C120.628 45.648 120.565 45.716 120.485 45.7179C120.484 45.7179 120.482 45.7179 120.481 45.7179H120.48Z" fill="#3A3A3A"/>
<path d="M110.053 59.6597C108.252 59.6617 106.83 58.13 106.967 56.3354L107.79 45.5782L112.16 45.5723L113.128 56.293C113.291 58.0995 111.868 59.6578 110.052 59.6597H110.053Z" fill="#FFC0B1"/>
<path d="M106.97 36.6085L120.794 36.5918L120.68 37.4487C120.284 40.4116 120.161 43.407 120.363 46.3886C120.46 47.8149 120.36 49.515 119.65 50.891C118.256 53.589 115.003 54.8005 112.241 53.5348C109.456 52.2592 105.146 48.2552 106.969 36.6095L106.97 36.6085Z" fill="#FFC0B1"/>
<path d="M114.744 46.7067C114.664 46.7067 114.598 46.6416 114.598 46.5619C114.598 46.4811 114.663 46.4161 114.743 46.4161L116.019 46.4141C116.129 46.4141 116.231 46.3639 116.298 46.2752C116.365 46.1876 116.386 46.0763 116.356 45.9699L115.243 41.9757C115.222 41.8979 115.267 41.8181 115.345 41.7964C115.422 41.7748 115.503 41.8201 115.524 41.8979L116.637 45.8921C116.691 46.0861 116.652 46.29 116.531 46.4515C116.409 46.6131 116.223 46.7047 116.021 46.7047L114.745 46.7067H114.744Z" fill="#3A3A3A"/>
<path d="M113.497 42.8514C113.771 42.5775 113.771 42.1334 113.497 41.8596C113.223 41.5857 112.779 41.5857 112.505 41.8596C112.23 42.1334 112.23 42.5775 112.505 42.8514C112.779 43.1253 113.223 43.1253 113.497 42.8514Z" fill="#3A3A3A"/>
<path d="M118.71 42.2101C118.71 42.5972 118.397 42.9124 118.009 42.9124C117.622 42.9124 117.307 42.5992 117.307 42.2121C117.307 41.825 117.62 41.5098 118.007 41.5098C118.395 41.5098 118.71 41.823 118.71 42.2101Z" fill="#3A3A3A"/>
<path d="M112.902 53.9327C112.888 53.9327 112.873 53.9307 112.857 53.9258C112.774 53.8992 110.823 53.2521 109.471 51.6682C109.419 51.6071 109.427 51.5155 109.488 51.4633C109.549 51.4111 109.641 51.419 109.693 51.4801C110.989 52.9999 112.927 53.6431 112.947 53.65C113.023 53.6746 113.065 53.7574 113.04 53.8332C113.021 53.8943 112.964 53.9337 112.902 53.9337V53.9327Z" fill="#3A3A3A"/>
<path d="M108.448 37.1325C108.448 37.1325 108.653 41.9925 107.493 42.7598C106.334 43.5271 105.947 42.0546 105.947 42.0546C105.947 42.0546 104.296 37.0852 106.943 35.9811C108.564 35.3053 108.448 37.1315 108.448 37.1315V37.1325Z" fill="#3A3A3A"/>
<path d="M115.839 49.3823C115.839 49.3823 115.834 49.3823 115.832 49.3823C115.774 49.3794 114.398 49.2957 113.205 47.4527C113.162 47.3858 113.18 47.2951 113.248 47.2518C113.315 47.2085 113.406 47.2272 113.449 47.2951C114.555 49.0041 115.834 49.0908 115.847 49.0918C115.926 49.0957 115.989 49.1647 115.985 49.2445C115.981 49.3223 115.917 49.3823 115.84 49.3823H115.839Z" fill="#3A3A3A"/>
<path d="M105.769 37.1496C105.769 37.1496 104.559 30.5688 110.75 29.8586C116.942 29.1484 123.597 30.0123 125.093 27.666C125.093 27.666 126.852 35.8011 120.794 36.5911C114.736 37.3811 105.768 37.1486 105.768 37.1486L105.769 37.1496Z" fill="#3A3A3A"/>
<path d="M112.693 44.3981C111.616 44.3981 110.646 43.6426 110.419 42.5483C110.293 41.9415 110.411 41.321 110.752 40.8029C111.092 40.2848 111.614 39.9292 112.222 39.8031C112.83 39.677 113.45 39.7952 113.969 40.1351C114.487 40.4749 114.843 40.9969 114.969 41.6047C115.23 42.8586 114.421 44.0898 113.167 44.3499C113.008 44.3824 112.849 44.3981 112.693 44.3981ZM112.698 40.0444C112.559 40.0444 112.42 40.0582 112.281 40.0878C111.75 40.1981 111.293 40.5084 110.995 40.9625C110.697 41.4156 110.594 41.9583 110.704 42.4892C110.932 43.5855 112.01 44.2927 113.107 44.0652C113.639 43.9549 114.096 43.6446 114.394 43.1905C114.691 42.7364 114.795 42.1947 114.685 41.6638C114.574 41.1329 114.264 40.6758 113.809 40.3783C113.474 40.1587 113.091 40.0444 112.698 40.0444Z" fill="#3A3A3A"/>
<path d="M118.306 44.4714C117.229 44.4714 116.259 43.7159 116.032 42.6215C115.772 41.3676 116.58 40.1364 117.835 39.8763C118.442 39.7503 119.063 39.8685 119.582 40.2083C120.1 40.5481 120.456 41.0702 120.582 41.6779C120.708 42.2847 120.59 42.9052 120.25 43.4233C119.91 43.9414 119.387 44.297 118.779 44.4231C118.621 44.4556 118.462 44.4714 118.306 44.4714ZM118.311 40.1177C118.172 40.1177 118.033 40.1315 117.894 40.161C116.797 40.3886 116.089 41.4661 116.317 42.5624C116.427 43.0934 116.738 43.5504 117.192 43.8479C117.646 44.1453 118.189 44.2488 118.72 44.1384C119.251 44.0281 119.709 43.7179 120.007 43.2638C120.304 42.8107 120.408 42.2679 120.297 41.737C120.187 41.2061 119.876 40.7491 119.422 40.4516C119.087 40.2319 118.703 40.1177 118.311 40.1177Z" fill="#3A3A3A"/>
<path d="M114.627 41.2184C114.578 41.2184 114.531 41.1938 114.503 41.1494C114.461 41.0815 114.482 40.9918 114.55 40.9495C114.591 40.9249 115.554 40.3437 116.36 40.9298C116.425 40.9771 116.44 41.0677 116.393 41.1327C116.345 41.1977 116.255 41.2115 116.19 41.1652C115.542 40.6944 114.712 41.1918 114.704 41.1967C114.681 41.2115 114.654 41.2184 114.628 41.2184H114.627Z" fill="#3A3A3A"/>
<path d="M110.658 41.45C110.652 41.45 110.646 41.45 110.64 41.449L107.51 41.0688C107.43 41.059 107.373 40.9871 107.382 40.9073C107.392 40.8275 107.464 40.7714 107.544 40.7802L110.675 41.1604C110.755 41.1703 110.812 41.2422 110.802 41.322C110.793 41.3958 110.73 41.45 110.658 41.45Z" fill="#3A3A3A"/>
<path d="M107.85 42.3621C107.852 43.6121 107.161 44.6257 106.308 44.6267C105.454 44.6276 104.761 43.6151 104.76 42.3651C104.758 41.1151 105.449 40.1016 106.303 40.1006C107.157 40.0996 107.849 41.1122 107.85 42.3621Z" fill="#FFC0B1"/>
<path d="M106.694 44.7022C106.621 44.7022 106.558 44.648 106.55 44.5731C106.541 44.4943 106.598 44.4224 106.675 44.4126C106.687 44.4106 107.1 44.3338 107.44 43.597C107.474 43.5241 107.561 43.4926 107.634 43.5261C107.706 43.5596 107.738 43.6462 107.705 43.7191C107.286 44.6253 106.734 44.6982 106.711 44.7012C106.705 44.7012 106.7 44.7012 106.694 44.7012V44.7022Z" fill="#3A3A3A"/>
<path d="M123.399 70.3595C123.399 70.3595 123.395 70.3595 123.392 70.3595C123.312 70.3555 123.249 70.2876 123.253 70.2078L123.45 65.8255C123.454 65.7457 123.521 65.6837 123.602 65.6866C123.683 65.6906 123.745 65.7585 123.741 65.8383L123.544 70.2206C123.54 70.2984 123.476 70.3595 123.399 70.3595Z" fill="#3A3A3A"/>
<path d="M130.262 70.9664C130.236 70.9664 130.208 70.9595 130.184 70.9437C128.585 69.9242 126.862 67.4844 125.064 63.6922C123.731 60.879 122.85 58.3288 122.842 58.3042C122.816 58.2284 122.856 58.1456 122.932 58.119C123.008 58.0934 123.091 58.1338 123.118 58.2096C123.152 58.3101 126.629 68.3305 130.342 70.6985C130.41 70.7418 130.43 70.8314 130.386 70.8994C130.359 70.9427 130.311 70.9664 130.263 70.9664H130.262Z" fill="#3A3A3A"/>
<path d="M97.1849 76.7523C97.1041 76.7523 97.0391 76.6872 97.0391 76.6065V67.5139C97.0391 67.4332 97.1041 67.3682 97.1849 67.3682C97.2658 67.3682 97.3308 67.4332 97.3308 67.5139V76.6065C97.3308 76.6872 97.2658 76.7523 97.1849 76.7523Z" fill="#3A3A3A"/>
<path d="M234.275 65.6729C222.815 65.6729 213.525 72.425 213.525 80.7552C213.525 85.9579 217.15 90.5451 222.663 93.2568L218.758 98.5856C218.393 99.0831 218.853 99.7637 219.451 99.611L234.527 96.8432C246.33 94.5944 255.024 89.0853 255.024 80.7552C255.024 72.425 245.735 65.6729 234.275 65.6729Z" fill="white"/>
<path d="M218.334 99.8135C218.06 99.8135 217.803 99.6796 217.643 99.4432C217.442 99.1457 217.45 98.7675 217.662 98.4779L221.44 93.3224C215.771 90.4679 212.395 85.7822 212.395 80.7548C212.395 76.666 214.58 72.8265 218.547 69.9434C222.497 67.0721 227.746 65.4912 233.326 65.4912C238.906 65.4912 244.155 67.0721 248.104 69.9434C252.072 72.8275 254.256 76.667 254.256 80.7548C254.256 84.8425 252.273 88.3304 248.361 91.2253C244.805 93.8563 239.705 95.8607 233.613 97.022L218.54 99.7889C218.471 99.8057 218.402 99.8145 218.334 99.8145V99.8135ZM233.326 65.8537C221.985 65.8537 212.758 72.5379 212.758 80.7548C212.758 85.6985 216.136 90.3103 221.794 93.0929L221.988 93.1884L217.954 98.6916C217.809 98.8906 217.854 99.1053 217.944 99.2393C218.034 99.3732 218.216 99.4954 218.456 99.4343L218.468 99.4314L233.545 96.6635C239.583 95.513 244.632 93.5312 248.144 90.9328C251.959 88.1108 253.893 84.6859 253.893 80.7548C253.893 72.5389 244.666 65.8537 233.325 65.8537H233.326Z" fill="#FFEADA"/>
<path d="M220.438 78.2676H246.436C246.532 78.2676 246.609 78.19 246.609 78.0942V76.7467C246.609 76.651 246.532 76.5734 246.436 76.5734H220.438C220.342 76.5734 220.264 76.651 220.264 76.7467V78.0942C220.264 78.19 220.342 78.2676 220.438 78.2676Z" fill="#FFEADA"/>
<path d="M220.438 82.0127H246.436C246.532 82.0127 246.609 81.9351 246.609 81.8393V80.4919C246.609 80.3961 246.532 80.3185 246.436 80.3185H220.438C220.342 80.3185 220.264 80.3961 220.264 80.4919V81.8393C220.264 81.9351 220.342 82.0127 220.438 82.0127Z" fill="#FFEADA"/>
<path d="M232.728 85.7578H246.483C246.553 85.7578 246.61 85.7009 246.61 85.6307V84.1907C246.61 84.1205 246.553 84.0636 246.483 84.0636H232.728C232.657 84.0636 232.6 84.1205 232.6 84.1907V85.6307C232.6 85.7009 232.657 85.7578 232.728 85.7578Z" fill="#FFEADA"/>
<path d="M298.695 152.15C295.732 153.265 292.741 154.396 290.006 155.972C290.395 155.166 290.699 154.326 290.902 153.46C291.871 149.333 290.867 144.634 288.286 141.271C286.169 144.554 284.03 147.88 282.786 151.582C282.771 151.627 282.757 151.671 282.742 151.715C282.495 151.258 282.231 150.812 281.952 150.378C279.84 147.091 276.952 144.388 274.097 141.722C272.416 145.613 272.591 150.415 274.54 154.18C274.71 154.508 274.897 154.827 275.097 155.138C272.8 153.977 270.367 153.058 267.953 152.15C267.885 156.388 269.878 160.761 273.116 163.498C275.858 165.817 279.684 166.841 283.324 166.633C286.964 166.841 290.79 165.817 293.532 163.498C296.77 160.76 298.764 156.388 298.695 152.15Z" fill="#6CB597"/>
<path d="M285.94 166.137C285.872 166.137 285.81 166.092 285.79 166.023C284.231 160.571 275.112 155.325 275.019 155.273C274.945 155.231 274.919 155.135 274.961 155.06C275.004 154.986 275.099 154.959 275.174 155.002C275.198 155.015 277.526 156.348 280.018 158.346C283.376 161.039 285.42 163.593 286.09 165.939C286.114 166.021 286.065 166.108 285.983 166.132C285.968 166.136 285.954 166.138 285.939 166.138L285.94 166.137Z" fill="#3A3A3A"/>
<path d="M285.939 161.113C285.858 161.113 285.79 161.051 285.783 160.969C285.496 157.396 282.674 151.708 282.646 151.651C282.607 151.574 282.639 151.481 282.716 151.442C282.793 151.404 282.886 151.435 282.925 151.512C282.953 151.57 285.803 157.312 286.095 160.944C286.102 161.03 286.038 161.105 285.952 161.113C285.948 161.113 285.943 161.113 285.939 161.113Z" fill="#3A3A3A"/>
<path d="M285.533 163.395C285.517 163.395 285.502 163.393 285.487 163.388C285.405 163.362 285.358 163.275 285.384 163.193C286.447 159.781 289.856 155.908 289.89 155.869C289.947 155.804 290.045 155.798 290.11 155.856C290.175 155.913 290.181 156.011 290.123 156.075C290.09 156.114 286.724 159.937 285.682 163.285C285.661 163.352 285.599 163.395 285.533 163.395Z" fill="#3A3A3A"/>
<path d="M278.082 165.659H290.007V176.798C290.007 178.109 288.943 179.172 287.631 179.172H280.459C279.147 179.172 278.082 178.109 278.082 176.798V165.659Z" fill="#3A3A3A"/>
<path d="M324.515 179.836H28.5544C28.2528 179.836 28.0073 179.615 28.0073 179.343C28.0073 179.071 28.2518 178.851 28.5544 178.851H324.515C324.817 178.851 325.062 179.071 325.062 179.343C325.062 179.615 324.818 179.836 324.515 179.836Z" fill="#3A3A3A"/>
<path d="M258.745 41.9397C258.745 35.1875 253.268 29.7129 246.51 29.7129C239.752 29.7129 234.274 35.1865 234.274 41.9397C234.274 45.6059 235.89 48.8948 238.446 51.1357C238.67 47.6143 241.149 44.7066 244.458 43.8417C242.934 43.0862 241.886 41.5161 241.886 39.7008C241.886 37.1496 243.956 35.0811 246.509 35.0811C249.062 35.0811 251.132 37.1496 251.132 39.7008C251.132 41.5161 250.084 43.0862 248.559 43.8417C251.868 44.7066 254.347 47.6143 254.571 51.1357C257.129 48.8948 258.743 45.6059 258.743 41.9397H258.745Z" fill="#FFEADA"/>
<path d="M248.561 43.8416C250.085 43.0862 251.133 41.5161 251.133 39.7007C251.133 37.1496 249.063 35.0811 246.51 35.0811C243.957 35.0811 241.887 37.1496 241.887 39.7007C241.887 41.5161 242.935 43.0862 244.46 43.8416C241.151 44.7065 238.672 47.6152 238.448 51.1356C240.601 53.0218 243.422 54.1664 246.511 54.1664C249.601 54.1664 252.421 53.0218 254.575 51.1356C254.351 47.6142 251.872 44.7065 248.563 43.8416H248.561Z" fill="#FF9C4E"/>
<path d="M137.189 175.942H183.993C184.373 175.942 184.682 176.251 184.682 176.631V178.789C184.682 179.169 184.373 179.478 183.993 179.478H137.189C136.809 179.478 136.5 179.169 136.5 178.789V176.631C136.5 176.251 136.809 175.942 137.189 175.942Z" fill="#CCCED3"/>
<path d="M213.015 171.103C215.919 171.103 218.276 173.459 218.276 176.36V179.311H207.754V176.36C207.754 173.459 210.112 171.103 213.016 171.103H213.015Z" fill="#CCCED3"/>
<path d="M213.015 177.541C212.933 177.541 212.867 177.475 212.867 177.393V171.102C212.867 171.02 212.933 170.954 213.015 170.954C213.096 170.954 213.162 171.02 213.162 171.102V177.393C213.162 177.475 213.096 177.541 213.015 177.541Z" fill="white"/>
</g>
<path d="M78.0963 203.88L74.4163 210.968V215H72.5923V210.968L68.8963 203.88H70.9283L73.5043 209.336L76.0803 203.88H78.0963ZM83.3678 215.144C82.5358 215.144 81.7838 214.957 81.1118 214.584C80.4398 214.2 79.9118 213.667 79.5278 212.984C79.1438 212.291 78.9518 211.491 78.9518 210.584C78.9518 209.688 79.1491 208.893 79.5438 208.2C79.9384 207.507 80.4771 206.973 81.1598 206.6C81.8424 206.227 82.6051 206.04 83.4478 206.04C84.2904 206.04 85.0531 206.227 85.7358 206.6C86.4184 206.973 86.9571 207.507 87.3518 208.2C87.7464 208.893 87.9438 209.688 87.9438 210.584C87.9438 211.48 87.7411 212.275 87.3358 212.968C86.9304 213.661 86.3758 214.2 85.6718 214.584C84.9784 214.957 84.2104 215.144 83.3678 215.144ZM83.3678 213.56C83.8371 213.56 84.2744 213.448 84.6798 213.224C85.0958 213 85.4318 212.664 85.6878 212.216C85.9438 211.768 86.0718 211.224 86.0718 210.584C86.0718 209.944 85.9491 209.405 85.7038 208.968C85.4584 208.52 85.1331 208.184 84.7278 207.96C84.3224 207.736 83.8851 207.624 83.4158 207.624C82.9464 207.624 82.5091 207.736 82.1038 207.96C81.7091 208.184 81.3944 208.52 81.1598 208.968C80.9251 209.405 80.8078 209.944 80.8078 210.584C80.8078 211.533 81.0478 212.269 81.5278 212.792C82.0184 213.304 82.6318 213.56 83.3678 213.56ZM97.7309 206.184V215H95.9069V213.96C95.6189 214.323 95.2402 214.611 94.7709 214.824C94.3122 215.027 93.8215 215.128 93.2989 215.128C92.6055 215.128 91.9815 214.984 91.4269 214.696C90.8829 214.408 90.4509 213.981 90.1309 213.416C89.8215 212.851 89.6669 212.168 89.6669 211.368V206.184H91.4749V211.096C91.4749 211.885 91.6722 212.493 92.0669 212.92C92.4615 213.336 93.0002 213.544 93.6829 213.544C94.3655 213.544 94.9042 213.336 95.2989 212.92C95.7042 212.493 95.9069 211.885 95.9069 211.096V206.184H97.7309ZM108.854 206.04C109.526 206.04 110.123 206.184 110.646 206.472C111.179 206.76 111.595 207.187 111.894 207.752C112.203 208.317 112.358 209 112.358 209.8V215H110.55V210.072C110.55 209.283 110.352 208.68 109.958 208.264C109.563 207.837 109.024 207.624 108.342 207.624C107.659 207.624 107.115 207.837 106.71 208.264C106.315 208.68 106.118 209.283 106.118 210.072V215H104.294V203.16H106.118V207.208C106.427 206.835 106.816 206.547 107.286 206.344C107.766 206.141 108.288 206.04 108.854 206.04ZM114.076 210.552C114.076 209.667 114.258 208.883 114.62 208.2C114.994 207.517 115.495 206.989 116.124 206.616C116.764 206.232 117.468 206.04 118.236 206.04C118.93 206.04 119.532 206.179 120.044 206.456C120.567 206.723 120.983 207.059 121.292 207.464V206.184H123.132V215H121.292V213.688C120.983 214.104 120.562 214.451 120.028 214.728C119.495 215.005 118.887 215.144 118.204 215.144C117.447 215.144 116.754 214.952 116.124 214.568C115.495 214.173 114.994 213.629 114.62 212.936C114.258 212.232 114.076 211.437 114.076 210.552ZM121.292 210.584C121.292 209.976 121.164 209.448 120.908 209C120.663 208.552 120.338 208.211 119.932 207.976C119.527 207.741 119.09 207.624 118.62 207.624C118.151 207.624 117.714 207.741 117.308 207.976C116.903 208.2 116.572 208.536 116.316 208.984C116.071 209.421 115.948 209.944 115.948 210.552C115.948 211.16 116.071 211.693 116.316 212.152C116.572 212.611 116.903 212.963 117.308 213.208C117.724 213.443 118.162 213.56 118.62 213.56C119.09 213.56 119.527 213.443 119.932 213.208C120.338 212.973 120.663 212.632 120.908 212.184C121.164 211.725 121.292 211.192 121.292 210.584ZM128.936 213.368L131.432 206.184H133.368L130.008 215H127.832L124.488 206.184H126.44L128.936 213.368ZM142.827 210.376C142.827 210.707 142.806 211.005 142.763 211.272H136.027C136.08 211.976 136.342 212.541 136.811 212.968C137.28 213.395 137.856 213.608 138.539 213.608C139.52 213.608 140.214 213.197 140.619 212.376H142.587C142.32 213.187 141.835 213.853 141.131 214.376C140.438 214.888 139.574 215.144 138.539 215.144C137.696 215.144 136.939 214.957 136.267 214.584C135.606 214.2 135.083 213.667 134.699 212.984C134.326 212.291 134.139 211.491 134.139 210.584C134.139 209.677 134.32 208.883 134.683 208.2C135.056 207.507 135.574 206.973 136.235 206.6C136.907 206.227 137.675 206.04 138.539 206.04C139.371 206.04 140.112 206.221 140.763 206.584C141.414 206.947 141.92 207.459 142.283 208.12C142.646 208.771 142.827 209.523 142.827 210.376ZM140.923 209.8C140.912 209.128 140.672 208.589 140.203 208.184C139.734 207.779 139.152 207.576 138.459 207.576C137.83 207.576 137.291 207.779 136.843 208.184C136.395 208.579 136.128 209.117 136.043 209.8H140.923ZM153.226 206.04C153.919 206.04 154.538 206.184 155.082 206.472C155.637 206.76 156.069 207.187 156.378 207.752C156.687 208.317 156.842 209 156.842 209.8V215H155.034V210.072C155.034 209.283 154.837 208.68 154.442 208.264C154.047 207.837 153.509 207.624 152.826 207.624C152.143 207.624 151.599 207.837 151.194 208.264C150.799 208.68 150.602 209.283 150.602 210.072V215H148.778V206.184H150.602V207.192C150.901 206.829 151.279 206.547 151.738 206.344C152.207 206.141 152.703 206.04 153.226 206.04ZM162.993 215.144C162.161 215.144 161.409 214.957 160.737 214.584C160.065 214.2 159.537 213.667 159.153 212.984C158.769 212.291 158.577 211.491 158.577 210.584C158.577 209.688 158.774 208.893 159.169 208.2C159.563 207.507 160.102 206.973 160.785 206.6C161.467 206.227 162.23 206.04 163.073 206.04C163.915 206.04 164.678 206.227 165.361 206.6C166.043 206.973 166.582 207.507 166.977 208.2C167.371 208.893 167.569 209.688 167.569 210.584C167.569 211.48 167.366 212.275 166.961 212.968C166.555 213.661 166.001 214.2 165.297 214.584C164.603 214.957 163.835 215.144 162.993 215.144ZM162.993 213.56C163.462 213.56 163.899 213.448 164.305 213.224C164.721 213 165.057 212.664 165.313 212.216C165.569 211.768 165.697 211.224 165.697 210.584C165.697 209.944 165.574 209.405 165.329 208.968C165.083 208.52 164.758 208.184 164.353 207.96C163.947 207.736 163.51 207.624 163.041 207.624C162.571 207.624 162.134 207.736 161.729 207.96C161.334 208.184 161.019 208.52 160.785 208.968C160.55 209.405 160.433 209.944 160.433 210.584C160.433 211.533 160.673 212.269 161.153 212.792C161.643 213.304 162.257 213.56 162.993 213.56ZM174.712 207.688H172.728L174.408 203.88H175.688L174.712 207.688ZM177.592 207.688H175.608L177.288 203.88H178.568L177.592 207.688ZM187.462 203.88V205.368H184.502V215H182.678V205.368H179.702V203.88H187.462ZM190.237 205.016C189.907 205.016 189.629 204.904 189.405 204.68C189.181 204.456 189.069 204.179 189.069 203.848C189.069 203.517 189.181 203.24 189.405 203.016C189.629 202.792 189.907 202.68 190.237 202.68C190.557 202.68 190.829 202.792 191.053 203.016C191.277 203.24 191.389 203.517 191.389 203.848C191.389 204.179 191.277 204.456 191.053 204.68C190.829 204.904 190.557 205.016 190.237 205.016ZM191.133 206.184V215H189.309V206.184H191.133ZM192.92 210.584C192.92 209.677 193.101 208.883 193.464 208.2C193.837 207.507 194.349 206.973 195 206.6C195.651 206.227 196.397 206.04 197.24 206.04C198.307 206.04 199.187 206.296 199.88 206.808C200.584 207.309 201.059 208.029 201.304 208.968H199.336C199.176 208.531 198.92 208.189 198.568 207.944C198.216 207.699 197.773 207.576 197.24 207.576C196.493 207.576 195.896 207.843 195.448 208.376C195.011 208.899 194.792 209.635 194.792 210.584C194.792 211.533 195.011 212.275 195.448 212.808C195.896 213.341 196.493 213.608 197.24 213.608C198.296 213.608 198.995 213.144 199.336 212.216H201.304C201.048 213.112 200.568 213.827 199.864 214.36C199.16 214.883 198.285 215.144 197.24 215.144C196.397 215.144 195.651 214.957 195 214.584C194.349 214.2 193.837 213.667 193.464 212.984C193.101 212.291 192.92 211.491 192.92 210.584ZM206.61 210.6L210.674 215H208.21L204.946 211.208V215H203.122V203.16H204.946V210.04L208.146 206.184H210.674L206.61 210.6ZM220.061 210.376C220.061 210.707 220.04 211.005 219.997 211.272H213.261C213.315 211.976 213.576 212.541 214.045 212.968C214.515 213.395 215.091 213.608 215.773 213.608C216.755 213.608 217.448 213.197 217.853 212.376H219.821C219.555 213.187 219.069 213.853 218.365 214.376C217.672 214.888 216.808 215.144 215.773 215.144C214.931 215.144 214.173 214.957 213.501 214.584C212.84 214.2 212.317 213.667 211.933 212.984C211.56 212.291 211.373 211.491 211.373 210.584C211.373 209.677 211.555 208.883 211.917 208.2C212.291 207.507 212.808 206.973 213.469 206.6C214.141 206.227 214.909 206.04 215.773 206.04C216.605 206.04 217.347 206.221 217.997 206.584C218.648 206.947 219.155 207.459 219.517 208.12C219.88 208.771 220.061 209.523 220.061 210.376ZM218.157 209.8C218.147 209.128 217.907 208.589 217.437 208.184C216.968 207.779 216.387 207.576 215.693 207.576C215.064 207.576 214.525 207.779 214.077 208.184C213.629 208.579 213.363 209.117 213.277 209.8H218.157ZM223.984 207.672V212.552C223.984 212.883 224.059 213.123 224.208 213.272C224.368 213.411 224.635 213.48 225.008 213.48H226.128V215H224.688C223.867 215 223.238 214.808 222.8 214.424C222.363 214.04 222.144 213.416 222.144 212.552V207.672H221.104V206.184H222.144V203.992H223.984V206.184H226.128V207.672H223.984ZM231.009 215.144C230.316 215.144 229.692 215.021 229.137 214.776C228.593 214.52 228.161 214.179 227.841 213.752C227.521 213.315 227.351 212.829 227.329 212.296H229.217C229.249 212.669 229.425 212.984 229.745 213.24C230.076 213.485 230.487 213.608 230.977 213.608C231.489 213.608 231.884 213.512 232.161 213.32C232.449 213.117 232.593 212.861 232.593 212.552C232.593 212.221 232.433 211.976 232.113 211.816C231.804 211.656 231.308 211.48 230.625 211.288C229.964 211.107 229.425 210.931 229.009 210.76C228.593 210.589 228.231 210.328 227.921 209.976C227.623 209.624 227.473 209.16 227.473 208.584C227.473 208.115 227.612 207.688 227.889 207.304C228.167 206.909 228.561 206.6 229.073 206.376C229.596 206.152 230.193 206.04 230.865 206.04C231.868 206.04 232.673 206.296 233.281 206.808C233.9 207.309 234.231 207.997 234.273 208.872H232.449C232.417 208.477 232.257 208.163 231.969 207.928C231.681 207.693 231.292 207.576 230.801 207.576C230.321 207.576 229.953 207.667 229.697 207.848C229.441 208.029 229.313 208.269 229.313 208.568C229.313 208.803 229.399 209 229.569 209.16C229.74 209.32 229.948 209.448 230.193 209.544C230.439 209.629 230.801 209.741 231.281 209.88C231.921 210.051 232.444 210.227 232.849 210.408C233.265 210.579 233.623 210.835 233.921 211.176C234.22 211.517 234.375 211.971 234.385 212.536C234.385 213.037 234.247 213.485 233.969 213.88C233.692 214.275 233.297 214.584 232.785 214.808C232.284 215.032 231.692 215.144 231.009 215.144ZM236.644 203.88H238.628L236.948 207.688H235.668L236.644 203.88ZM239.524 203.88H241.508L239.828 207.688H238.548L239.524 203.88ZM255.199 206.184L249.791 219.144H247.903L249.695 214.856L246.223 206.184H248.255L250.735 212.904L253.311 206.184H255.199ZM264.655 210.376C264.655 210.707 264.634 211.005 264.591 211.272H257.855C257.908 211.976 258.17 212.541 258.639 212.968C259.108 213.395 259.684 213.608 260.367 213.608C261.348 213.608 262.042 213.197 262.447 212.376H264.415C264.148 213.187 263.663 213.853 262.959 214.376C262.266 214.888 261.402 215.144 260.367 215.144C259.524 215.144 258.767 214.957 258.095 214.584C257.434 214.2 256.911 213.667 256.527 212.984C256.154 212.291 255.967 211.491 255.967 210.584C255.967 209.677 256.148 208.883 256.511 208.2C256.884 207.507 257.402 206.973 258.063 206.6C258.735 206.227 259.503 206.04 260.367 206.04C261.199 206.04 261.94 206.221 262.591 206.584C263.242 206.947 263.748 207.459 264.111 208.12C264.474 208.771 264.655 209.523 264.655 210.376ZM262.751 209.8C262.74 209.128 262.5 208.589 262.031 208.184C261.562 207.779 260.98 207.576 260.287 207.576C259.658 207.576 259.119 207.779 258.671 208.184C258.223 208.579 257.956 209.117 257.871 209.8H262.751ZM268.578 207.672V212.552C268.578 212.883 268.653 213.123 268.802 213.272C268.962 213.411 269.229 213.48 269.602 213.48H270.722V215H269.282C268.461 215 267.831 214.808 267.394 214.424C266.957 214.04 266.738 213.416 266.738 212.552V207.672H265.698V206.184H266.738V203.992H268.578V206.184H270.722V207.672H268.578ZM274.691 203.88L274.483 211.64H272.963L272.755 203.88H274.691ZM273.779 215.112C273.448 215.112 273.171 215 272.947 214.776C272.723 214.552 272.611 214.275 272.611 213.944C272.611 213.613 272.723 213.336 272.947 213.112C273.171 212.888 273.448 212.776 273.779 212.776C274.099 212.776 274.371 212.888 274.595 213.112C274.819 213.336 274.931 213.613 274.931 213.944C274.931 214.275 274.819 214.552 274.595 214.776C274.371 215 274.099 215.112 273.779 215.112Z" fill="black"/>
<path d="M74.7543 237.15C74.7543 236.357 74.913 235.666 75.2303 235.078C75.5477 234.481 75.9863 234.019 76.5463 233.692C77.1157 233.365 77.7643 233.202 78.4923 233.202C79.435 233.202 80.2097 233.431 80.8163 233.888C81.4323 234.345 81.8383 234.98 82.0343 235.792H80.6623C80.5317 235.325 80.275 234.957 79.8923 234.686C79.519 234.415 79.0523 234.28 78.4923 234.28C77.7643 234.28 77.1763 234.532 76.7283 235.036C76.2803 235.531 76.0563 236.235 76.0563 237.15C76.0563 238.074 76.2803 238.788 76.7283 239.292C77.1763 239.796 77.7643 240.048 78.4923 240.048C79.0523 240.048 79.519 239.917 79.8923 239.656C80.2657 239.395 80.5223 239.021 80.6623 238.536H82.0343C81.829 239.32 81.4183 239.95 80.8023 240.426C80.1863 240.893 79.4163 241.126 78.4923 241.126C77.7643 241.126 77.1157 240.963 76.5463 240.636C75.9863 240.309 75.5477 239.847 75.2303 239.25C74.913 238.653 74.7543 237.953 74.7543 237.15ZM85.0083 230.64V241H83.7343V230.64H85.0083ZM87.8376 232.082C87.5949 232.082 87.3896 231.998 87.2216 231.83C87.0536 231.662 86.9696 231.457 86.9696 231.214C86.9696 230.971 87.0536 230.766 87.2216 230.598C87.3896 230.43 87.5949 230.346 87.8376 230.346C88.0709 230.346 88.2669 230.43 88.4256 230.598C88.5936 230.766 88.6776 230.971 88.6776 231.214C88.6776 231.457 88.5936 231.662 88.4256 231.83C88.2669 231.998 88.0709 232.082 87.8376 232.082ZM88.4536 233.328V241H87.1796V233.328H88.4536ZM90.1489 237.15C90.1489 236.357 90.3075 235.666 90.6249 235.078C90.9422 234.481 91.3809 234.019 91.9409 233.692C92.5102 233.365 93.1589 233.202 93.8869 233.202C94.8295 233.202 95.6042 233.431 96.2109 233.888C96.8269 234.345 97.2329 234.98 97.4289 235.792H96.0569C95.9262 235.325 95.6695 234.957 95.2869 234.686C94.9135 234.415 94.4469 234.28 93.8869 234.28C93.1589 234.28 92.5709 234.532 92.1229 235.036C91.6749 235.531 91.4509 236.235 91.4509 237.15C91.4509 238.074 91.6749 238.788 92.1229 239.292C92.5709 239.796 93.1589 240.048 93.8869 240.048C94.4469 240.048 94.9135 239.917 95.2869 239.656C95.6602 239.395 95.9169 239.021 96.0569 238.536H97.4289C97.2235 239.32 96.8129 239.95 96.1969 240.426C95.5809 240.893 94.8109 241.126 93.8869 241.126C93.1589 241.126 92.5102 240.963 91.9409 240.636C91.3809 240.309 90.9422 239.847 90.6249 239.25C90.3075 238.653 90.1489 237.953 90.1489 237.15ZM103.413 241L100.403 237.612V241H99.1288V230.64H100.403V236.73L103.357 233.328H105.135L101.523 237.15L105.149 241H103.413ZM110.724 232.082C110.482 232.082 110.276 231.998 110.108 231.83C109.94 231.662 109.856 231.457 109.856 231.214C109.856 230.971 109.94 230.766 110.108 230.598C110.276 230.43 110.482 230.346 110.724 230.346C110.958 230.346 111.154 230.43 111.312 230.598C111.48 230.766 111.564 230.971 111.564 231.214C111.564 231.457 111.48 231.662 111.312 231.83C111.154 231.998 110.958 232.082 110.724 232.082ZM111.34 233.328V241H110.066V233.328H111.34ZM113.036 237.15C113.036 236.357 113.194 235.666 113.512 235.078C113.829 234.481 114.268 234.019 114.828 233.692C115.397 233.365 116.046 233.202 116.774 233.202C117.716 233.202 118.491 233.431 119.098 233.888C119.714 234.345 120.12 234.98 120.316 235.792H118.944C118.813 235.325 118.556 234.957 118.174 234.686C117.8 234.415 117.334 234.28 116.774 234.28C116.046 234.28 115.458 234.532 115.01 235.036C114.562 235.531 114.338 236.235 114.338 237.15C114.338 238.074 114.562 238.788 115.01 239.292C115.458 239.796 116.046 240.048 116.774 240.048C117.334 240.048 117.8 239.917 118.174 239.656C118.547 239.395 118.804 239.021 118.944 238.536H120.316C120.11 239.32 119.7 239.95 119.084 240.426C118.468 240.893 117.698 241.126 116.774 241.126C116.046 241.126 115.397 240.963 114.828 240.636C114.268 240.309 113.829 239.847 113.512 239.25C113.194 238.653 113.036 237.953 113.036 237.15ZM125.362 241.126C124.643 241.126 123.99 240.963 123.402 240.636C122.823 240.309 122.366 239.847 122.03 239.25C121.703 238.643 121.54 237.943 121.54 237.15C121.54 236.366 121.708 235.675 122.044 235.078C122.389 234.471 122.856 234.009 123.444 233.692C124.032 233.365 124.69 233.202 125.418 233.202C126.146 233.202 126.804 233.365 127.392 233.692C127.98 234.009 128.442 234.467 128.778 235.064C129.123 235.661 129.296 236.357 129.296 237.15C129.296 237.943 129.118 238.643 128.764 239.25C128.418 239.847 127.947 240.309 127.35 240.636C126.752 240.963 126.09 241.126 125.362 241.126ZM125.362 240.006C125.819 240.006 126.248 239.899 126.65 239.684C127.051 239.469 127.373 239.147 127.616 238.718C127.868 238.289 127.994 237.766 127.994 237.15C127.994 236.534 127.872 236.011 127.63 235.582C127.387 235.153 127.07 234.835 126.678 234.63C126.286 234.415 125.861 234.308 125.404 234.308C124.937 234.308 124.508 234.415 124.116 234.63C123.733 234.835 123.425 235.153 123.192 235.582C122.958 236.011 122.842 236.534 122.842 237.15C122.842 237.775 122.954 238.303 123.178 238.732C123.411 239.161 123.719 239.483 124.102 239.698C124.484 239.903 124.904 240.006 125.362 240.006ZM134.709 233.188C135.642 233.188 136.398 233.473 136.977 234.042C137.555 234.602 137.845 235.414 137.845 236.478V241H136.585V236.66C136.585 235.895 136.393 235.311 136.011 234.91C135.628 234.499 135.105 234.294 134.443 234.294C133.771 234.294 133.234 234.504 132.833 234.924C132.441 235.344 132.245 235.955 132.245 236.758V241H130.971V233.328H132.245V234.42C132.497 234.028 132.837 233.725 133.267 233.51C133.705 233.295 134.186 233.188 134.709 233.188Z" fill="#748294"/>
<path d="M158.196 229.3L158.387 229.3C158.851 229.335 159.303 229.535 159.628 229.871C159.971 230.205 160.173 230.672 160.198 231.15L160.198 231.246C160.185 231.538 160.096 231.828 159.931 232.07C159.828 232.227 159.688 232.352 159.557 232.485C157.846 234.196 156.135 235.907 154.424 237.618C154.323 237.724 154.187 237.794 154.041 237.811C153.52 237.873 152.999 237.934 152.478 237.996C152.332 238.01 152.187 238.039 152.041 238.041C151.792 238.041 151.557 237.865 151.483 237.627C151.437 237.498 151.458 237.36 151.474 237.227C151.539 236.694 151.602 236.16 151.665 235.627C151.681 235.499 151.685 235.365 151.747 235.249C151.796 235.145 151.883 235.067 151.964 234.988C153.675 233.277 155.386 231.567 157.097 229.856C157.186 229.767 157.273 229.676 157.375 229.602C157.612 229.424 157.901 229.323 158.196 229.3ZM158.045 230.608C156.316 232.338 154.585 234.067 152.856 235.798C152.818 236.117 152.779 236.437 152.741 236.757C153.061 236.719 153.382 236.685 153.701 236.64C154.303 236.052 154.893 235.45 155.49 234.857C156.624 233.722 157.758 232.588 158.893 231.454C158.967 231.386 159.008 231.285 159 231.184C158.974 230.831 158.667 230.526 158.314 230.5C158.213 230.492 158.112 230.533 158.045 230.608Z" fill="#FF7000"/>
<path d="M147.287 231.127C147.474 231.093 147.664 231.101 147.852 231.1C149.465 231.1 151.078 231.1 152.69 231.1C152.901 231.092 153.112 231.203 153.221 231.384C153.349 231.586 153.339 231.864 153.195 232.055C153.081 232.213 152.886 232.305 152.692 232.3C150.995 232.3 149.297 232.3 147.6 232.3C147.28 232.291 146.991 232.579 147 232.899C146.999 235.9 146.999 238.9 147 241.9C146.991 242.221 147.279 242.508 147.6 242.499C150.402 242.5 153.205 242.501 156.007 242.499C156.324 242.504 156.606 242.219 156.598 241.903C156.6 240.402 156.598 238.9 156.6 237.399C156.594 237.189 156.708 236.982 156.888 236.875C157.082 236.755 157.345 236.761 157.533 236.889C157.7 236.999 157.803 237.198 157.799 237.397C157.799 238.899 157.8 240.4 157.799 241.901C157.802 242.391 157.59 242.874 157.234 243.208C156.923 243.505 156.504 243.68 156.075 243.7L147.517 243.7C147.054 243.677 146.603 243.469 146.287 243.13C145.993 242.824 145.824 242.41 145.799 241.988L145.799 232.817C145.822 232.387 145.998 231.965 146.3 231.656C146.561 231.38 146.913 231.192 147.287 231.127Z" fill="#FF7000"/>
<path d="M169.679 234.378V238.9C169.679 239.273 169.758 239.539 169.917 239.698C170.076 239.847 170.351 239.922 170.743 239.922H171.681V241H170.533C169.824 241 169.292 240.837 168.937 240.51C168.582 240.183 168.405 239.647 168.405 238.9V234.378H167.411V233.328H168.405V231.396H169.679V233.328H171.681V234.378H169.679ZM176.57 241.126C175.852 241.126 175.198 240.963 174.61 240.636C174.032 240.309 173.574 239.847 173.238 239.25C172.912 238.643 172.748 237.943 172.748 237.15C172.748 236.366 172.916 235.675 173.252 235.078C173.598 234.471 174.064 234.009 174.652 233.692C175.24 233.365 175.898 233.202 176.626 233.202C177.354 233.202 178.012 233.365 178.6 233.692C179.188 234.009 179.65 234.467 179.986 235.064C180.332 235.661 180.504 236.357 180.504 237.15C180.504 237.943 180.327 238.643 179.972 239.25C179.627 239.847 179.156 240.309 178.558 240.636C177.961 240.963 177.298 241.126 176.57 241.126ZM176.57 240.006C177.028 240.006 177.457 239.899 177.858 239.684C178.26 239.469 178.582 239.147 178.824 238.718C179.076 238.289 179.202 237.766 179.202 237.15C179.202 236.534 179.081 236.011 178.838 235.582C178.596 235.153 178.278 234.835 177.886 234.63C177.494 234.415 177.07 234.308 176.612 234.308C176.146 234.308 175.716 234.415 175.324 234.63C174.942 234.835 174.634 235.153 174.4 235.582C174.167 236.011 174.05 236.534 174.05 237.15C174.05 237.775 174.162 238.303 174.386 238.732C174.62 239.161 174.928 239.483 175.31 239.698C175.693 239.903 176.113 240.006 176.57 240.006ZM186.556 229.856L186.388 232.642H185.506L185.324 229.856H186.556ZM193.279 241L190.955 237.01H189.415V241H188.141V231.242H191.291C192.028 231.242 192.649 231.368 193.153 231.62C193.666 231.872 194.049 232.213 194.301 232.642C194.553 233.071 194.679 233.561 194.679 234.112C194.679 234.784 194.483 235.377 194.091 235.89C193.708 236.403 193.129 236.744 192.355 236.912L194.805 241H193.279ZM189.415 235.988H191.291C191.981 235.988 192.499 235.82 192.845 235.484C193.19 235.139 193.363 234.681 193.363 234.112C193.363 233.533 193.19 233.085 192.845 232.768C192.509 232.451 191.991 232.292 191.291 232.292H189.415V235.988ZM196.182 237.136C196.182 236.352 196.341 235.666 196.658 235.078C196.975 234.481 197.409 234.019 197.96 233.692C198.52 233.365 199.141 233.202 199.822 233.202C200.494 233.202 201.077 233.347 201.572 233.636C202.067 233.925 202.435 234.289 202.678 234.728V233.328H203.966V241H202.678V239.572C202.426 240.02 202.048 240.393 201.544 240.692C201.049 240.981 200.471 241.126 199.808 241.126C199.127 241.126 198.511 240.958 197.96 240.622C197.409 240.286 196.975 239.815 196.658 239.208C196.341 238.601 196.182 237.911 196.182 237.136ZM202.678 237.15C202.678 236.571 202.561 236.067 202.328 235.638C202.095 235.209 201.777 234.882 201.376 234.658C200.984 234.425 200.55 234.308 200.074 234.308C199.598 234.308 199.164 234.42 198.772 234.644C198.38 234.868 198.067 235.195 197.834 235.624C197.601 236.053 197.484 236.557 197.484 237.136C197.484 237.724 197.601 238.237 197.834 238.676C198.067 239.105 198.38 239.437 198.772 239.67C199.164 239.894 199.598 240.006 200.074 240.006C200.55 240.006 200.984 239.894 201.376 239.67C201.777 239.437 202.095 239.105 202.328 238.676C202.561 238.237 202.678 237.729 202.678 237.15ZM206.777 232.082C206.534 232.082 206.329 231.998 206.161 231.83C205.993 231.662 205.909 231.457 205.909 231.214C205.909 230.971 205.993 230.766 206.161 230.598C206.329 230.43 206.534 230.346 206.777 230.346C207.01 230.346 207.206 230.43 207.365 230.598C207.533 230.766 207.617 230.971 207.617 231.214C207.617 231.457 207.533 231.662 207.365 231.83C207.206 231.998 207.01 232.082 206.777 232.082ZM207.393 233.328V241H206.119V233.328H207.393ZM212.28 241.126C211.692 241.126 211.165 241.028 210.698 240.832C210.232 240.627 209.863 240.347 209.592 239.992C209.322 239.628 209.172 239.213 209.144 238.746H210.46C210.498 239.129 210.675 239.441 210.992 239.684C211.319 239.927 211.744 240.048 212.266 240.048C212.752 240.048 213.134 239.941 213.414 239.726C213.694 239.511 213.834 239.241 213.834 238.914C213.834 238.578 213.685 238.331 213.386 238.172C213.088 238.004 212.626 237.841 212 237.682C211.431 237.533 210.964 237.383 210.6 237.234C210.246 237.075 209.938 236.847 209.676 236.548C209.424 236.24 209.298 235.839 209.298 235.344C209.298 234.952 209.415 234.593 209.648 234.266C209.882 233.939 210.213 233.683 210.642 233.496C211.072 233.3 211.562 233.202 212.112 233.202C212.962 233.202 213.648 233.417 214.17 233.846C214.693 234.275 214.973 234.863 215.01 235.61H213.736C213.708 235.209 213.545 234.887 213.246 234.644C212.957 234.401 212.565 234.28 212.07 234.28C211.613 234.28 211.249 234.378 210.978 234.574C210.708 234.77 210.572 235.027 210.572 235.344C210.572 235.596 210.652 235.806 210.81 235.974C210.978 236.133 211.184 236.263 211.426 236.366C211.678 236.459 212.024 236.567 212.462 236.688C213.013 236.837 213.461 236.987 213.806 237.136C214.152 237.276 214.446 237.491 214.688 237.78C214.94 238.069 215.071 238.447 215.08 238.914C215.08 239.334 214.964 239.712 214.73 240.048C214.497 240.384 214.166 240.65 213.736 240.846C213.316 241.033 212.831 241.126 212.28 241.126ZM223.879 236.87C223.879 237.113 223.865 237.369 223.837 237.64H217.705C217.751 238.396 218.008 238.989 218.475 239.418C218.951 239.838 219.525 240.048 220.197 240.048C220.747 240.048 221.205 239.922 221.569 239.67C221.942 239.409 222.203 239.063 222.353 238.634H223.725C223.519 239.371 223.109 239.973 222.493 240.44C221.877 240.897 221.111 241.126 220.197 241.126C219.469 241.126 218.815 240.963 218.237 240.636C217.667 240.309 217.219 239.847 216.893 239.25C216.566 238.643 216.403 237.943 216.403 237.15C216.403 236.357 216.561 235.661 216.879 235.064C217.196 234.467 217.639 234.009 218.209 233.692C218.787 233.365 219.45 233.202 220.197 233.202C220.925 233.202 221.569 233.361 222.129 233.678C222.689 233.995 223.118 234.434 223.417 234.994C223.725 235.545 223.879 236.17 223.879 236.87ZM222.563 236.604C222.563 236.119 222.455 235.703 222.241 235.358C222.026 235.003 221.732 234.737 221.359 234.56C220.995 234.373 220.589 234.28 220.141 234.28C219.497 234.28 218.946 234.485 218.489 234.896C218.041 235.307 217.784 235.876 217.719 236.604H222.563ZM235.299 231.242V232.278H232.639V241H231.365V232.278H228.691V231.242H235.299ZM237.525 232.082C237.282 232.082 237.077 231.998 236.909 231.83C236.741 231.662 236.657 231.457 236.657 231.214C236.657 230.971 236.741 230.766 236.909 230.598C237.077 230.43 237.282 230.346 237.525 230.346C237.758 230.346 237.954 230.43 238.113 230.598C238.281 230.766 238.365 230.971 238.365 231.214C238.365 231.457 238.281 231.662 238.113 231.83C237.954 231.998 237.758 232.082 237.525 232.082ZM238.141 233.328V241H236.867V233.328H238.141ZM239.836 237.15C239.836 236.357 239.995 235.666 240.312 235.078C240.63 234.481 241.068 234.019 241.628 233.692C242.198 233.365 242.846 233.202 243.574 233.202C244.517 233.202 245.292 233.431 245.898 233.888C246.514 234.345 246.92 234.98 247.116 235.792H245.744C245.614 235.325 245.357 234.957 244.974 234.686C244.601 234.415 244.134 234.28 243.574 234.28C242.846 234.28 242.258 234.532 241.81 235.036C241.362 235.531 241.138 236.235 241.138 237.15C241.138 238.074 241.362 238.788 241.81 239.292C242.258 239.796 242.846 240.048 243.574 240.048C244.134 240.048 244.601 239.917 244.974 239.656C245.348 239.395 245.604 239.021 245.744 238.536H247.116C246.911 239.32 246.5 239.95 245.884 240.426C245.268 240.893 244.498 241.126 243.574 241.126C242.846 241.126 242.198 240.963 241.628 240.636C241.068 240.309 240.63 239.847 240.312 239.25C239.995 238.653 239.836 237.953 239.836 237.15ZM253.1 241L250.09 237.612V241H248.816V230.64H250.09V236.73L253.044 233.328H254.822L251.21 237.15L254.836 241H253.1ZM263.021 236.87C263.021 237.113 263.007 237.369 262.979 237.64H256.847C256.894 238.396 257.151 238.989 257.617 239.418C258.093 239.838 258.667 240.048 259.339 240.048C259.89 240.048 260.347 239.922 260.711 239.67C261.085 239.409 261.346 239.063 261.495 238.634H262.867C262.662 239.371 262.251 239.973 261.635 240.44C261.019 240.897 260.254 241.126 259.339 241.126C258.611 241.126 257.958 240.963 257.379 240.636C256.81 240.309 256.362 239.847 256.035 239.25C255.709 238.643 255.545 237.943 255.545 237.15C255.545 236.357 255.704 235.661 256.021 235.064C256.339 234.467 256.782 234.009 257.351 233.692C257.93 233.365 258.593 233.202 259.339 233.202C260.067 233.202 260.711 233.361 261.271 233.678C261.831 233.995 262.261 234.434 262.559 234.994C262.867 235.545 263.021 236.17 263.021 236.87ZM261.705 236.604C261.705 236.119 261.598 235.703 261.383 235.358C261.169 235.003 260.875 234.737 260.501 234.56C260.137 234.373 259.731 234.28 259.283 234.28C258.639 234.28 258.089 234.485 257.631 234.896C257.183 235.307 256.927 235.876 256.861 236.604H261.705ZM266.257 234.378V238.9C266.257 239.273 266.336 239.539 266.495 239.698C266.654 239.847 266.929 239.922 267.321 239.922H268.259V241H267.111C266.402 241 265.87 240.837 265.515 240.51C265.16 240.183 264.983 239.647 264.983 238.9V234.378H263.989V233.328H264.983V231.396H266.257V233.328H268.259V234.378H266.257ZM270.447 229.856L270.279 232.642H269.397L269.215 229.856H270.447Z" fill="#748294"/>
<defs>
<clipPath id="clip0_3660_11345">
<rect width="345" height="197" fill="white"/>
</clipPath>
</defs>
</svg>
