<svg xmlns="http://www.w3.org/2000/svg" width="25.858" height="25.858" viewBox="338.071 478.069 25.858 25.858"><g data-name="Group 43"><g data-name="Group 40"><g data-name="Group 39" transform="translate(337 477)" clip-path="url(#a)"><path d="M13.006 5.047H26.93v9.943h0-13.923 0V5.047h0z" stroke-linejoin="round" stroke-linecap="round" stroke-width="1.65" stroke="#000" fill="transparent" data-name="Rectangle 44"/></g></g><path d="M356.967 482.047v9.943" stroke-linejoin="round" stroke-linecap="round" stroke-width="1.65" stroke="#000" fill="transparent" data-name="Line 3"/><g data-name="Group 42"><g data-name="Group 41" transform="translate(337 477)" clip-path="url(#b)"><path d="m16.983 1.069 2.982 3.98 2.985-3.98" stroke-linejoin="round" stroke-linecap="round" stroke-width="1.65" stroke="#000" fill="transparent" data-name="Path 65"/><path d="m1.071 21.953 4.862 4.053a3.968 3.968 0 0 0 2.545.921h12.813c.917 0 1.658-.741 1.658-1.658a3.313 3.313 0 0 0-3.316-3.316h-8.906" stroke-linejoin="round" stroke-linecap="round" stroke-width="1.65" stroke="#000" fill="transparent" data-name="Path 66"/><path d="m7.039 19.961 1.49 1.491a2.11 2.11 0 1 0 2.986-2.982l-2.317-2.317a3.976 3.976 0 0 0-2.81-1.165H1.07" stroke-linejoin="round" stroke-linecap="round" stroke-width="1.65" stroke="#000" fill="transparent" data-name="Path 67"/></g></g></g><defs><clipPath id="a"><path d="M0 0h28v27.996H0V0z" data-name="Rectangle 45"/></clipPath><clipPath id="b"><path d="M0 0h28v27.996H0V0z" data-name="Rectangle 46"/></clipPath></defs></svg>