<svg width="20" height="19" viewBox="0 0 20 19" fill="none" xmlns="http://www.w3.org/2000/svg">
<path d="M7.56202 0.24054H7.80725C8.52195 0.266943 9.23014 0.487935 9.82403 0.888688C10.6266 1.4229 11.2187 2.26636 11.4386 3.20603C11.6477 4.07807 11.5403 5.02316 11.1348 5.82395C10.7134 6.66741 9.97341 7.34666 9.09487 7.68954C8.21704 8.03713 7.2101 8.04472 6.32794 7.70835C5.44505 7.37777 4.69455 6.71081 4.2616 5.8735C3.85434 5.09731 3.7292 4.1797 3.90679 3.32214C4.0898 2.41393 4.61751 1.58313 5.3568 1.02577C5.98686 0.543274 6.7692 0.268751 7.56202 0.24054ZM7.30559 1.42471C6.38653 1.54769 5.56079 2.18426 5.202 3.03857C4.91879 3.69323 4.91337 4.46146 5.18608 5.12046C5.39731 5.63804 5.77455 6.08509 6.24764 6.38239C6.73556 6.69417 7.32729 6.83776 7.90382 6.78966C8.43153 6.74843 8.94476 6.54552 9.35854 6.21602C9.84067 5.83697 10.1875 5.28864 10.3203 4.68969C10.4541 4.09688 10.381 3.45958 10.1119 2.91451C9.83307 2.34232 9.34588 1.87357 8.76066 1.62147C8.30638 1.42218 7.7964 1.35563 7.30559 1.42471Z" fill="black"/>
<path d="M3.8104 9.54898C4.17101 9.48532 4.53848 9.5016 4.90271 9.49979C6.85547 9.49943 8.80823 9.50015 10.761 9.49943C10.9209 9.50015 11.093 9.48424 11.2373 9.56779C11.4851 9.69655 11.6121 10.0156 11.509 10.2778C11.4254 10.5075 11.1882 10.6691 10.9429 10.6572C8.94097 10.6572 6.93938 10.6572 4.93779 10.6572C4.5515 10.6612 4.15726 10.6315 3.78038 10.7368C2.91269 10.9534 2.19546 11.6707 1.9788 12.5387C1.87428 12.9149 1.90357 13.3084 1.89959 13.6943C1.89959 14.2249 1.89923 14.7559 1.89959 15.2868C3.88925 15.2872 5.87891 15.2861 7.86856 15.2872C8.18106 15.2731 8.4639 15.5527 8.45776 15.8644C8.46607 16.1766 8.18251 16.4562 7.87037 16.4439C5.68721 16.4442 3.50369 16.445 1.32053 16.4435C1.03335 16.4493 0.776548 16.212 0.742188 15.9299V12.9923C0.785952 12.2099 1.0753 11.4421 1.57733 10.8388C2.13433 10.1591 2.94198 9.68859 3.8104 9.54898Z" fill="black"/>
<path d="M12.8229 10.9545C13.0656 10.7577 13.3781 10.6528 13.6902 10.6571C14.3416 10.6582 14.993 10.6543 15.6441 10.6593C16.1895 10.6702 16.6984 11.051 16.8706 11.5675C16.9863 11.8945 16.9324 12.2468 16.9454 12.586C17.284 12.5882 17.6225 12.5824 17.9614 12.5886C18.338 12.5987 18.7029 12.7806 18.9434 13.0696C19.1217 13.2776 19.2208 13.5413 19.2599 13.81V17.4971C19.2324 17.8027 19.1102 18.1014 18.8986 18.3261C18.6675 18.5792 18.3369 18.7297 17.9969 18.759H11.2727C10.7866 18.7286 10.3291 18.4219 10.1272 17.977C10.0343 17.7817 9.9963 17.5643 10.0003 17.3491C10.0014 16.1914 9.99956 15.0336 10.0014 13.8758C10.0198 13.2255 10.5689 12.6443 11.2185 12.5936C11.5834 12.5766 11.9494 12.5907 12.3151 12.586C12.3176 12.377 12.3115 12.1679 12.3176 11.9592C12.3278 11.5715 12.5195 11.195 12.8229 10.9545ZM13.4754 11.9907C13.4685 12.1889 13.4747 12.3875 13.4732 12.586C14.2447 12.5864 15.0158 12.586 15.7873 12.586C15.7859 12.3882 15.7917 12.1904 15.7851 11.9925C15.783 11.8854 15.677 11.8041 15.5736 11.8149C14.9439 11.8142 14.3145 11.8142 13.6852 11.8149C13.5825 11.8048 13.4783 11.8854 13.4754 11.9907ZM11.5002 13.7406C12.5495 14.2223 13.5864 14.7319 14.6314 15.2231C15.6763 14.7334 16.7122 14.2234 17.7603 13.7406C17.0059 13.7467 16.2517 13.7453 15.4976 13.7434C14.1651 13.7409 12.8327 13.75 11.5002 13.7406ZM11.1581 14.8531C11.1584 15.6984 11.1573 16.5437 11.1584 17.3893C11.1454 17.5079 11.2535 17.6146 11.3722 17.6012C13.5445 17.602 15.7168 17.602 17.8895 17.6012C18.007 17.6139 18.1144 17.5076 18.1021 17.3896C18.1029 16.5451 18.1025 15.7002 18.1021 14.8556C17.0315 15.3613 15.9638 15.8745 14.8936 16.3813C14.7384 16.4579 14.5496 16.4659 14.3919 16.3914C13.3137 15.8792 12.237 15.3638 11.1581 14.8531Z" fill="#FF7000"/>
</svg>
