<svg width="16" height="15" viewBox="0 0 16 15" fill="none" xmlns="http://www.w3.org/2000/svg">
<path d="M7.85322 0H8.11455C9.26709 0.0208008 10.4161 0.301758 11.4397 0.834082C13.037 1.65381 14.3193 3.06738 14.9744 4.73936C15.3061 5.57022 15.4774 6.46143 15.5 7.35498V7.61484C15.4792 8.76035 15.2015 9.90234 14.6753 10.9213C14.1213 12.005 13.2969 12.9483 12.2999 13.6459C11.0835 14.5034 9.60635 14.9757 8.11953 15H1.06631C0.768652 14.9927 0.511426 14.7375 0.5 14.4404V7.36553C0.524023 6.24785 0.790918 5.13428 1.2957 4.13584C1.90361 2.92119 2.8499 1.87852 3.99951 1.15518C5.14648 0.425977 6.4959 0.0295898 7.85322 0ZM6.65264 1.31631C5.75498 1.51318 4.89453 1.90049 4.17061 2.46914C3.57441 2.91299 3.07168 3.4749 2.66533 4.0957C2.02139 5.0959 1.67656 6.28184 1.67275 7.4707C1.6707 9.58975 1.67246 11.7091 1.67188 13.8281C3.65469 13.8281 5.6375 13.8281 7.62031 13.8281C7.89424 13.8278 8.16846 13.8313 8.4415 13.8114C9.67754 13.7279 10.891 13.2747 11.864 12.5051C12.0462 12.3797 12.2012 12.2209 12.3667 12.0756C12.5094 11.9531 12.6266 11.8058 12.7546 11.6692C12.9292 11.4885 13.0657 11.2761 13.2189 11.0777C13.7896 10.2516 14.157 9.28535 14.2777 8.28838C14.4734 6.75527 14.0882 5.15098 13.1938 3.88799C12.9037 3.48252 12.5782 3.09961 12.2 2.77324C12.0102 2.58721 11.7872 2.4416 11.5771 2.28047C11.0782 1.93535 10.5274 1.66611 9.95088 1.47861C8.89121 1.13555 7.74102 1.08193 6.65264 1.31631Z" fill="black"/>
<path d="M7.54448 4.12265C8.08383 4.06611 8.64868 4.12675 9.13881 4.37021C9.49067 4.54423 9.79799 4.82783 9.95415 5.19286C10.1428 5.62265 10.1044 6.13388 9.88969 6.54697C9.69809 6.9454 9.3934 7.27939 9.05239 7.55595C8.88042 7.70449 8.69291 7.8413 8.56108 8.02968C8.46293 8.16562 8.40317 8.32734 8.38208 8.49345C8.35278 8.68564 8.38442 8.88368 8.33696 9.07353C8.28891 9.2329 8.11899 9.31083 7.96577 9.3331C7.78383 9.35536 7.5852 9.36796 7.41674 9.283C7.26235 9.19804 7.2184 9.00908 7.20581 8.84677C7.1768 8.40146 7.24799 7.93329 7.49262 7.55244C7.70883 7.20497 8.06508 6.98906 8.36391 6.72187C8.57661 6.5455 8.76293 6.30468 8.78461 6.01992C8.80952 5.7999 8.71284 5.56962 8.52915 5.44394C8.28979 5.2787 7.98452 5.25146 7.70239 5.2749C7.4645 5.29452 7.22133 5.38681 7.07016 5.5787C6.9351 5.72372 6.85922 5.93466 6.66967 6.0205C6.38637 6.11894 6.02866 5.96249 5.92729 5.67509C5.87543 5.53886 5.89184 5.38827 5.92495 5.24999C6.01254 4.94794 6.21879 4.68925 6.47309 4.50849C6.78569 4.28349 7.1642 4.16484 7.54448 4.12265Z" fill="#FF7000"/>
<path d="M7.56694 10.0858C7.99819 9.95304 8.4854 10.2774 8.54458 10.7206C8.62544 11.1554 8.26626 11.603 7.82592 11.6233C7.43276 11.6622 7.05688 11.3479 7.0059 10.96C6.94028 10.5823 7.19546 10.1821 7.56694 10.0858Z" fill="#FF7000"/>
</svg>
