<svg width="18" height="17" viewBox="0 0 18 17" fill="none" xmlns="http://www.w3.org/2000/svg">
<path d="M5.28741 0.277518C5.49675 0.196471 5.72172 0.163762 5.9456 0.165215C7.99285 0.165215 10.0401 0.164489 12.087 0.165579C12.5231 0.162308 12.9578 0.327309 13.2783 0.623148C13.6022 0.91826 13.8082 1.33948 13.8388 1.7767C13.8529 2.01439 13.8424 2.25281 13.846 2.49086C14.3138 2.49268 14.7819 2.48831 15.2496 2.49304C15.7926 2.50249 16.3276 2.73073 16.7099 3.1167C17.1126 3.51648 17.3401 4.08163 17.3343 4.64859C17.3347 6.45343 17.3361 8.25826 17.3336 10.0631C17.3358 10.3727 17.0508 10.645 16.7426 10.6315C16.4297 10.6322 16.1539 10.3437 16.1717 10.0308C16.1749 8.50613 16.1651 6.9815 16.1771 5.45724C16.0412 5.84685 15.8784 6.22701 15.7272 6.6108C15.4292 7.34094 14.6968 7.86684 13.9093 7.91227C13.5008 7.92644 13.0915 7.91445 12.683 7.91881C12.6932 8.1227 12.683 8.3513 12.5282 8.50431C12.3156 8.75254 11.8951 8.75399 11.6792 8.5094C11.5193 8.35712 11.5084 8.12488 11.5197 7.91881C9.83984 7.91845 8.16003 7.91845 6.48022 7.91881C6.49148 8.12561 6.47949 8.35784 6.31958 8.51049C6.1037 8.75581 5.6832 8.75036 5.47059 8.50322C5.31576 8.35058 5.30667 8.12234 5.31721 7.91881C4.94469 7.91699 4.57217 7.92063 4.19964 7.91699C3.6156 7.90973 3.04245 7.64587 2.65357 7.21156C2.46204 7.00186 2.32103 6.75108 2.22181 6.4865C2.09024 6.14341 1.94232 5.80651 1.82312 5.45942C1.83584 8.03547 1.82239 10.6115 1.83002 13.1879C1.83547 13.6877 2.28505 14.1252 2.78441 14.1202C4.85601 14.1227 6.92761 14.1198 8.99885 14.1216C9.31395 14.1122 9.59452 14.4011 9.58071 14.7147C9.5818 15.02 9.30523 15.2908 8.99957 15.2835C6.95196 15.285 4.90435 15.2839 2.85674 15.2839C2.04481 15.3104 1.24307 14.8336 0.889444 14.1009C0.736799 13.7967 0.663021 13.4554 0.665202 13.1156C0.664839 10.3044 0.665202 7.49286 0.665202 4.68166C0.661568 4.36802 0.718627 4.05292 0.846558 3.7658C1.15948 3.03165 1.91652 2.51703 2.71427 2.49449C3.19401 2.4865 3.67411 2.4934 4.15385 2.49086C4.16366 2.12815 4.11859 1.75489 4.23017 1.40309C4.38245 0.890638 4.7855 0.461781 5.28741 0.277518ZM5.32158 1.84794C5.31067 2.062 5.32012 2.27643 5.31721 2.49086C7.77224 2.49122 10.2276 2.49122 12.6827 2.49086C12.6794 2.27643 12.6896 2.062 12.6783 1.84794C12.6554 1.55573 12.381 1.31622 12.0892 1.32822C10.0296 1.32785 7.96995 1.32785 5.91071 1.32822C5.61851 1.31622 5.34411 1.55609 5.32158 1.84794ZM2.38536 3.74363C2.69973 4.54065 3.01701 5.33658 3.33284 6.13324C3.46986 6.49886 3.84456 6.75617 4.23453 6.75508C4.59543 6.75617 4.95632 6.75508 5.31721 6.75508C5.30849 6.55919 5.31322 6.34222 5.45278 6.18812C5.6603 5.92499 6.09861 5.91045 6.31994 6.1634C6.4784 6.3175 6.49221 6.54828 6.48022 6.75508C8.16003 6.75544 9.83984 6.75544 11.5197 6.75508C11.5106 6.55701 11.516 6.3364 11.6603 6.18267C11.8711 5.92208 12.309 5.91336 12.5275 6.16849C12.6816 6.32223 12.6939 6.55047 12.683 6.75508C12.9941 6.75617 13.3052 6.75472 13.6163 6.75581C13.7603 6.75763 13.9067 6.7569 14.0448 6.71147C14.3269 6.62788 14.5602 6.40691 14.6667 6.13396C14.9829 5.33731 15.2998 4.54065 15.6149 3.74363C15.4869 3.69166 15.3521 3.65495 15.2133 3.65495C11.0708 3.65386 6.92761 3.65386 2.78514 3.65495C2.64703 3.65495 2.51256 3.69166 2.38536 3.74363Z" fill="black"/>
<path d="M11.6589 9.88686C12.3014 9.52524 13.0676 9.39258 13.7948 9.51251C14.4919 9.62227 15.1479 9.96863 15.636 10.4778C16.1684 11.027 16.4999 11.7666 16.5504 12.5305C16.6071 13.2756 16.3945 14.033 15.9703 14.6468C16.3687 15.0491 16.7725 15.446 17.1704 15.8491C17.2998 15.9792 17.3565 16.1729 17.3245 16.3532C17.2889 16.5894 17.0883 16.7889 16.8524 16.8249C16.6725 16.8562 16.4792 16.7998 16.3494 16.6701C15.9475 16.2714 15.5491 15.8687 15.1472 15.4696C14.6751 15.7953 14.1197 16.0003 13.5473 16.0468C12.7506 16.1184 11.9318 15.885 11.2936 15.4031C10.7554 15.0033 10.3447 14.4349 10.1353 13.7978C9.88857 13.0546 9.91801 12.223 10.2208 11.5005C10.5013 10.8216 11.0178 10.2445 11.6589 9.88686ZM12.8684 10.6697C12.1895 10.7951 11.5887 11.2712 11.3143 11.905C11.0785 12.4313 11.0723 13.0539 11.2976 13.5848C11.52 14.122 11.9725 14.5574 12.5177 14.7595C12.9255 14.9147 13.3823 14.939 13.8039 14.8253C14.3363 14.6901 14.8066 14.3346 15.0886 13.8643C15.3808 13.3835 15.4732 12.7842 15.3292 12.2394C15.206 11.7469 14.8986 11.3039 14.481 11.0153C14.019 10.6897 13.4234 10.5618 12.8684 10.6697Z" fill="#FF7000"/>
</svg>
