<svg width="20" height="21" viewBox="0 0 20 21" fill="none" xmlns="http://www.w3.org/2000/svg">
<path d="M4.14448 2.52494C4.25154 2.50518 4.36084 2.50006 4.46977 2.50006C8.18845 2.50153 11.9068 2.49823 15.6251 2.50153C16.248 2.50409 16.8271 2.96327 16.9607 3.55709C17.0052 3.73016 17 3.90944 16.9996 4.08616C16.9993 8.42808 17 12.77 16.9993 17.1119C17.006 17.6929 16.5882 18.2465 16.0181 18.4108C15.6003 18.5411 15.1212 18.4631 14.7712 18.2045C13.2458 17.087 11.7211 15.9678 10.196 14.85C10.1234 14.7853 10.0062 14.7706 9.92912 14.8358C8.37712 15.9642 6.82474 17.0918 5.27236 18.2198C5.11214 18.3358 4.92871 18.4222 4.73406 18.4653C4.20325 18.5879 3.60842 18.3782 3.282 17.9509C3.09521 17.712 2.99601 17.4112 3.00012 17.1108C3.0005 12.6961 2.99937 8.28173 3.00087 3.867C2.99189 3.2278 3.50061 2.63251 4.14448 2.52494ZM4.33127 3.69211C4.25266 3.72869 4.2156 3.81541 4.22196 3.89737C4.22159 8.26563 4.22309 12.6339 4.22159 17.0022C4.22383 17.0984 4.20399 17.2206 4.29795 17.2843C4.37544 17.3512 4.49635 17.3545 4.57309 17.2843C6.12435 16.1537 7.67336 15.0198 9.22462 13.8892C9.70714 13.5365 10.421 13.5435 10.8979 13.902C12.4327 15.0253 13.966 16.1508 15.5 17.2747C15.6247 17.3885 15.8519 17.2744 15.8407 17.1116C15.8429 12.7078 15.8407 8.30442 15.8418 3.90066C15.8549 3.79455 15.7819 3.67637 15.6659 3.67125C11.9842 3.67088 8.30225 3.67125 4.62026 3.67088C4.52443 3.67527 4.42261 3.65625 4.33127 3.69211Z" fill="black"/>
</svg>
