<svg width="18" height="19" viewBox="0 0 18 19" fill="none" xmlns="http://www.w3.org/2000/svg">
<path d="M5.30643 1.29963C5.31553 0.996205 5.59856 0.738675 5.90089 0.753609C6.19449 0.753609 6.45748 1.01041 6.46768 1.30327C6.47314 1.63766 6.46804 1.97241 6.46986 2.30717C8.15346 2.3079 9.83706 2.30717 11.5207 2.30717C11.5228 1.97314 11.5177 1.63875 11.5225 1.30437C11.5298 1.00932 11.7957 0.752881 12.0904 0.753609C12.3931 0.739039 12.6735 0.999483 12.6841 1.30145C12.6903 1.63657 12.6841 1.97205 12.6866 2.30717C13.2771 2.3079 13.8676 2.30644 14.458 2.3079C15.0496 2.3119 15.6389 2.50095 16.1209 2.84445C16.6334 3.20652 17.0217 3.73906 17.2107 4.33717C17.3156 4.66063 17.3557 5.00231 17.3491 5.34143C17.3499 6.72634 17.3502 8.11088 17.348 9.49542C17.3553 9.79702 17.0923 10.0706 16.7915 10.0771C16.4855 10.0975 16.193 9.83564 16.1853 9.52784C16.1806 8.93446 16.1846 8.34072 16.1831 7.74735C11.3913 7.74698 6.59918 7.74698 1.80737 7.74735C1.80774 10.2724 1.80628 12.7974 1.80774 15.3228C1.80664 15.8004 2.01099 16.2742 2.36214 16.5988C2.68414 16.903 3.12525 17.0734 3.56783 17.0716C5.12357 17.0734 6.67931 17.0698 8.23469 17.0734C8.55196 17.072 8.82515 17.3736 8.79965 17.6883C8.78873 17.9935 8.50388 18.2533 8.19863 18.2376C6.65491 18.2376 5.11118 18.2376 3.56746 18.2376C2.88047 18.2409 2.19603 17.9924 1.67296 17.5473C1.02458 17.0042 0.637013 16.1675 0.641748 15.3221C0.642112 11.9589 0.640291 8.59534 0.641748 5.23215C0.637741 4.5601 0.875966 3.88986 1.30397 3.37189C1.83396 2.72096 2.65682 2.32028 3.4968 2.30862C4.09891 2.30571 4.7014 2.30862 5.30388 2.30717C5.30643 1.97132 5.30023 1.63548 5.30643 1.29963ZM2.28491 4.02245C1.98586 4.33608 1.8132 4.76481 1.80846 5.19791C1.80555 5.65906 1.8081 6.12021 1.80737 6.581C6.59918 6.58136 11.3913 6.58136 16.1831 6.581C16.1835 6.16866 16.1828 5.75595 16.1835 5.34362C16.185 5.16039 16.1759 4.97535 16.1296 4.79723C16.009 4.30403 15.6608 3.87274 15.2033 3.65237C14.9618 3.53216 14.6919 3.47425 14.4231 3.47352C13.8443 3.47243 13.2654 3.47352 12.6866 3.47315C12.6841 3.80463 12.6896 4.1361 12.6845 4.46721C12.6808 4.76044 12.4211 5.01943 12.129 5.02635C11.8186 5.04675 11.5236 4.77756 11.5221 4.46539C11.5185 4.13465 11.5221 3.8039 11.5207 3.47315C9.83706 3.47279 8.15346 3.47279 6.46986 3.47315C6.46804 3.8039 6.47205 4.13501 6.46841 4.46576C6.46513 4.76335 6.19849 5.02562 5.90126 5.02671C5.59637 5.04019 5.30934 4.7761 5.3057 4.4694C5.30133 4.1372 5.3057 3.80536 5.30388 3.47315C4.71378 3.47352 4.12332 3.47133 3.53286 3.47425C3.06552 3.47862 2.60437 3.68115 2.28491 4.02245Z" fill="#5F6B7A"/>
<path d="M12.294 9.34022C13.2775 9.20872 14.3032 9.41452 15.1559 9.92376C16.3223 10.6082 17.1451 11.8459 17.3105 13.1901C17.4875 14.4872 17.0533 15.8491 16.1584 16.8038C15.306 17.7345 14.0449 18.2714 12.7828 18.2354C11.5418 18.2161 10.3252 17.6431 9.51395 16.7048C8.82987 15.9264 8.43174 14.9032 8.41426 13.8668C8.3873 12.8309 8.73808 11.7913 9.38828 10.9845C10.0971 10.0895 11.1608 9.48483 12.294 9.34022ZM12.5358 10.4851C11.8299 10.5561 11.1517 10.8665 10.6333 11.3506C10.2064 11.7461 9.88659 12.2561 9.71903 12.8134C9.49683 13.5459 9.53908 14.3557 9.84069 15.0598C10.1445 15.7788 10.7131 16.3813 11.4132 16.727C12.1213 17.0829 12.9595 17.1656 13.7248 16.9619C14.7793 16.6917 15.6655 15.8615 16.0083 14.8292C16.276 14.0442 16.2334 13.1587 15.8877 12.4047C15.5624 11.6849 14.9698 11.0901 14.2504 10.7641C13.7175 10.5193 13.1186 10.4242 12.5358 10.4851Z" fill="#5F6B7A"/>
<path d="M12.4451 11.0515C12.6579 10.7962 13.0906 10.7911 13.3077 11.0435C13.4618 11.1983 13.476 11.4267 13.4636 11.6321C13.6556 11.6259 13.8686 11.6252 14.0209 11.7614C14.2744 11.9534 14.3156 12.3596 14.0981 12.5938C13.983 12.7318 13.8034 12.8054 13.625 12.7981C13.2833 12.7934 12.9413 12.8072 12.5999 12.8003C12.4499 12.8072 12.3726 13.0094 12.4735 13.1179C12.5387 13.201 12.6528 13.1853 12.746 13.1875C12.9919 13.1904 13.2429 13.1664 13.4833 13.2316C13.8399 13.3227 14.1528 13.5667 14.3291 13.8894C14.5148 14.2224 14.5494 14.6343 14.4227 14.9939C14.277 15.4233 13.9025 15.7592 13.4636 15.8688C13.4603 16.0196 13.4807 16.1777 13.4199 16.3205C13.3387 16.5179 13.1441 16.6654 12.9296 16.6811C12.6724 16.7073 12.4153 16.5365 12.3308 16.2943C12.2867 16.1701 12.2991 16.036 12.298 15.9067C12.0984 15.9158 11.8773 15.9089 11.7235 15.7628C11.4707 15.5599 11.454 15.1428 11.6857 14.9174C11.7891 14.8096 11.9363 14.744 12.086 14.7422C12.4408 14.7367 12.7959 14.7454 13.1507 14.7385C13.2949 14.74 13.386 14.5546 13.3015 14.4395C13.2301 14.3244 13.0804 14.3557 12.9667 14.3517C12.6517 14.3571 12.3206 14.3663 12.0328 14.2165C11.4981 13.9699 11.175 13.3482 11.2813 12.7686C11.3615 12.2408 11.7825 11.7964 12.298 11.6693C12.2907 11.4562 12.2856 11.2158 12.4451 11.0515Z" fill="#5F6B7A"/>
</svg>
