<svg width="20" height="21" viewBox="0 0 20 21" fill="none" xmlns="http://www.w3.org/2000/svg">
<path d="M6.15902 2.71105C6.44157 2.36994 6.84977 2.16764 7.26318 2.16764C9.07601 2.16579 10.8892 2.16727 12.7023 2.1669C13.0337 2.1621 13.3657 2.27876 13.6323 2.50284C14.0106 2.8122 14.2511 3.32607 14.2619 3.85546C14.2677 4.2704 14.2619 4.68534 14.2645 5.10064C15.1216 5.10064 15.9787 5.09991 16.8354 5.10064C17.0428 5.10064 17.2515 5.14015 17.4422 5.23465C17.9595 5.47793 18.3201 6.08114 18.3332 6.71537V9.4756C18.3091 10.0209 18.1056 10.5458 17.7837 10.9493C17.7394 11.0121 17.6672 11.0685 17.6815 11.1605C17.6831 13.0078 17.6818 14.8554 17.6821 16.7031C17.6782 17.0313 17.7059 17.3702 17.6092 17.6862C17.4256 18.3555 16.8361 18.8435 16.2176 18.8328C12.0721 18.8335 7.92627 18.8335 3.78076 18.8328C3.19906 18.8406 2.64014 18.4105 2.42627 17.798C2.34587 17.5799 2.31494 17.3425 2.31722 17.1073C2.3182 15.1253 2.31657 13.1432 2.3182 11.1612C2.33285 11.0689 2.26058 11.0121 2.21566 10.9489C1.89469 10.5477 1.69157 10.0246 1.6665 9.48151V6.68842C1.68506 6.32479 1.80452 5.9667 2.01481 5.68983C2.28792 5.32104 2.70752 5.09991 3.13232 5.10138C3.99984 5.0988 4.86768 5.10101 5.73519 5.10064C5.73682 4.69789 5.73356 4.2955 5.73649 3.89274C5.73877 3.45676 5.89274 3.02557 6.15902 2.71105ZM6.71338 3.88868C6.71012 4.29255 6.71273 4.69678 6.7124 5.10064C8.90413 5.10028 11.0955 5.10028 13.2873 5.10064C13.2866 4.69641 13.2896 4.29181 13.286 3.88757C13.2843 3.56086 13.0259 3.27181 12.7378 3.27476C10.9126 3.27365 9.08773 3.27402 7.26286 3.27476C6.9738 3.2707 6.71403 3.56086 6.71338 3.88868ZM2.64339 6.77074C2.64242 7.61982 2.64372 8.46926 2.64274 9.31834C2.62028 9.84292 2.94255 10.2819 3.29346 10.5776C3.74268 10.9596 4.26676 11.2092 4.79508 11.4141C5.92952 11.8408 7.11963 12.0365 8.30713 12.1487C8.32113 11.9095 8.27327 11.6585 8.34391 11.4277C8.41846 11.2092 8.62419 11.0685 8.82894 11.0807C9.6193 11.0818 10.41 11.0796 11.2004 11.0815C11.4409 11.0759 11.6639 11.2963 11.6877 11.5684C11.6991 11.7615 11.6893 11.9553 11.6929 12.1487C12.9966 12.0262 14.3081 11.805 15.5382 11.2808C16.0275 11.0634 16.5129 10.7983 16.9035 10.3922C17.1493 10.1338 17.3534 9.78533 17.3556 9.39291C17.3586 8.55639 17.355 7.71986 17.3573 6.88371C17.3582 6.76336 17.3579 6.63747 17.3091 6.52783C17.228 6.32368 17.0311 6.19706 16.8358 6.20777C12.2684 6.2085 7.70068 6.20666 3.1333 6.20851C2.8693 6.20186 2.63428 6.47135 2.64339 6.77074ZM3.29476 11.8903C3.29411 13.6556 3.29313 15.421 3.29508 17.1863C3.29606 17.4754 3.52555 17.7305 3.78044 17.7253C7.86117 17.7264 11.9419 17.7253 16.0223 17.726C16.1564 17.7235 16.299 17.7441 16.4233 17.6725C16.5998 17.5817 16.7134 17.3646 16.7056 17.1457C16.7056 15.394 16.7056 13.6427 16.7056 11.8914C16.0119 12.3134 15.2557 12.5847 14.492 12.7896C13.563 13.0391 12.6141 13.1768 11.6632 13.2621C11.5939 13.6335 11.4276 13.982 11.1815 14.2408C10.8843 14.5612 10.4751 14.7406 10.0653 14.7358C9.78564 14.748 9.49984 14.7052 9.24528 14.5675C8.78239 14.3279 8.43473 13.828 8.3374 13.2617C7.89339 13.213 7.44873 13.1687 7.00635 13.1001C5.72607 12.9125 4.44775 12.5659 3.29476 11.8903ZM9.28402 12.1886C9.28467 12.4392 9.28109 12.6895 9.28532 12.9402C9.29118 13.2654 9.51904 13.5608 9.80094 13.6158C9.91683 13.6357 10.0356 13.6309 10.1525 13.6232C10.4546 13.5918 10.7095 13.2824 10.7144 12.938C10.7186 12.6881 10.715 12.4385 10.7153 12.189C10.2384 12.1878 9.76123 12.1882 9.28402 12.1886Z" fill="black"/>
</svg>
