<svg width="18" height="19" viewBox="0 0 18 19" fill="none" xmlns="http://www.w3.org/2000/svg">
<path fill-rule="evenodd" clip-rule="evenodd" d="M6.71774 0.29436C7.31747 0.14126 7.96568 0.18077 8.54196 0.409594C9.15168 0.648952 9.67414 1.09837 10.0068 1.66155C10.2735 2.10807 10.4176 2.62627 10.4218 3.14592C10.4238 3.45947 10.4223 3.77633 10.4228 4.08928H12.9707C13.2558 4.07499 13.5161 4.30762 13.5312 4.59416C13.6082 5.42577 13.6854 6.25773 13.7617 7.08928C13.8358 7.89712 13.9096 8.70532 13.9843 9.51311C15.3794 9.84645 16.5879 10.8568 17.167 12.1684C17.7587 13.4728 17.7016 15.0472 17.0156 16.3051L17.0146 16.3041C16.4964 17.2737 15.6288 18.0498 14.6074 18.4555L14.4013 18.5317C13.5501 18.8273 12.6135 18.8669 11.7402 18.6489C10.5564 18.3622 9.51115 17.5866 8.87008 16.5561H2.17282C1.97928 16.5554 1.75792 16.5653 1.54586 16.5102C1.08098 16.4008 0.691068 16.0465 0.516567 15.6069L0.455043 15.4135C0.408807 15.2246 0.409841 15.0313 0.428676 14.8481C0.744524 11.4259 1.05642 8.00185 1.37301 4.57952C1.39406 4.30466 1.64462 4.0815 1.91989 4.09026L4.48141 4.08928C4.4825 3.76571 4.47943 3.43373 4.48239 3.10979C4.49175 2.58877 4.64446 2.07143 4.91598 1.62737L5.04 1.44084C5.44285 0.879152 6.04675 0.464278 6.71774 0.29436ZM14.5088 10.8461C13.8381 10.5025 13.057 10.3818 12.3125 10.4975C11.1987 10.6632 10.1875 11.3888 9.66403 12.3852C9.25264 13.1523 9.13663 14.0736 9.33883 14.9203L9.42184 15.2162C9.64597 15.8967 10.0776 16.5078 10.6445 16.9467C11.1312 17.3266 11.7176 17.5805 12.3281 17.6713L12.5986 17.7026C13.2323 17.7501 13.879 17.6288 14.4502 17.35L14.624 17.2602C15.4781 16.7888 16.1302 15.961 16.3769 15.016C16.5769 14.2685 16.5292 13.4553 16.2402 12.7377L16.2392 12.7367C15.9162 11.9256 15.2882 11.2395 14.5088 10.8461ZM1.49411 15.017V15.0239C1.47666 15.1378 1.51918 15.2551 1.60153 15.3442C1.68439 15.4334 1.80041 15.486 1.91598 15.4789H8.38082C8.11018 14.6087 8.09541 13.6606 8.3486 12.7846L8.41012 12.5883C8.73736 11.6114 9.39585 10.7499 10.2529 10.1781L10.5615 9.98577C11.2679 9.5857 12.0801 9.37902 12.8916 9.38225C12.763 7.97626 12.6341 6.57019 12.5048 5.16448C11.8108 5.16417 11.1168 5.16417 10.4228 5.16448C10.4218 5.40021 10.4253 5.64799 10.4199 5.88518C10.415 6.17107 10.1565 6.41123 9.87204 6.39885H9.87008L9.86715 6.39983C9.59455 6.39578 9.35544 6.16138 9.34958 5.88713L9.34665 5.16448C8.08374 5.16415 6.82049 5.16415 5.55758 5.16448L5.55465 5.88811C5.54868 6.16807 5.29847 6.40531 5.01852 6.39885L5.0195 6.39983L5.01657 6.39885L5.01364 6.39983C4.73689 6.40269 4.49016 6.16583 4.48434 5.88811L4.48141 5.16448C3.78689 5.16417 3.09262 5.16417 2.3984 5.16448C2.09623 8.44856 1.7941 11.733 1.49411 15.017ZM7.56832 1.28362C7.02675 1.24606 6.4745 1.46139 6.09762 1.85198C5.76978 2.18536 5.57139 2.64534 5.55954 3.11272C5.55429 3.43757 5.5575 3.76134 5.55758 4.0883C6.82059 4.0877 8.08284 4.08924 9.34567 4.0883C9.34556 3.77473 9.34896 3.46285 9.34567 3.1508C9.34098 2.70816 9.17449 2.26929 8.88375 1.93596C8.55646 1.55475 8.07137 1.31094 7.57028 1.28362H7.56832Z" fill="black"/>
<path d="M14.3121 12.6962C14.4595 12.5506 14.7127 12.5364 14.8754 12.6655C15.0238 12.7742 15.0869 12.9822 15.0242 13.1558C14.9925 13.2576 14.9129 13.3327 14.8378 13.4042C14.1155 14.0926 13.3972 14.7861 12.6734 15.4734C12.5115 15.631 12.2309 15.6269 12.0715 15.4675C11.6586 15.0889 11.2456 14.7102 10.8345 14.3301C10.6587 14.1765 10.6452 13.881 10.8082 13.714C10.9578 13.5414 11.2456 13.5243 11.4145 13.6782C11.7356 13.9671 12.0515 14.2615 12.3699 14.5537C13.0178 13.935 13.6631 13.3138 14.3121 12.6962Z" fill="#FF7000"/>
</svg>
