<svg width="20" height="21" viewBox="0 0 20 21" fill="none" xmlns="http://www.w3.org/2000/svg">
<path d="M3.0431 2.30638C3.30185 2.20535 3.58021 2.16393 3.85712 2.16611C6.9344 2.16611 10.0113 2.16574 13.0886 2.16647C13.4625 2.16284 13.8354 2.31983 14.0894 2.59528C14.3333 2.85039 14.4641 3.20434 14.4575 3.55648C14.4575 5.09585 14.4586 6.63558 14.4572 8.17494C14.4637 8.4802 14.1933 8.75602 13.8884 8.7553C13.5752 8.76874 13.2863 8.48856 13.2954 8.17422C13.2932 6.62322 13.2968 5.07223 13.2936 3.52159C13.2972 3.41512 13.1991 3.32209 13.0933 3.32972C10.0033 3.32754 6.91369 3.32935 3.82405 3.32899C3.4363 3.31554 3.05582 3.55757 2.90792 3.91697C2.81707 4.11212 2.82724 4.33125 2.82906 4.54093C2.82797 7.85842 2.83088 11.1759 2.82761 14.4934C3.20518 14.275 3.64308 14.1696 4.07843 14.1823C5.27693 14.1831 6.47579 14.1816 7.67429 14.1827C7.88688 14.1794 8.09002 14.307 8.18777 14.4941C8.29316 14.6849 8.27317 14.9357 8.14089 15.1086C8.03296 15.2536 7.85744 15.3467 7.67574 15.3445C6.45072 15.3463 5.22605 15.3445 4.00139 15.3456C3.61255 15.3398 3.23026 15.5454 3.01912 15.8718C2.77237 16.241 2.76765 16.7534 3.00785 17.127C3.21645 17.4646 3.60674 17.6764 4.00357 17.6706C6.1967 17.6713 8.39019 17.671 10.5833 17.671C10.7218 17.6721 10.8668 17.6579 10.9972 17.7153C11.2407 17.8142 11.3988 18.0911 11.3479 18.3513C11.3043 18.6267 11.0405 18.8451 10.7614 18.8339C8.69108 18.8342 6.62042 18.8339 4.54976 18.8339C4.18818 18.8273 3.82042 18.8608 3.46538 18.7732C2.78727 18.6198 2.19311 18.1423 1.89548 17.5147C1.74285 17.1986 1.66472 16.8482 1.66618 16.4976C1.66581 12.4507 1.66618 8.40389 1.66618 4.35705C1.66363 4.0805 1.70579 3.8025 1.80536 3.54376C2.01541 2.9794 2.47838 2.5157 3.0431 2.30638Z" fill="black"/>
<path d="M5.25043 5.27569C5.29331 5.26951 5.33619 5.2666 5.37944 5.2666C7.17536 5.26733 8.97093 5.2666 10.7669 5.26733C10.9824 5.26115 11.1909 5.3887 11.2894 5.57949C11.3977 5.77609 11.3726 6.03556 11.2302 6.20854C11.1204 6.34772 10.9471 6.43276 10.7698 6.42949C8.96112 6.42985 7.15247 6.43058 5.34382 6.42912C5.04947 6.43276 4.77982 6.17838 4.76892 5.88366C4.74457 5.5973 4.96589 5.31748 5.25043 5.27569Z" fill="black"/>
<path d="M10.8611 10.2038C11.5577 9.74083 12.4005 9.50352 13.2366 9.53369C14.123 9.55985 14.997 9.88764 15.6802 10.4535C16.4847 11.1094 17.0233 12.0822 17.1414 13.1146C17.2689 14.142 16.983 15.2115 16.3601 16.0382C16.9277 16.6044 17.4943 17.1717 18.0619 17.7386C18.196 17.8603 18.3235 18.0122 18.3304 18.203C18.3599 18.4708 18.1745 18.7397 17.9154 18.8099C17.7196 18.8658 17.4953 18.8157 17.3504 18.6707C16.7453 18.0682 16.1428 17.4635 15.5388 16.8599C15.0231 17.2454 14.4159 17.5089 13.7799 17.6135C12.9376 17.7571 12.0505 17.6274 11.2866 17.2432C10.4414 16.8235 9.75127 16.1003 9.37333 15.2351C9.00266 14.3964 8.9318 13.4308 9.16983 12.5456C9.42239 11.5931 10.0376 10.7442 10.8611 10.2038ZM12.8881 10.7017C11.8543 10.7667 10.8905 11.4372 10.4628 12.3795C10.1361 13.0768 10.1067 13.9054 10.3803 14.6253C10.6016 15.2162 11.0228 15.7289 11.5577 16.0636C12.0959 16.4041 12.7482 16.5571 13.382 16.4939C13.8824 16.4467 14.3694 16.2653 14.7789 15.9739C15.3317 15.585 15.7408 14.9971 15.9116 14.3429C16.0781 13.7161 16.0272 13.0332 15.7659 12.4391C15.5152 11.862 15.0711 11.3714 14.5216 11.0643C14.0285 10.7856 13.4525 10.6602 12.8881 10.7017Z" fill="#FF7000"/>
</svg>
