<svg width="20" height="21" viewBox="0 0 20 21" fill="none" xmlns="http://www.w3.org/2000/svg">
<path d="M9.85322 3H10.1146C11.2671 3.0208 12.4161 3.30176 13.4397 3.83408C15.037 4.65381 16.3193 6.06738 16.9744 7.73936C17.3061 8.57022 17.4774 9.46143 17.5 10.355V10.6148C17.4792 11.7604 17.2015 12.9023 16.6753 13.9213C16.1213 15.005 15.2969 15.9483 14.2999 16.6459C13.0835 17.5034 11.6063 17.9757 10.1195 18H3.06631C2.76865 17.9927 2.51143 17.7375 2.5 17.4404V10.3655C2.52402 9.24785 2.79092 8.13428 3.2957 7.13584C3.90361 5.92119 4.8499 4.87852 5.99951 4.15518C7.14648 3.42598 8.4959 3.02959 9.85322 3ZM8.65264 4.31631C7.75498 4.51318 6.89453 4.90049 6.17061 5.46914C5.57441 5.91299 5.07168 6.4749 4.66533 7.0957C4.02139 8.0959 3.67656 9.28184 3.67275 10.4707C3.6707 12.5897 3.67246 14.7091 3.67188 16.8281C5.65469 16.8281 7.6375 16.8281 9.62031 16.8281C9.89424 16.8278 10.1685 16.8313 10.4415 16.8114C11.6775 16.7279 12.891 16.2747 13.864 15.5051C14.0462 15.3797 14.2012 15.2209 14.3667 15.0756C14.5094 14.9531 14.6266 14.8058 14.7546 14.6692C14.9292 14.4885 15.0657 14.2761 15.2189 14.0777C15.7896 13.2516 16.157 12.2854 16.2777 11.2884C16.4734 9.75527 16.0882 8.15098 15.1938 6.88799C14.9037 6.48252 14.5782 6.09961 14.2 5.77324C14.0102 5.58721 13.7872 5.4416 13.5771 5.28047C13.0782 4.93535 12.5274 4.66611 11.9509 4.47861C10.8912 4.13555 9.74102 4.08193 8.65264 4.31631Z" fill="black"/>
<path d="M9.54448 7.12265C10.0838 7.06611 10.6487 7.12675 11.1388 7.37021C11.4907 7.54423 11.798 7.82783 11.9541 8.19286C12.1428 8.62265 12.1044 9.13388 11.8897 9.54697C11.6981 9.9454 11.3934 10.2794 11.0524 10.556C10.8804 10.7045 10.6929 10.8413 10.5611 11.0297C10.4629 11.1656 10.4032 11.3273 10.3821 11.4935C10.3528 11.6856 10.3844 11.8837 10.337 12.0735C10.2889 12.2329 10.119 12.3108 9.96577 12.3331C9.78383 12.3554 9.5852 12.368 9.41674 12.283C9.26235 12.198 9.2184 12.0091 9.20581 11.8468C9.1768 11.4015 9.24799 10.9333 9.49262 10.5524C9.70883 10.205 10.0651 9.98906 10.3639 9.72187C10.5766 9.5455 10.7629 9.30468 10.7846 9.01992C10.8095 8.7999 10.7128 8.56962 10.5291 8.44394C10.2898 8.2787 9.98452 8.25146 9.70239 8.2749C9.4645 8.29452 9.22133 8.38681 9.07016 8.5787C8.9351 8.72372 8.85922 8.93466 8.66967 9.0205C8.38637 9.11894 8.02866 8.96249 7.92729 8.67509C7.87543 8.53886 7.89184 8.38827 7.92495 8.24999C8.01254 7.94794 8.21879 7.68925 8.47309 7.50849C8.78569 7.28349 9.1642 7.16484 9.54448 7.12265Z" fill="#FF7000"/>
<path d="M9.56694 13.0857C9.99819 12.953 10.4854 13.2773 10.5446 13.7206C10.6254 14.1553 10.2663 14.603 9.82592 14.6232C9.43276 14.6622 9.05688 14.3478 9.0059 13.9599C8.94028 13.5823 9.19546 13.1821 9.56694 13.0857Z" fill="#FF7000"/>
</svg>
