<svg width="20" height="21" viewBox="0 0 20 21" fill="none" xmlns="http://www.w3.org/2000/svg">
<path fill-rule="evenodd" clip-rule="evenodd" d="M8.85843 2.04439C9.29512 1.8235 9.85217 1.87479 10.2393 2.17818C10.5754 2.43619 10.7738 2.86361 10.7412 3.29048L10.7403 3.2895C10.7324 3.44353 10.6912 3.58769 10.6358 3.72017C11.7985 4.38142 12.8499 5.24219 13.7129 6.26704C14.4596 7.14491 15.0606 8.14063 15.5108 9.19868C15.75 9.1276 16.0113 9.11728 16.2598 9.19185C16.7227 9.32051 17.0813 9.72456 17.1709 10.1889C17.2616 10.6354 17.1022 11.1187 16.7569 11.4194C15.6178 12.4368 14.4766 13.4518 13.3369 14.4682L13.3379 14.4692C12.963 14.8142 12.3925 14.8913 11.9366 14.685C11.4822 14.4839 11.1639 14.0104 11.168 13.5063C11.1649 13.3193 11.2082 13.1399 11.2784 12.977C10.6953 12.6485 10.1427 12.2678 9.62406 11.8461C7.91755 13.6008 6.21325 15.3572 4.50687 17.1127L4.5059 17.1118C4.33968 17.2865 4.15161 17.4754 3.91898 17.6147L3.918 17.6137C3.35688 17.9625 2.64198 18.0551 2.01078 17.8413C1.3187 17.6188 0.755785 17.0475 0.544957 16.351L0.545934 16.3501C0.321689 15.6481 0.470224 14.848 0.92484 14.2709C1.10001 14.0405 1.32602 13.8656 1.52933 13.7124L7.31547 9.25239C6.95959 8.70014 6.65138 8.11822 6.39359 7.51411C6.20336 7.57026 5.99551 7.59192 5.78715 7.55025C5.25288 7.46043 4.81428 7.00871 4.73343 6.47603C4.66338 6.05288 4.81144 5.59664 5.13773 5.30513L8.45902 2.33833C8.56482 2.24265 8.6961 2.12383 8.85843 2.04439ZM2.04886 14.5366L2.04691 14.5376C1.90716 14.6429 1.78585 14.7433 1.69339 14.8618L1.69242 14.8637C1.45976 15.1545 1.3661 15.5522 1.43461 15.9194L1.47367 16.0747L1.47464 16.0756C1.60452 16.4844 1.95086 16.8209 2.36332 16.934L2.36625 16.935C2.75563 17.0463 3.19811 16.9618 3.51957 16.7153C3.64417 16.6203 3.74313 16.5067 3.87797 16.3706C5.55336 14.6454 7.22882 12.9214 8.90336 11.1958C8.53641 10.8343 8.19216 10.4499 7.87504 10.0434C5.93298 11.5409 3.99143 13.0394 2.04886 14.5366ZM15.836 10.1147L15.7813 10.1284C15.7396 10.1422 15.6944 10.1702 15.6407 10.2163L15.6416 10.2172C14.5198 11.2184 13.3978 12.2201 12.2754 13.2202L12.2159 13.2797C12.1663 13.3403 12.1375 13.4103 12.1348 13.477V13.4809C12.1258 13.6257 12.2318 13.7745 12.3711 13.8139L12.376 13.8159C12.4829 13.8491 12.6121 13.8184 12.7002 13.7368L12.7032 13.7338C13.7639 12.7907 14.8231 11.8459 15.8828 10.9018C16.0047 10.7891 16.0875 10.732 16.1612 10.6391C16.2444 10.53 16.2436 10.3579 16.1582 10.2465L16.1534 10.2407C16.0863 10.1461 15.9547 10.0954 15.836 10.1147ZM8.60257 5.71626C8.13827 6.1302 7.67312 6.54334 7.20902 6.95747C7.63293 8.0004 8.22055 8.97737 8.95218 9.8315L9.28812 10.2045L9.2891 10.2055C10.0449 11.0119 10.9378 11.6882 11.9092 12.2202C12.8326 11.3977 13.7613 10.5656 14.6856 9.74263C14.2554 8.68265 13.6603 7.68894 12.9121 6.82564C12.0948 5.87304 11.0969 5.07664 9.99418 4.47407C9.53021 4.88808 9.06665 5.30253 8.60257 5.71626ZM9.72757 3.04439C9.65269 2.91339 9.47654 2.84686 9.33988 2.89595L9.33597 2.89693C9.29658 2.91021 9.25643 2.93564 9.20804 2.97505C9.14937 3.02286 9.11883 3.05546 9.04593 3.11861C7.97257 4.07487 6.89914 5.03271 5.82523 5.98872L5.82132 5.99165C5.75395 6.04883 5.70874 6.12218 5.69242 6.19575L5.68656 6.26997V6.27779L5.69437 6.33931C5.72752 6.48111 5.86513 6.59983 6.0098 6.59907L6.02152 6.5981C6.11703 6.60308 6.22073 6.5498 6.30277 6.44673L6.31351 6.43404L6.32523 6.42329C6.90674 5.89572 7.4988 5.37494 8.08109 4.85298L8.08207 4.852C8.61686 4.38067 9.15275 3.88061 9.70511 3.4145C9.78554 3.31337 9.79706 3.15872 9.7305 3.04927L9.72757 3.04439Z" fill="black"/>
<path d="M17.045 12.9777C17.2345 12.8785 17.486 13.0598 17.4438 13.2715C17.3993 13.5191 17.3454 13.7652 17.2919 14.0113C17.2645 14.1602 17.1032 14.2652 16.9559 14.2293C16.8106 14.2031 16.7036 14.0492 16.7364 13.9039C16.7778 13.6777 16.8294 13.4531 16.8743 13.2273C16.8903 13.1242 16.945 13.0207 17.045 12.9777Z" fill="#FF7000"/>
<path d="M18.2936 13.6422C18.4686 13.559 18.6925 13.7047 18.6897 13.8977C18.6925 14.0797 18.5175 14.1809 18.41 14.3024C18.2823 14.4227 18.1702 14.5602 18.0307 14.6672C17.8616 14.782 17.6112 14.6473 17.6022 14.4461C17.585 14.2606 17.7632 14.1559 17.8714 14.0348C18.014 13.9066 18.1296 13.7438 18.2936 13.6422Z" fill="#FF7000"/>
<path d="M18.8436 14.9031C18.9615 14.8824 19.0912 14.8289 19.2053 14.8925C19.3561 14.9652 19.4084 15.1781 19.3053 15.3113C19.2342 15.4167 19.0994 15.4312 18.9861 15.4562C18.7897 15.4929 18.5963 15.5441 18.399 15.5761C18.2525 15.6042 18.1014 15.4906 18.0807 15.3449C18.0529 15.2093 18.144 15.0632 18.2772 15.0273C18.4635 14.9765 18.6557 14.9476 18.8436 14.9031Z" fill="#FF7000"/>
<path d="M11.2558 16.1731C11.4707 15.5149 12.1207 15.0289 12.814 15.0153C13.8031 15.0102 14.7922 15.0149 15.7812 15.0125C15.9969 15.009 16.2144 15.0329 16.4191 15.1043C16.9492 15.2797 17.375 15.7352 17.5176 16.275C17.5957 16.545 17.5765 16.8289 17.5789 17.1067C17.7926 17.1125 18.0152 17.0817 18.2203 17.1594C18.5683 17.2793 18.8183 17.6336 18.814 18.002C18.8195 18.3668 18.5738 18.7168 18.2301 18.8383C18.0476 18.9102 17.8484 18.8914 17.657 18.8934C15.4562 18.8934 13.2554 18.893 11.0547 18.8934C10.8984 18.8914 10.7387 18.9051 10.5863 18.8614C10.2988 18.7836 10.0586 18.5528 9.97146 18.2676C9.89295 18.0204 9.92889 17.7391 10.0695 17.5211C10.2152 17.2903 10.4711 17.1309 10.7441 17.1106C10.8836 17.102 11.0238 17.1079 11.1637 17.1067C11.1637 16.7942 11.1461 16.4719 11.2558 16.1731ZM11.8039 16.3274C11.707 16.575 11.7379 16.8446 11.7336 17.1039C13.4922 17.1043 15.2504 17.1043 17.009 17.1039C17.007 16.818 17.0363 16.5164 16.9066 16.2508C16.7297 15.8473 16.3023 15.5723 15.8617 15.5789C14.8582 15.5782 13.8547 15.5762 12.8512 15.5801C12.3918 15.5825 11.9574 15.8957 11.8039 16.3274ZM10.7109 17.6989C10.5488 17.7532 10.457 17.9497 10.5199 18.1094C10.5664 18.2485 10.7144 18.3325 10.8582 18.3207C13.1117 18.32 15.3648 18.3204 17.6183 18.3204C17.7351 18.3192 17.8527 18.3266 17.9695 18.3145C18.1344 18.2938 18.259 18.1243 18.2332 17.961C18.2168 17.7946 18.0562 17.6657 17.8906 17.6797C15.6125 17.6793 13.3344 17.6801 11.0562 17.6793C10.9414 17.6825 10.823 17.6668 10.7109 17.6989Z" fill="#FF7000"/>
</svg>
